%TF.GenerationSoftware,KiCad,Pcbnew,(6.0.1)*%
%TF.CreationDate,2022-02-11T10:22:36+08:00*%
%TF.ProjectId,Wyse-5070-PCIe-Riser,57797365-2d35-4303-9730-2d504349652d,rev?*%
%TF.SameCoordinates,Original*%
%TF.FileFunction,Paste,Bot*%
%TF.FilePolarity,Positive*%
%FSLAX46Y46*%
G04 Gerber Fmt 4.6, Leading zero omitted, Abs format (unit mm)*
G04 Created by KiCad (PCBNEW (6.0.1)) date 2022-02-11 10:22:36*
%MOMM*%
%LPD*%
G01*
G04 APERTURE LIST*
%ADD10R,3.000000X5.000000*%
%ADD11R,0.700000X2.000000*%
G04 APERTURE END LIST*
D10*
%TO.C,J2*%
X126850000Y-133000000D03*
X182850000Y-133000000D03*
D11*
X129850000Y-136600000D03*
X130850000Y-136600000D03*
X131850000Y-136600000D03*
X132850000Y-136600000D03*
X133850000Y-136600000D03*
X134850000Y-136600000D03*
X135850000Y-136600000D03*
X136850000Y-136600000D03*
X137850000Y-136600000D03*
X138850000Y-136600000D03*
X139850000Y-136600000D03*
X142850000Y-136600000D03*
X143850000Y-136600000D03*
X144850000Y-136600000D03*
X145850000Y-136600000D03*
X146850000Y-136600000D03*
X147850000Y-136600000D03*
X148850000Y-136600000D03*
X149850000Y-136600000D03*
X150850000Y-136600000D03*
X151850000Y-136600000D03*
X152850000Y-136600000D03*
X153850000Y-136600000D03*
X154850000Y-136600000D03*
X155850000Y-136600000D03*
X156850000Y-136600000D03*
X157850000Y-136600000D03*
X158850000Y-136600000D03*
X159850000Y-136600000D03*
X160850000Y-136600000D03*
X161850000Y-136600000D03*
X162850000Y-136600000D03*
X163850000Y-136600000D03*
X164850000Y-136600000D03*
X165850000Y-136600000D03*
X166850000Y-136600000D03*
X167850000Y-136600000D03*
X168850000Y-136600000D03*
X169850000Y-136600000D03*
X170850000Y-136600000D03*
X171850000Y-136600000D03*
X172850000Y-136600000D03*
X173850000Y-136600000D03*
X174850000Y-136600000D03*
X175850000Y-136600000D03*
X176850000Y-136600000D03*
X177850000Y-136600000D03*
X178850000Y-136600000D03*
X179850000Y-136600000D03*
X129850000Y-129400000D03*
X130850000Y-129400000D03*
X131850000Y-129400000D03*
X132850000Y-129400000D03*
X133850000Y-129400000D03*
X134850000Y-129400000D03*
X135850000Y-129400000D03*
X136850000Y-129400000D03*
X137850000Y-129400000D03*
X138850000Y-129400000D03*
X139850000Y-129400000D03*
X142850000Y-129400000D03*
X143850000Y-129400000D03*
X144850000Y-129400000D03*
X145850000Y-129400000D03*
X146850000Y-129400000D03*
X147850000Y-129400000D03*
X148850000Y-129400000D03*
X149850000Y-129400000D03*
X150850000Y-129400000D03*
X151850000Y-129400000D03*
X152850000Y-129400000D03*
X153850000Y-129400000D03*
X154850000Y-129400000D03*
X155850000Y-129400000D03*
X156850000Y-129400000D03*
X157850000Y-129400000D03*
X158850000Y-129400000D03*
X159850000Y-129400000D03*
X160850000Y-129400000D03*
X161850000Y-129400000D03*
X162850000Y-129400000D03*
X163850000Y-129400000D03*
X164850000Y-129400000D03*
X165850000Y-129400000D03*
X166850000Y-129400000D03*
X167850000Y-129400000D03*
X168850000Y-129400000D03*
X169850000Y-129400000D03*
X170850000Y-129400000D03*
X171850000Y-129400000D03*
X172850000Y-129400000D03*
X173850000Y-129400000D03*
X174850000Y-129400000D03*
X175850000Y-129400000D03*
X176850000Y-129400000D03*
X177850000Y-129400000D03*
X178850000Y-129400000D03*
X179850000Y-129400000D03*
%TD*%
M02*
