%TF.GenerationSoftware,KiCad,Pcbnew,(6.0.1)*%
%TF.CreationDate,2022-02-11T10:22:35+08:00*%
%TF.ProjectId,Wyse-5070-PCIe-Riser,57797365-2d35-4303-9730-2d504349652d,rev?*%
%TF.SameCoordinates,Original*%
%TF.FileFunction,Copper,L1,Top*%
%TF.FilePolarity,Positive*%
%FSLAX46Y46*%
G04 Gerber Fmt 4.6, Leading zero omitted, Abs format (unit mm)*
G04 Created by KiCad (PCBNEW (6.0.1)) date 2022-02-11 10:22:35*
%MOMM*%
%LPD*%
G01*
G04 APERTURE LIST*
G04 Aperture macros list*
%AMRoundRect*
0 Rectangle with rounded corners*
0 $1 Rounding radius*
0 $2 $3 $4 $5 $6 $7 $8 $9 X,Y pos of 4 corners*
0 Add a 4 corners polygon primitive as box body*
4,1,4,$2,$3,$4,$5,$6,$7,$8,$9,$2,$3,0*
0 Add four circle primitives for the rounded corners*
1,1,$1+$1,$2,$3*
1,1,$1+$1,$4,$5*
1,1,$1+$1,$6,$7*
1,1,$1+$1,$8,$9*
0 Add four rect primitives between the rounded corners*
20,1,$1+$1,$2,$3,$4,$5,0*
20,1,$1+$1,$4,$5,$6,$7,0*
20,1,$1+$1,$6,$7,$8,$9,0*
20,1,$1+$1,$8,$9,$2,$3,0*%
%AMFreePoly0*
4,1,22,0.500000,-0.750000,0.000000,-0.750000,0.000000,-0.745033,-0.079941,-0.743568,-0.215256,-0.701293,-0.333266,-0.622738,-0.424486,-0.514219,-0.481581,-0.384460,-0.499164,-0.250000,-0.500000,-0.250000,-0.500000,0.250000,-0.499164,0.250000,-0.499963,0.256109,-0.478152,0.396186,-0.417904,0.524511,-0.324060,0.630769,-0.204165,0.706417,-0.067858,0.745374,0.000000,0.744959,0.000000,0.750000,
0.500000,0.750000,0.500000,-0.750000,0.500000,-0.750000,$1*%
%AMFreePoly1*
4,1,20,0.000000,0.744959,0.073905,0.744508,0.209726,0.703889,0.328688,0.626782,0.421226,0.519385,0.479903,0.390333,0.500000,0.250000,0.500000,-0.250000,0.499851,-0.262216,0.476331,-0.402017,0.414519,-0.529596,0.319384,-0.634700,0.198574,-0.708877,0.061801,-0.746166,0.000000,-0.745033,0.000000,-0.750000,-0.500000,-0.750000,-0.500000,0.750000,0.000000,0.750000,0.000000,0.744959,
0.000000,0.744959,$1*%
G04 Aperture macros list end*
%TA.AperFunction,SMDPad,CuDef*%
%ADD10FreePoly0,270.000000*%
%TD*%
%TA.AperFunction,SMDPad,CuDef*%
%ADD11FreePoly1,270.000000*%
%TD*%
%TA.AperFunction,SMDPad,CuDef*%
%ADD12FreePoly0,90.000000*%
%TD*%
%TA.AperFunction,SMDPad,CuDef*%
%ADD13FreePoly1,90.000000*%
%TD*%
%TA.AperFunction,SMDPad,CuDef*%
%ADD14RoundRect,0.140000X-0.170000X0.140000X-0.170000X-0.140000X0.170000X-0.140000X0.170000X0.140000X0*%
%TD*%
%TA.AperFunction,ConnectorPad*%
%ADD15R,0.700000X4.300000*%
%TD*%
%TA.AperFunction,ConnectorPad*%
%ADD16R,0.700000X3.200000*%
%TD*%
%TA.AperFunction,ViaPad*%
%ADD17C,0.500000*%
%TD*%
%TA.AperFunction,Conductor*%
%ADD18C,0.177800*%
%TD*%
%TA.AperFunction,Conductor*%
%ADD19C,0.700000*%
%TD*%
%TA.AperFunction,Conductor*%
%ADD20C,0.500000*%
%TD*%
%TA.AperFunction,Conductor*%
%ADD21C,1.500000*%
%TD*%
%TA.AperFunction,Conductor*%
%ADD22C,0.150000*%
%TD*%
G04 APERTURE END LIST*
D10*
%TO.P,JP4,1,A*%
%TO.N,/~{Wyse_WAKE}*%
X139500000Y-132350000D03*
D11*
%TO.P,JP4,2,B*%
%TO.N,/~{WAKE}*%
X139500000Y-133650000D03*
%TD*%
D12*
%TO.P,JP2,1,A*%
%TO.N,/Wyse_SMCLK*%
X134500000Y-133650000D03*
D13*
%TO.P,JP2,2,B*%
%TO.N,/SMCLK*%
X134500000Y-132350000D03*
%TD*%
D14*
%TO.P,C6,1*%
%TO.N,/PET2-*%
X154850000Y-132520000D03*
%TO.P,C6,2*%
%TO.N,/W-PET2-*%
X154850000Y-133480000D03*
%TD*%
%TO.P,C4,1*%
%TO.N,/PET1-*%
X150850000Y-132520000D03*
%TO.P,C4,2*%
%TO.N,/W-PET1-*%
X150850000Y-133480000D03*
%TD*%
D15*
%TO.P,J1,B1,+12V*%
%TO.N,+12V*%
X138500000Y-146550000D03*
%TO.P,J1,B2,+12V*%
X139500000Y-146550000D03*
%TO.P,J1,B3,+12V*%
X140500000Y-146550000D03*
%TO.P,J1,B4,GND*%
%TO.N,GND*%
X141500000Y-146550000D03*
%TO.P,J1,B5,SMCLK*%
%TO.N,/Wyse_SMCLK*%
X142500000Y-146550000D03*
%TO.P,J1,B6,SMDAT*%
%TO.N,/Wyse_SMDAT*%
X143500000Y-146550000D03*
%TO.P,J1,B7,GND*%
%TO.N,GND*%
X144500000Y-146550000D03*
%TO.P,J1,B8,+3.3V*%
%TO.N,+3V3*%
X145500000Y-146550000D03*
%TO.P,J1,B9,TRST#*%
X146500000Y-146550000D03*
%TO.P,J1,B10,+3.3V_AUX*%
%TO.N,+3V3SB*%
X147500000Y-146550000D03*
%TO.P,J1,B11,WAKE#*%
%TO.N,/~{Wyse_WAKE}*%
X148500000Y-146550000D03*
%TO.P,J1,B12,CLKREQ#*%
%TO.N,unconnected-(J1-PadB12)*%
X151500000Y-146550000D03*
%TO.P,J1,B13,GND*%
%TO.N,GND*%
X152500000Y-146550000D03*
%TO.P,J1,B14,PETp0*%
%TO.N,/W-PET0+*%
X153500000Y-146550000D03*
%TO.P,J1,B15,PETn0*%
%TO.N,/W-PET0-*%
X154500000Y-146550000D03*
%TO.P,J1,B16,GND*%
%TO.N,GND*%
X155500000Y-146550000D03*
%TO.P,J1,B17,PRSNT2#*%
X156500000Y-146550000D03*
%TO.P,J1,B18,GND*%
X157500000Y-146550000D03*
%TO.P,J1,B19,PETp1*%
%TO.N,/W-PET1+*%
X158500000Y-146550000D03*
%TO.P,J1,B20,PETn1*%
%TO.N,/W-PET1-*%
X159500000Y-146550000D03*
%TO.P,J1,B21,GND*%
%TO.N,GND*%
X160500000Y-146550000D03*
%TO.P,J1,B22,GND*%
X161500000Y-146550000D03*
%TO.P,J1,B23,PETp2*%
%TO.N,/W-PET2+*%
X162500000Y-146550000D03*
%TO.P,J1,B24,PETn2*%
%TO.N,/W-PET2-*%
X163500000Y-146550000D03*
%TO.P,J1,B25,GND*%
%TO.N,GND*%
X164500000Y-146550000D03*
%TO.P,J1,B26,GND*%
X165500000Y-146550000D03*
%TO.P,J1,B27,PETp3*%
%TO.N,/W-PET3+*%
X166500000Y-146550000D03*
%TO.P,J1,B28,PETn3*%
%TO.N,/W-PET3-*%
X167500000Y-146550000D03*
%TO.P,J1,B29,GND*%
%TO.N,GND*%
X168500000Y-146550000D03*
%TO.P,J1,B30,PWRBRK#*%
%TO.N,unconnected-(J1-PadB30)*%
X169500000Y-146550000D03*
D16*
%TO.P,J1,B31,PRSNT2#*%
%TO.N,GND*%
X170500000Y-146000000D03*
D15*
%TO.P,J1,B32,GND*%
X171500000Y-146550000D03*
%TD*%
D14*
%TO.P,C1,1*%
%TO.N,/PET0+*%
X144850000Y-132520000D03*
%TO.P,C1,2*%
%TO.N,/W-PET0+*%
X144850000Y-133480000D03*
%TD*%
D12*
%TO.P,JP3,1,A*%
%TO.N,/Wyse_SMDAT*%
X137000000Y-133650000D03*
D13*
%TO.P,JP3,2,B*%
%TO.N,/SMDAT*%
X137000000Y-132350000D03*
%TD*%
D14*
%TO.P,C7,1*%
%TO.N,/PET3+*%
X157850000Y-132520000D03*
%TO.P,C7,2*%
%TO.N,/W-PET3+*%
X157850000Y-133480000D03*
%TD*%
%TO.P,C3,1*%
%TO.N,/PET1+*%
X149850000Y-132520000D03*
%TO.P,C3,2*%
%TO.N,/W-PET1+*%
X149850000Y-133480000D03*
%TD*%
%TO.P,C5,1*%
%TO.N,/PET2+*%
X153850000Y-132520000D03*
%TO.P,C5,2*%
%TO.N,/W-PET2+*%
X153850000Y-133480000D03*
%TD*%
%TO.P,C8,1*%
%TO.N,/PET3-*%
X158850000Y-132520000D03*
%TO.P,C8,2*%
%TO.N,/W-PET3-*%
X158850000Y-133480000D03*
%TD*%
%TO.P,C2,1*%
%TO.N,/PET0-*%
X145850000Y-132520000D03*
%TO.P,C2,2*%
%TO.N,/W-PET0-*%
X145850000Y-133480000D03*
%TD*%
D17*
%TO.N,/PET0+*%
X145036500Y-131350000D03*
%TO.N,/PET0-*%
X145663500Y-131350000D03*
%TO.N,/PET1+*%
X150036500Y-131350000D03*
%TO.N,/PET1-*%
X150663500Y-131350000D03*
%TO.N,/PET2+*%
X154036500Y-131350000D03*
%TO.N,/PET2-*%
X154663500Y-131350000D03*
%TO.N,/PET3+*%
X158036500Y-131350000D03*
%TO.N,/PET3-*%
X158663500Y-131350000D03*
%TO.N,GND*%
X147850000Y-130900000D03*
X150850000Y-138100000D03*
X156850000Y-130900000D03*
X135850000Y-130900000D03*
X144500000Y-143750000D03*
X132850000Y-135100000D03*
X160000000Y-143750000D03*
X152850000Y-130900000D03*
X157000000Y-143750000D03*
X158000000Y-143750000D03*
X166000000Y-143750000D03*
X129850000Y-138100000D03*
X148850000Y-135100000D03*
X159850000Y-130900000D03*
X162000000Y-143750000D03*
X152000000Y-143750000D03*
X148850000Y-130900000D03*
X132850000Y-130900000D03*
X157850000Y-135100000D03*
X170000000Y-143750000D03*
X151850000Y-130900000D03*
X145850000Y-138100000D03*
X161850000Y-135100000D03*
X143850000Y-130900000D03*
X164850000Y-138100000D03*
X155850000Y-130900000D03*
X153850000Y-135100000D03*
X164000000Y-143750000D03*
X129850000Y-135100000D03*
X168000000Y-143750000D03*
X141500000Y-143750000D03*
X155000000Y-143750000D03*
X146850000Y-130900000D03*
%TO.N,+12V*%
X139500000Y-143750000D03*
X131850000Y-138000000D03*
X130850000Y-135250000D03*
X140500000Y-143750000D03*
X131850000Y-135250000D03*
X130850000Y-138000000D03*
X139500000Y-142950000D03*
X140500000Y-142950000D03*
%TO.N,+3V3*%
X145500000Y-143750000D03*
%TO.N,+3V3SB*%
X142850000Y-133600000D03*
X142850000Y-132400000D03*
X142850000Y-133000000D03*
%TO.N,/SMCLK*%
X133850000Y-131000000D03*
%TO.N,/SMDAT*%
X134850000Y-131000000D03*
%TO.N,/~{WAKE}*%
X140500000Y-129400000D03*
%TD*%
D18*
%TO.N,/PET0+*%
X145197599Y-131511099D02*
X145197599Y-132172401D01*
X145036500Y-131350000D02*
X145197599Y-131511099D01*
X145197599Y-132172401D02*
X144850000Y-132520000D01*
%TO.N,/W-PET0+*%
X145197599Y-134463127D02*
X145197599Y-133827599D01*
X153847600Y-143113128D02*
X145197599Y-134463127D01*
X145197599Y-133827599D02*
X144850000Y-133480000D01*
X153847600Y-144402400D02*
X153847600Y-143113128D01*
X153500000Y-144750000D02*
X153847600Y-144402400D01*
X153500000Y-146550000D02*
X153500000Y-144750000D01*
%TO.N,/PET0-*%
X145502401Y-131511099D02*
X145502401Y-132172401D01*
X145663500Y-131350000D02*
X145502401Y-131511099D01*
X145502401Y-132172401D02*
X145850000Y-132520000D01*
%TO.N,/W-PET0-*%
X145502401Y-133827599D02*
X145850000Y-133480000D01*
X154500000Y-144750000D02*
X154152400Y-144402400D01*
X145502401Y-134336873D02*
X145502401Y-133827599D01*
X154152400Y-144402400D02*
X154152400Y-142986872D01*
X154152400Y-142986872D02*
X145502401Y-134336873D01*
X154500000Y-146550000D02*
X154500000Y-144750000D01*
%TO.N,/PET1+*%
X150197599Y-132172401D02*
X149850000Y-132520000D01*
X150036500Y-131350000D02*
X150197599Y-131511099D01*
X150197599Y-131511099D02*
X150197599Y-132172401D01*
%TO.N,/W-PET1+*%
X158500000Y-146550000D02*
X158500000Y-144750000D01*
X158847600Y-144402400D02*
X158847600Y-143113128D01*
X158500000Y-144750000D02*
X158847600Y-144402400D01*
X158847600Y-143113128D02*
X150197599Y-134463127D01*
X150197599Y-133827599D02*
X149850000Y-133480000D01*
X150197599Y-134463127D02*
X150197599Y-133827599D01*
%TO.N,/PET1-*%
X150663500Y-131350000D02*
X150502401Y-131511099D01*
X150502401Y-132172401D02*
X150850000Y-132520000D01*
X150502401Y-131511099D02*
X150502401Y-132172401D01*
%TO.N,/W-PET1-*%
X150502401Y-133827599D02*
X150850000Y-133480000D01*
X159152400Y-142986872D02*
X150502401Y-134336873D01*
X159500000Y-146550000D02*
X159500000Y-144750000D01*
X150502401Y-134336873D02*
X150502401Y-133827599D01*
X159500000Y-144750000D02*
X159152400Y-144402400D01*
X159152400Y-144402400D02*
X159152400Y-142986872D01*
%TO.N,/PET2+*%
X154197599Y-132172401D02*
X153850000Y-132520000D01*
X154036500Y-131350000D02*
X154197599Y-131511099D01*
X154197599Y-131511099D02*
X154197599Y-132172401D01*
%TO.N,/W-PET2+*%
X162500000Y-144750000D02*
X162847600Y-144402400D01*
X162847600Y-144402400D02*
X162847600Y-143113128D01*
X162500000Y-146550000D02*
X162500000Y-144750000D01*
X162847600Y-143113128D02*
X154197599Y-134463127D01*
X154197599Y-134463127D02*
X154197599Y-133827599D01*
X154197599Y-133827599D02*
X153850000Y-133480000D01*
%TO.N,/PET2-*%
X154502401Y-131511099D02*
X154502401Y-132172401D01*
X154502401Y-132172401D02*
X154850000Y-132520000D01*
X154663500Y-131350000D02*
X154502401Y-131511099D01*
%TO.N,/W-PET2-*%
X163152400Y-144402400D02*
X163152400Y-142986872D01*
X163500000Y-146550000D02*
X163500000Y-144750000D01*
X154502401Y-134336873D02*
X154502401Y-133827599D01*
X154502401Y-133827599D02*
X154850000Y-133480000D01*
X163500000Y-144750000D02*
X163152400Y-144402400D01*
X163152400Y-142986872D02*
X154502401Y-134336873D01*
%TO.N,/PET3+*%
X158197599Y-132172401D02*
X157850000Y-132520000D01*
X158036500Y-131350000D02*
X158197599Y-131511099D01*
X158197599Y-131511099D02*
X158197599Y-132172401D01*
%TO.N,/W-PET3+*%
X166847600Y-143113128D02*
X158197599Y-134463127D01*
X158197599Y-134463127D02*
X158197599Y-133827599D01*
X158197599Y-133827599D02*
X157850000Y-133480000D01*
X166500000Y-144750000D02*
X166847600Y-144402400D01*
X166500000Y-146550000D02*
X166500000Y-144750000D01*
X166847600Y-144402400D02*
X166847600Y-143113128D01*
%TO.N,/PET3-*%
X158502401Y-132172401D02*
X158850000Y-132520000D01*
X158502401Y-131511099D02*
X158502401Y-132172401D01*
X158663500Y-131350000D02*
X158502401Y-131511099D01*
%TO.N,/W-PET3-*%
X158502401Y-134336873D02*
X158502401Y-133827599D01*
X167152400Y-142986872D02*
X158502401Y-134336873D01*
X158502401Y-133827599D02*
X158850000Y-133480000D01*
X167152400Y-144402400D02*
X167152400Y-142986872D01*
X167500000Y-144750000D02*
X167152400Y-144402400D01*
X167500000Y-146550000D02*
X167500000Y-144750000D01*
D19*
%TO.N,GND*%
X165500000Y-146550000D02*
X165500000Y-144250000D01*
X170500000Y-146000000D02*
X170500000Y-144250000D01*
X160000000Y-143750000D02*
X160500000Y-144250000D01*
X168500000Y-144250000D02*
X168500000Y-146550000D01*
X156500000Y-144250000D02*
X157000000Y-143750000D01*
X141500000Y-146550000D02*
X141500000Y-143750000D01*
X152500000Y-146550000D02*
X152500000Y-144250000D01*
X168000000Y-143750000D02*
X168500000Y-144250000D01*
X157500000Y-146550000D02*
X157500000Y-144250000D01*
X155500000Y-146550000D02*
X155500000Y-144250000D01*
X144500000Y-146550000D02*
X144500000Y-143750000D01*
X165500000Y-144250000D02*
X166000000Y-143750000D01*
X170500000Y-144250000D02*
X170000000Y-143750000D01*
X164500000Y-144250000D02*
X164500000Y-146550000D01*
X155500000Y-144250000D02*
X155000000Y-143750000D01*
X152500000Y-144250000D02*
X152000000Y-143750000D01*
X161500000Y-144250000D02*
X162000000Y-143750000D01*
X164000000Y-143750000D02*
X164500000Y-144250000D01*
X160500000Y-144250000D02*
X160500000Y-146550000D01*
D20*
X171500000Y-146550000D02*
X171500000Y-143750000D01*
D19*
X156500000Y-146550000D02*
X156500000Y-144250000D01*
X161500000Y-146550000D02*
X161500000Y-144250000D01*
X157500000Y-144250000D02*
X158000000Y-143750000D01*
D21*
%TO.N,+12V*%
X137750000Y-139450000D02*
X140000000Y-141700000D01*
D19*
X139500000Y-146550000D02*
X139500000Y-144050000D01*
X139500000Y-144050000D02*
X140000000Y-143550000D01*
D21*
X132950000Y-139450000D02*
X137750000Y-139450000D01*
X140000000Y-141700000D02*
X140000000Y-143550000D01*
D19*
X138500000Y-144250000D02*
X140200000Y-142550000D01*
X138500000Y-146550000D02*
X138500000Y-144250000D01*
D21*
X131350000Y-135350000D02*
X131350000Y-137850000D01*
D19*
X140500000Y-146550000D02*
X140500000Y-141700000D01*
D21*
X131350000Y-137850000D02*
X132950000Y-139450000D01*
D20*
%TO.N,+3V3*%
X146500000Y-144400000D02*
X145850000Y-143750000D01*
X145850000Y-143750000D02*
X145500000Y-143750000D01*
X146500000Y-146550000D02*
X146500000Y-144400000D01*
D19*
X145500000Y-146550000D02*
X145500000Y-143750000D01*
D22*
%TO.N,/Wyse_SMCLK*%
X142500000Y-141650000D02*
X142500000Y-146550000D01*
X134500000Y-133650000D02*
X142500000Y-141650000D01*
%TO.N,/Wyse_SMDAT*%
X143500000Y-146550000D02*
X143500000Y-142258942D01*
X143500000Y-142258942D02*
X137000000Y-135758942D01*
X137000000Y-135758942D02*
X137000000Y-133650000D01*
D20*
%TO.N,+3V3SB*%
X142850000Y-139600000D02*
X142850000Y-132400000D01*
X147500000Y-146550000D02*
X147500000Y-144250000D01*
X147500000Y-144250000D02*
X142850000Y-139600000D01*
D22*
%TO.N,/~{Wyse_WAKE}*%
X140350000Y-131500000D02*
X143000000Y-131500000D01*
X143500000Y-139450000D02*
X148500000Y-144450000D01*
X139500000Y-132350000D02*
X140350000Y-131500000D01*
X143500000Y-132000000D02*
X143500000Y-139450000D01*
X148500000Y-144450000D02*
X148500000Y-146550000D01*
X143000000Y-131500000D02*
X143500000Y-132000000D01*
%TO.N,/SMCLK*%
X133850000Y-131000000D02*
X133850000Y-131700000D01*
X133850000Y-131700000D02*
X134500000Y-132350000D01*
%TO.N,/SMDAT*%
X136200000Y-132350000D02*
X137000000Y-132350000D01*
X134850000Y-131000000D02*
X136200000Y-132350000D01*
%TO.N,/~{WAKE}*%
X138250000Y-132950000D02*
X138950000Y-133650000D01*
X138250000Y-131650000D02*
X138250000Y-132950000D01*
X140500000Y-129400000D02*
X138250000Y-131650000D01*
X138950000Y-133650000D02*
X139500000Y-133650000D01*
%TD*%
%TA.AperFunction,Conductor*%
%TO.N,GND*%
G36*
X184892650Y-127317313D02*
G01*
X184897410Y-127321674D01*
X185178326Y-127602590D01*
X185199718Y-127648466D01*
X185200000Y-127654916D01*
X185200000Y-139845084D01*
X185182687Y-139892650D01*
X185178326Y-139897410D01*
X184897410Y-140178326D01*
X184851534Y-140199718D01*
X184845084Y-140200000D01*
X173182722Y-140200000D01*
X173169872Y-140198876D01*
X173150000Y-140195372D01*
X173143772Y-140196470D01*
X173143442Y-140196496D01*
X173142219Y-140196496D01*
X173140240Y-140196748D01*
X173044239Y-140204303D01*
X172948899Y-140211806D01*
X172948894Y-140211807D01*
X172946007Y-140212034D01*
X172747036Y-140259803D01*
X172557987Y-140338109D01*
X172555505Y-140339630D01*
X172555501Y-140339632D01*
X172399304Y-140435350D01*
X172383516Y-140445025D01*
X172227918Y-140577918D01*
X172226027Y-140580132D01*
X172101367Y-140726091D01*
X172095025Y-140733516D01*
X172093501Y-140736003D01*
X172054284Y-140800000D01*
X171988109Y-140907987D01*
X171986994Y-140910680D01*
X171986993Y-140910681D01*
X171941373Y-141020819D01*
X171909803Y-141097036D01*
X171862034Y-141296007D01*
X171861807Y-141298896D01*
X171861806Y-141298900D01*
X171850765Y-141439204D01*
X171850521Y-141440711D01*
X171850615Y-141440720D01*
X171850000Y-141446993D01*
X171850000Y-141448619D01*
X171849899Y-141450200D01*
X171846749Y-141490231D01*
X171846496Y-141492218D01*
X171846496Y-141493442D01*
X171846470Y-141493772D01*
X171845372Y-141500000D01*
X171846496Y-141506374D01*
X171848876Y-141519872D01*
X171850000Y-141532722D01*
X171850000Y-144176000D01*
X171832687Y-144223566D01*
X171788850Y-144248876D01*
X171776000Y-144250000D01*
X167442800Y-144250000D01*
X167395234Y-144232687D01*
X167369924Y-144188850D01*
X167368800Y-144176000D01*
X167368800Y-142994498D01*
X167368901Y-142990624D01*
X167370505Y-142960030D01*
X167370505Y-142960029D01*
X167370912Y-142952263D01*
X167362618Y-142930656D01*
X167359320Y-142919524D01*
X167356124Y-142904491D01*
X167354508Y-142896888D01*
X167349941Y-142890601D01*
X167349937Y-142890593D01*
X167340740Y-142873653D01*
X167340729Y-142873636D01*
X167337943Y-142866379D01*
X167321582Y-142850018D01*
X167314040Y-142841188D01*
X167305005Y-142828752D01*
X167300435Y-142822462D01*
X167293702Y-142818575D01*
X167293688Y-142818562D01*
X167278382Y-142806818D01*
X163022390Y-138550826D01*
X158740475Y-134268912D01*
X158719083Y-134223036D01*
X158718801Y-134216586D01*
X158718801Y-133961500D01*
X158736114Y-133913934D01*
X158779951Y-133888624D01*
X158792801Y-133887500D01*
X159046348Y-133887500D01*
X159049917Y-133886790D01*
X159049918Y-133886790D01*
X159117227Y-133873402D01*
X159117230Y-133873401D01*
X159124373Y-133871980D01*
X159212857Y-133812857D01*
X159271980Y-133724373D01*
X159273401Y-133717230D01*
X159273402Y-133717227D01*
X159286790Y-133649918D01*
X159286790Y-133649917D01*
X159287500Y-133646348D01*
X159287500Y-133313652D01*
X159285617Y-133304185D01*
X159273402Y-133242773D01*
X159273401Y-133242770D01*
X159271980Y-133235627D01*
X159212857Y-133147143D01*
X159124373Y-133088020D01*
X159117230Y-133086599D01*
X159117227Y-133086598D01*
X159046740Y-133072578D01*
X159003466Y-133046318D01*
X159001189Y-133039610D01*
X180918619Y-133039610D01*
X180947348Y-133206802D01*
X181013768Y-133362900D01*
X181016318Y-133366364D01*
X181016319Y-133366367D01*
X181111768Y-133496068D01*
X181111772Y-133496072D01*
X181114318Y-133499532D01*
X181117595Y-133502316D01*
X181117596Y-133502317D01*
X181232577Y-133600000D01*
X181243603Y-133609367D01*
X181247429Y-133611321D01*
X181247431Y-133611322D01*
X181294853Y-133635537D01*
X181394687Y-133686515D01*
X181559468Y-133726837D01*
X181562757Y-133727041D01*
X181569027Y-133727430D01*
X181569028Y-133727430D01*
X181570156Y-133727500D01*
X181692483Y-133727500D01*
X181694608Y-133727252D01*
X181694612Y-133727252D01*
X181814230Y-133713306D01*
X181818501Y-133712808D01*
X181822542Y-133711341D01*
X181822543Y-133711341D01*
X181973916Y-133656395D01*
X181973919Y-133656394D01*
X181977962Y-133654926D01*
X182119832Y-133561912D01*
X182236498Y-133438757D01*
X182321703Y-133292065D01*
X182338797Y-133235627D01*
X182363760Y-133153203D01*
X182370877Y-133129706D01*
X182373551Y-133086598D01*
X182381115Y-132964684D01*
X182381115Y-132964681D01*
X182381381Y-132960390D01*
X182352652Y-132793198D01*
X182286232Y-132637100D01*
X182283681Y-132633633D01*
X182188232Y-132503932D01*
X182188228Y-132503928D01*
X182185682Y-132500468D01*
X182102398Y-132429713D01*
X182059673Y-132393416D01*
X182059672Y-132393415D01*
X182056397Y-132390633D01*
X182052571Y-132388679D01*
X182052569Y-132388678D01*
X181949899Y-132336252D01*
X181905313Y-132313485D01*
X181740532Y-132273163D01*
X181733842Y-132272748D01*
X181730973Y-132272570D01*
X181730972Y-132272570D01*
X181729844Y-132272500D01*
X181607517Y-132272500D01*
X181605392Y-132272748D01*
X181605388Y-132272748D01*
X181485770Y-132286694D01*
X181481499Y-132287192D01*
X181477458Y-132288659D01*
X181477457Y-132288659D01*
X181326084Y-132343605D01*
X181326081Y-132343606D01*
X181322038Y-132345074D01*
X181180168Y-132438088D01*
X181063502Y-132561243D01*
X181061342Y-132564961D01*
X181061341Y-132564963D01*
X181021455Y-132633633D01*
X180978297Y-132707935D01*
X180977052Y-132712046D01*
X180977051Y-132712048D01*
X180959369Y-132770431D01*
X180929123Y-132870294D01*
X180928857Y-132874581D01*
X180919222Y-133029898D01*
X180918619Y-133039610D01*
X159001189Y-133039610D01*
X158987195Y-132998386D01*
X159005541Y-132951209D01*
X159046740Y-132927422D01*
X159117227Y-132913402D01*
X159117230Y-132913401D01*
X159124373Y-132911980D01*
X159212857Y-132852857D01*
X159271980Y-132764373D01*
X159273401Y-132757230D01*
X159273402Y-132757227D01*
X159286790Y-132689918D01*
X159286790Y-132689917D01*
X159287500Y-132686348D01*
X159287500Y-132353652D01*
X159282682Y-132329431D01*
X159273402Y-132282773D01*
X159273401Y-132282770D01*
X159271980Y-132275627D01*
X159212857Y-132187143D01*
X159124373Y-132128020D01*
X159117230Y-132126599D01*
X159117227Y-132126598D01*
X159049918Y-132113210D01*
X159049917Y-132113210D01*
X159046348Y-132112500D01*
X158792801Y-132112500D01*
X158745235Y-132095187D01*
X158719925Y-132051350D01*
X158718801Y-132038500D01*
X158718801Y-131786649D01*
X158736114Y-131739083D01*
X158771291Y-131719210D01*
X158770316Y-131716211D01*
X158775856Y-131714411D01*
X158781608Y-131713500D01*
X158888155Y-131659211D01*
X158972711Y-131574655D01*
X158980383Y-131559599D01*
X159004848Y-131511583D01*
X159027000Y-131468108D01*
X159045706Y-131350000D01*
X159027000Y-131231892D01*
X158972711Y-131125345D01*
X158888155Y-131040789D01*
X158781608Y-130986500D01*
X158663500Y-130967794D01*
X158545392Y-130986500D01*
X158438845Y-131040789D01*
X158402326Y-131077308D01*
X158356450Y-131098700D01*
X158307555Y-131085599D01*
X158297674Y-131077308D01*
X158261155Y-131040789D01*
X158154608Y-130986500D01*
X158036500Y-130967794D01*
X157918392Y-130986500D01*
X157811845Y-131040789D01*
X157727289Y-131125345D01*
X157673000Y-131231892D01*
X157654294Y-131350000D01*
X157673000Y-131468108D01*
X157695152Y-131511583D01*
X157719618Y-131559599D01*
X157727289Y-131574655D01*
X157811845Y-131659211D01*
X157918392Y-131713500D01*
X157924144Y-131714411D01*
X157929684Y-131716211D01*
X157928743Y-131719106D01*
X157962985Y-131738029D01*
X157981199Y-131786649D01*
X157981199Y-132038500D01*
X157963886Y-132086066D01*
X157920049Y-132111376D01*
X157907199Y-132112500D01*
X157653652Y-132112500D01*
X157650083Y-132113210D01*
X157650082Y-132113210D01*
X157582773Y-132126598D01*
X157582770Y-132126599D01*
X157575627Y-132128020D01*
X157487143Y-132187143D01*
X157428020Y-132275627D01*
X157426599Y-132282770D01*
X157426598Y-132282773D01*
X157417318Y-132329431D01*
X157412500Y-132353652D01*
X157412500Y-132686348D01*
X157413210Y-132689917D01*
X157413210Y-132689918D01*
X157426598Y-132757227D01*
X157426599Y-132757230D01*
X157428020Y-132764373D01*
X157487143Y-132852857D01*
X157575627Y-132911980D01*
X157582770Y-132913401D01*
X157582773Y-132913402D01*
X157653260Y-132927422D01*
X157696534Y-132953682D01*
X157712805Y-133001614D01*
X157694459Y-133048791D01*
X157653260Y-133072578D01*
X157582773Y-133086598D01*
X157582770Y-133086599D01*
X157575627Y-133088020D01*
X157487143Y-133147143D01*
X157428020Y-133235627D01*
X157426599Y-133242770D01*
X157426598Y-133242773D01*
X157414383Y-133304185D01*
X157412500Y-133313652D01*
X157412500Y-133646348D01*
X157413210Y-133649917D01*
X157413210Y-133649918D01*
X157426598Y-133717227D01*
X157426599Y-133717230D01*
X157428020Y-133724373D01*
X157487143Y-133812857D01*
X157575627Y-133871980D01*
X157582770Y-133873401D01*
X157582773Y-133873402D01*
X157650082Y-133886790D01*
X157650083Y-133886790D01*
X157653652Y-133887500D01*
X157907199Y-133887500D01*
X157954765Y-133904813D01*
X157980075Y-133948650D01*
X157981199Y-133961500D01*
X157981199Y-134455501D01*
X157981098Y-134459374D01*
X157979087Y-134497736D01*
X157981875Y-134504998D01*
X157987381Y-134519343D01*
X157990679Y-134530475D01*
X157995491Y-134553111D01*
X158000058Y-134559398D01*
X158000062Y-134559406D01*
X158009259Y-134576346D01*
X158009270Y-134576363D01*
X158012056Y-134583620D01*
X158028417Y-134599981D01*
X158035959Y-134608811D01*
X158049564Y-134627537D01*
X158056297Y-134631424D01*
X158056311Y-134631437D01*
X158071617Y-134643181D01*
X166609526Y-143181090D01*
X166630918Y-143226966D01*
X166631200Y-143233416D01*
X166631200Y-144176000D01*
X166613887Y-144223566D01*
X166570050Y-144248876D01*
X166557200Y-144250000D01*
X163442800Y-144250000D01*
X163395234Y-144232687D01*
X163369924Y-144188850D01*
X163368800Y-144176000D01*
X163368800Y-142994498D01*
X163368901Y-142990624D01*
X163370505Y-142960030D01*
X163370505Y-142960029D01*
X163370912Y-142952263D01*
X163362618Y-142930656D01*
X163359320Y-142919524D01*
X163356124Y-142904491D01*
X163354508Y-142896888D01*
X163349941Y-142890601D01*
X163349937Y-142890593D01*
X163340740Y-142873653D01*
X163340729Y-142873636D01*
X163337943Y-142866379D01*
X163321582Y-142850018D01*
X163314040Y-142841188D01*
X163305005Y-142828752D01*
X163300435Y-142822462D01*
X163293702Y-142818575D01*
X163293688Y-142818562D01*
X163278382Y-142806818D01*
X159022390Y-138550826D01*
X154740475Y-134268912D01*
X154719083Y-134223036D01*
X154718801Y-134216586D01*
X154718801Y-133961500D01*
X154736114Y-133913934D01*
X154779951Y-133888624D01*
X154792801Y-133887500D01*
X155046348Y-133887500D01*
X155049917Y-133886790D01*
X155049918Y-133886790D01*
X155117227Y-133873402D01*
X155117230Y-133873401D01*
X155124373Y-133871980D01*
X155212857Y-133812857D01*
X155271980Y-133724373D01*
X155273401Y-133717230D01*
X155273402Y-133717227D01*
X155286790Y-133649918D01*
X155286790Y-133649917D01*
X155287500Y-133646348D01*
X155287500Y-133313652D01*
X155285617Y-133304185D01*
X155273402Y-133242773D01*
X155273401Y-133242770D01*
X155271980Y-133235627D01*
X155212857Y-133147143D01*
X155124373Y-133088020D01*
X155117230Y-133086599D01*
X155117227Y-133086598D01*
X155046740Y-133072578D01*
X155003466Y-133046318D01*
X154987195Y-132998386D01*
X155005541Y-132951209D01*
X155046740Y-132927422D01*
X155117227Y-132913402D01*
X155117230Y-132913401D01*
X155124373Y-132911980D01*
X155212857Y-132852857D01*
X155271980Y-132764373D01*
X155273401Y-132757230D01*
X155273402Y-132757227D01*
X155286790Y-132689918D01*
X155286790Y-132689917D01*
X155287500Y-132686348D01*
X155287500Y-132353652D01*
X155282682Y-132329431D01*
X155273402Y-132282773D01*
X155273401Y-132282770D01*
X155271980Y-132275627D01*
X155212857Y-132187143D01*
X155124373Y-132128020D01*
X155117230Y-132126599D01*
X155117227Y-132126598D01*
X155049918Y-132113210D01*
X155049917Y-132113210D01*
X155046348Y-132112500D01*
X154792801Y-132112500D01*
X154745235Y-132095187D01*
X154719925Y-132051350D01*
X154718801Y-132038500D01*
X154718801Y-131786649D01*
X154736114Y-131739083D01*
X154771291Y-131719210D01*
X154770316Y-131716211D01*
X154775856Y-131714411D01*
X154781608Y-131713500D01*
X154888155Y-131659211D01*
X154972711Y-131574655D01*
X154980383Y-131559599D01*
X155004848Y-131511583D01*
X155027000Y-131468108D01*
X155045706Y-131350000D01*
X155027000Y-131231892D01*
X154972711Y-131125345D01*
X154888155Y-131040789D01*
X154781608Y-130986500D01*
X154663500Y-130967794D01*
X154545392Y-130986500D01*
X154438845Y-131040789D01*
X154402326Y-131077308D01*
X154356450Y-131098700D01*
X154307555Y-131085599D01*
X154297674Y-131077308D01*
X154261155Y-131040789D01*
X154154608Y-130986500D01*
X154036500Y-130967794D01*
X153918392Y-130986500D01*
X153811845Y-131040789D01*
X153727289Y-131125345D01*
X153673000Y-131231892D01*
X153654294Y-131350000D01*
X153673000Y-131468108D01*
X153695152Y-131511583D01*
X153719618Y-131559599D01*
X153727289Y-131574655D01*
X153811845Y-131659211D01*
X153918392Y-131713500D01*
X153924144Y-131714411D01*
X153929684Y-131716211D01*
X153928743Y-131719106D01*
X153962985Y-131738029D01*
X153981199Y-131786649D01*
X153981199Y-132038500D01*
X153963886Y-132086066D01*
X153920049Y-132111376D01*
X153907199Y-132112500D01*
X153653652Y-132112500D01*
X153650083Y-132113210D01*
X153650082Y-132113210D01*
X153582773Y-132126598D01*
X153582770Y-132126599D01*
X153575627Y-132128020D01*
X153487143Y-132187143D01*
X153428020Y-132275627D01*
X153426599Y-132282770D01*
X153426598Y-132282773D01*
X153417318Y-132329431D01*
X153412500Y-132353652D01*
X153412500Y-132686348D01*
X153413210Y-132689917D01*
X153413210Y-132689918D01*
X153426598Y-132757227D01*
X153426599Y-132757230D01*
X153428020Y-132764373D01*
X153487143Y-132852857D01*
X153575627Y-132911980D01*
X153582770Y-132913401D01*
X153582773Y-132913402D01*
X153653260Y-132927422D01*
X153696534Y-132953682D01*
X153712805Y-133001614D01*
X153694459Y-133048791D01*
X153653260Y-133072578D01*
X153582773Y-133086598D01*
X153582770Y-133086599D01*
X153575627Y-133088020D01*
X153487143Y-133147143D01*
X153428020Y-133235627D01*
X153426599Y-133242770D01*
X153426598Y-133242773D01*
X153414383Y-133304185D01*
X153412500Y-133313652D01*
X153412500Y-133646348D01*
X153413210Y-133649917D01*
X153413210Y-133649918D01*
X153426598Y-133717227D01*
X153426599Y-133717230D01*
X153428020Y-133724373D01*
X153487143Y-133812857D01*
X153575627Y-133871980D01*
X153582770Y-133873401D01*
X153582773Y-133873402D01*
X153650082Y-133886790D01*
X153650083Y-133886790D01*
X153653652Y-133887500D01*
X153907199Y-133887500D01*
X153954765Y-133904813D01*
X153980075Y-133948650D01*
X153981199Y-133961500D01*
X153981199Y-134455501D01*
X153981098Y-134459374D01*
X153979087Y-134497736D01*
X153981875Y-134504998D01*
X153987381Y-134519343D01*
X153990679Y-134530475D01*
X153995491Y-134553111D01*
X154000058Y-134559398D01*
X154000062Y-134559406D01*
X154009259Y-134576346D01*
X154009270Y-134576363D01*
X154012056Y-134583620D01*
X154028417Y-134599981D01*
X154035959Y-134608811D01*
X154049564Y-134627537D01*
X154056297Y-134631424D01*
X154056311Y-134631437D01*
X154071617Y-134643181D01*
X162609526Y-143181090D01*
X162630918Y-143226966D01*
X162631200Y-143233416D01*
X162631200Y-144176000D01*
X162613887Y-144223566D01*
X162570050Y-144248876D01*
X162557200Y-144250000D01*
X159442800Y-144250000D01*
X159395234Y-144232687D01*
X159369924Y-144188850D01*
X159368800Y-144176000D01*
X159368800Y-142994498D01*
X159368901Y-142990624D01*
X159370505Y-142960030D01*
X159370505Y-142960029D01*
X159370912Y-142952263D01*
X159362618Y-142930656D01*
X159359320Y-142919524D01*
X159356124Y-142904491D01*
X159354508Y-142896888D01*
X159349941Y-142890601D01*
X159349937Y-142890593D01*
X159340740Y-142873653D01*
X159340729Y-142873636D01*
X159337943Y-142866379D01*
X159321582Y-142850018D01*
X159314040Y-142841188D01*
X159305005Y-142828752D01*
X159300435Y-142822462D01*
X159293702Y-142818575D01*
X159293688Y-142818562D01*
X159278382Y-142806818D01*
X155022390Y-138550826D01*
X150740475Y-134268912D01*
X150719083Y-134223036D01*
X150718801Y-134216586D01*
X150718801Y-133961500D01*
X150736114Y-133913934D01*
X150779951Y-133888624D01*
X150792801Y-133887500D01*
X151046348Y-133887500D01*
X151049917Y-133886790D01*
X151049918Y-133886790D01*
X151117227Y-133873402D01*
X151117230Y-133873401D01*
X151124373Y-133871980D01*
X151212857Y-133812857D01*
X151271980Y-133724373D01*
X151273401Y-133717230D01*
X151273402Y-133717227D01*
X151286790Y-133649918D01*
X151286790Y-133649917D01*
X151287500Y-133646348D01*
X151287500Y-133313652D01*
X151285617Y-133304185D01*
X151273402Y-133242773D01*
X151273401Y-133242770D01*
X151271980Y-133235627D01*
X151212857Y-133147143D01*
X151124373Y-133088020D01*
X151117230Y-133086599D01*
X151117227Y-133086598D01*
X151046740Y-133072578D01*
X151003466Y-133046318D01*
X150987195Y-132998386D01*
X151005541Y-132951209D01*
X151046740Y-132927422D01*
X151117227Y-132913402D01*
X151117230Y-132913401D01*
X151124373Y-132911980D01*
X151212857Y-132852857D01*
X151271980Y-132764373D01*
X151273401Y-132757230D01*
X151273402Y-132757227D01*
X151286790Y-132689918D01*
X151286790Y-132689917D01*
X151287500Y-132686348D01*
X151287500Y-132353652D01*
X151282682Y-132329431D01*
X151273402Y-132282773D01*
X151273401Y-132282770D01*
X151271980Y-132275627D01*
X151212857Y-132187143D01*
X151124373Y-132128020D01*
X151117230Y-132126599D01*
X151117227Y-132126598D01*
X151049918Y-132113210D01*
X151049917Y-132113210D01*
X151046348Y-132112500D01*
X150792801Y-132112500D01*
X150745235Y-132095187D01*
X150719925Y-132051350D01*
X150718801Y-132038500D01*
X150718801Y-131786649D01*
X150736114Y-131739083D01*
X150771291Y-131719210D01*
X150770316Y-131716211D01*
X150775856Y-131714411D01*
X150781608Y-131713500D01*
X150888155Y-131659211D01*
X150972711Y-131574655D01*
X150980383Y-131559599D01*
X151004848Y-131511583D01*
X151027000Y-131468108D01*
X151045706Y-131350000D01*
X151027000Y-131231892D01*
X150972711Y-131125345D01*
X150888155Y-131040789D01*
X150781608Y-130986500D01*
X150663500Y-130967794D01*
X150545392Y-130986500D01*
X150438845Y-131040789D01*
X150402326Y-131077308D01*
X150356450Y-131098700D01*
X150307555Y-131085599D01*
X150297674Y-131077308D01*
X150261155Y-131040789D01*
X150154608Y-130986500D01*
X150036500Y-130967794D01*
X149918392Y-130986500D01*
X149811845Y-131040789D01*
X149727289Y-131125345D01*
X149673000Y-131231892D01*
X149654294Y-131350000D01*
X149673000Y-131468108D01*
X149695152Y-131511583D01*
X149719618Y-131559599D01*
X149727289Y-131574655D01*
X149811845Y-131659211D01*
X149918392Y-131713500D01*
X149924144Y-131714411D01*
X149929684Y-131716211D01*
X149928743Y-131719106D01*
X149962985Y-131738029D01*
X149981199Y-131786649D01*
X149981199Y-132038500D01*
X149963886Y-132086066D01*
X149920049Y-132111376D01*
X149907199Y-132112500D01*
X149653652Y-132112500D01*
X149650083Y-132113210D01*
X149650082Y-132113210D01*
X149582773Y-132126598D01*
X149582770Y-132126599D01*
X149575627Y-132128020D01*
X149487143Y-132187143D01*
X149428020Y-132275627D01*
X149426599Y-132282770D01*
X149426598Y-132282773D01*
X149417318Y-132329431D01*
X149412500Y-132353652D01*
X149412500Y-132686348D01*
X149413210Y-132689917D01*
X149413210Y-132689918D01*
X149426598Y-132757227D01*
X149426599Y-132757230D01*
X149428020Y-132764373D01*
X149487143Y-132852857D01*
X149575627Y-132911980D01*
X149582770Y-132913401D01*
X149582773Y-132913402D01*
X149653260Y-132927422D01*
X149696534Y-132953682D01*
X149712805Y-133001614D01*
X149694459Y-133048791D01*
X149653260Y-133072578D01*
X149582773Y-133086598D01*
X149582770Y-133086599D01*
X149575627Y-133088020D01*
X149487143Y-133147143D01*
X149428020Y-133235627D01*
X149426599Y-133242770D01*
X149426598Y-133242773D01*
X149414383Y-133304185D01*
X149412500Y-133313652D01*
X149412500Y-133646348D01*
X149413210Y-133649917D01*
X149413210Y-133649918D01*
X149426598Y-133717227D01*
X149426599Y-133717230D01*
X149428020Y-133724373D01*
X149487143Y-133812857D01*
X149575627Y-133871980D01*
X149582770Y-133873401D01*
X149582773Y-133873402D01*
X149650082Y-133886790D01*
X149650083Y-133886790D01*
X149653652Y-133887500D01*
X149907199Y-133887500D01*
X149954765Y-133904813D01*
X149980075Y-133948650D01*
X149981199Y-133961500D01*
X149981199Y-134455501D01*
X149981098Y-134459374D01*
X149979087Y-134497736D01*
X149981875Y-134504998D01*
X149987381Y-134519343D01*
X149990679Y-134530475D01*
X149995491Y-134553111D01*
X150000058Y-134559398D01*
X150000062Y-134559406D01*
X150009259Y-134576346D01*
X150009270Y-134576363D01*
X150012056Y-134583620D01*
X150028417Y-134599981D01*
X150035959Y-134608811D01*
X150049564Y-134627537D01*
X150056297Y-134631424D01*
X150056311Y-134631437D01*
X150071617Y-134643181D01*
X158609526Y-143181090D01*
X158630918Y-143226966D01*
X158631200Y-143233416D01*
X158631200Y-144176000D01*
X158613887Y-144223566D01*
X158570050Y-144248876D01*
X158557200Y-144250000D01*
X154442800Y-144250000D01*
X154395234Y-144232687D01*
X154369924Y-144188850D01*
X154368800Y-144176000D01*
X154368800Y-142994498D01*
X154368901Y-142990624D01*
X154370505Y-142960030D01*
X154370505Y-142960029D01*
X154370912Y-142952263D01*
X154362618Y-142930656D01*
X154359320Y-142919524D01*
X154356124Y-142904491D01*
X154354508Y-142896888D01*
X154349941Y-142890601D01*
X154349937Y-142890593D01*
X154340740Y-142873653D01*
X154340729Y-142873636D01*
X154337943Y-142866379D01*
X154321582Y-142850018D01*
X154314040Y-142841188D01*
X154305005Y-142828752D01*
X154300435Y-142822462D01*
X154293702Y-142818575D01*
X154293688Y-142818562D01*
X154278382Y-142806818D01*
X150022390Y-138550826D01*
X145740475Y-134268912D01*
X145719083Y-134223036D01*
X145718801Y-134216586D01*
X145718801Y-133961500D01*
X145736114Y-133913934D01*
X145779951Y-133888624D01*
X145792801Y-133887500D01*
X146046348Y-133887500D01*
X146049917Y-133886790D01*
X146049918Y-133886790D01*
X146117227Y-133873402D01*
X146117230Y-133873401D01*
X146124373Y-133871980D01*
X146212857Y-133812857D01*
X146271980Y-133724373D01*
X146273401Y-133717230D01*
X146273402Y-133717227D01*
X146286790Y-133649918D01*
X146286790Y-133649917D01*
X146287500Y-133646348D01*
X146287500Y-133313652D01*
X146285617Y-133304185D01*
X146273402Y-133242773D01*
X146273401Y-133242770D01*
X146271980Y-133235627D01*
X146212857Y-133147143D01*
X146124373Y-133088020D01*
X146117230Y-133086599D01*
X146117227Y-133086598D01*
X146046740Y-133072578D01*
X146003466Y-133046318D01*
X145987195Y-132998386D01*
X146005541Y-132951209D01*
X146046740Y-132927422D01*
X146117227Y-132913402D01*
X146117230Y-132913401D01*
X146124373Y-132911980D01*
X146212857Y-132852857D01*
X146271980Y-132764373D01*
X146273401Y-132757230D01*
X146273402Y-132757227D01*
X146286790Y-132689918D01*
X146286790Y-132689917D01*
X146287500Y-132686348D01*
X146287500Y-132353652D01*
X146282682Y-132329431D01*
X146273402Y-132282773D01*
X146273401Y-132282770D01*
X146271980Y-132275627D01*
X146212857Y-132187143D01*
X146124373Y-132128020D01*
X146117230Y-132126599D01*
X146117227Y-132126598D01*
X146049918Y-132113210D01*
X146049917Y-132113210D01*
X146046348Y-132112500D01*
X145792801Y-132112500D01*
X145745235Y-132095187D01*
X145719925Y-132051350D01*
X145718801Y-132038500D01*
X145718801Y-131786649D01*
X145736114Y-131739083D01*
X145771291Y-131719210D01*
X145770316Y-131716211D01*
X145775856Y-131714411D01*
X145781608Y-131713500D01*
X145888155Y-131659211D01*
X145972711Y-131574655D01*
X145980383Y-131559599D01*
X146004848Y-131511583D01*
X146027000Y-131468108D01*
X146045706Y-131350000D01*
X146027000Y-131231892D01*
X145972711Y-131125345D01*
X145888155Y-131040789D01*
X145781608Y-130986500D01*
X145663500Y-130967794D01*
X145545392Y-130986500D01*
X145438845Y-131040789D01*
X145402326Y-131077308D01*
X145356450Y-131098700D01*
X145307555Y-131085599D01*
X145297674Y-131077308D01*
X145261155Y-131040789D01*
X145154608Y-130986500D01*
X145036500Y-130967794D01*
X144918392Y-130986500D01*
X144811845Y-131040789D01*
X144727289Y-131125345D01*
X144673000Y-131231892D01*
X144654294Y-131350000D01*
X144673000Y-131468108D01*
X144695152Y-131511583D01*
X144719618Y-131559599D01*
X144727289Y-131574655D01*
X144811845Y-131659211D01*
X144918392Y-131713500D01*
X144924144Y-131714411D01*
X144929684Y-131716211D01*
X144928743Y-131719106D01*
X144962985Y-131738029D01*
X144981199Y-131786649D01*
X144981199Y-132038500D01*
X144963886Y-132086066D01*
X144920049Y-132111376D01*
X144907199Y-132112500D01*
X144653652Y-132112500D01*
X144650083Y-132113210D01*
X144650082Y-132113210D01*
X144582773Y-132126598D01*
X144582770Y-132126599D01*
X144575627Y-132128020D01*
X144487143Y-132187143D01*
X144428020Y-132275627D01*
X144426599Y-132282770D01*
X144426598Y-132282773D01*
X144417318Y-132329431D01*
X144412500Y-132353652D01*
X144412500Y-132686348D01*
X144413210Y-132689917D01*
X144413210Y-132689918D01*
X144426598Y-132757227D01*
X144426599Y-132757230D01*
X144428020Y-132764373D01*
X144487143Y-132852857D01*
X144575627Y-132911980D01*
X144582770Y-132913401D01*
X144582773Y-132913402D01*
X144653260Y-132927422D01*
X144696534Y-132953682D01*
X144712805Y-133001614D01*
X144694459Y-133048791D01*
X144653260Y-133072578D01*
X144582773Y-133086598D01*
X144582770Y-133086599D01*
X144575627Y-133088020D01*
X144487143Y-133147143D01*
X144428020Y-133235627D01*
X144426599Y-133242770D01*
X144426598Y-133242773D01*
X144414383Y-133304185D01*
X144412500Y-133313652D01*
X144412500Y-133646348D01*
X144413210Y-133649917D01*
X144413210Y-133649918D01*
X144426598Y-133717227D01*
X144426599Y-133717230D01*
X144428020Y-133724373D01*
X144487143Y-133812857D01*
X144575627Y-133871980D01*
X144582770Y-133873401D01*
X144582773Y-133873402D01*
X144650082Y-133886790D01*
X144650083Y-133886790D01*
X144653652Y-133887500D01*
X144907199Y-133887500D01*
X144954765Y-133904813D01*
X144980075Y-133948650D01*
X144981199Y-133961500D01*
X144981199Y-134455501D01*
X144981098Y-134459374D01*
X144979087Y-134497736D01*
X144981875Y-134504998D01*
X144987381Y-134519343D01*
X144990679Y-134530475D01*
X144995491Y-134553111D01*
X145000058Y-134559398D01*
X145000062Y-134559406D01*
X145009259Y-134576346D01*
X145009270Y-134576363D01*
X145012056Y-134583620D01*
X145028417Y-134599981D01*
X145035959Y-134608811D01*
X145049564Y-134627537D01*
X145056297Y-134631424D01*
X145056311Y-134631437D01*
X145071617Y-134643181D01*
X153609526Y-143181090D01*
X153630918Y-143226966D01*
X153631200Y-143233416D01*
X153631200Y-144176000D01*
X153613887Y-144223566D01*
X153570050Y-144248876D01*
X153557200Y-144250000D01*
X151324000Y-144250000D01*
X151276434Y-144232687D01*
X151251124Y-144188850D01*
X151250000Y-144176000D01*
X151250000Y-142582722D01*
X151251124Y-142569872D01*
X151253504Y-142556374D01*
X151254628Y-142550000D01*
X151253979Y-142546319D01*
X151237177Y-142343552D01*
X151236429Y-142340599D01*
X151236428Y-142340592D01*
X151187074Y-142145700D01*
X151187073Y-142145698D01*
X151186323Y-142142735D01*
X151183182Y-142135573D01*
X151104341Y-141955833D01*
X151104340Y-141955831D01*
X151103110Y-141953027D01*
X150989806Y-141779603D01*
X150987737Y-141777355D01*
X150851573Y-141629441D01*
X150851569Y-141629438D01*
X150849503Y-141627193D01*
X150686028Y-141499955D01*
X150683338Y-141498499D01*
X150683333Y-141498496D01*
X150506535Y-141402818D01*
X150506531Y-141402816D01*
X150503840Y-141401360D01*
X150393371Y-141363436D01*
X150310811Y-141335093D01*
X150310808Y-141335092D01*
X150307909Y-141334097D01*
X150103578Y-141300000D01*
X149896422Y-141300000D01*
X149692091Y-141334097D01*
X149689192Y-141335092D01*
X149689189Y-141335093D01*
X149606629Y-141363436D01*
X149496160Y-141401360D01*
X149493469Y-141402816D01*
X149493465Y-141402818D01*
X149316667Y-141498496D01*
X149316662Y-141498499D01*
X149313972Y-141499955D01*
X149150497Y-141627193D01*
X149148431Y-141629438D01*
X149148427Y-141629441D01*
X149012263Y-141777355D01*
X149010194Y-141779603D01*
X148896890Y-141953027D01*
X148895660Y-141955831D01*
X148895659Y-141955833D01*
X148816819Y-142135573D01*
X148813677Y-142142735D01*
X148812927Y-142145698D01*
X148812926Y-142145700D01*
X148763572Y-142340592D01*
X148763571Y-142340599D01*
X148762823Y-142343552D01*
X148753940Y-142450751D01*
X148750723Y-142489578D01*
X148750540Y-142490713D01*
X148750615Y-142490720D01*
X148750000Y-142496993D01*
X148750000Y-142498166D01*
X148749957Y-142498823D01*
X148746021Y-142546319D01*
X148745372Y-142550000D01*
X148746496Y-142556374D01*
X148748876Y-142569872D01*
X148750000Y-142582722D01*
X148750000Y-144176000D01*
X148732687Y-144223566D01*
X148688850Y-144248876D01*
X148676000Y-144250000D01*
X148617030Y-144250000D01*
X148569464Y-144232687D01*
X148564704Y-144228326D01*
X143724174Y-139387796D01*
X143702782Y-139341920D01*
X143702500Y-139335470D01*
X143702500Y-132045337D01*
X143702976Y-132036960D01*
X143703612Y-132031376D01*
X143706373Y-132023514D01*
X143702954Y-131992792D01*
X143702500Y-131984607D01*
X143702500Y-131977169D01*
X143700926Y-131970268D01*
X143699527Y-131961999D01*
X143697076Y-131939974D01*
X143697076Y-131939973D01*
X143696154Y-131931692D01*
X143691731Y-131924627D01*
X143690558Y-131921259D01*
X143689014Y-131918051D01*
X143687161Y-131909926D01*
X143681968Y-131903409D01*
X143681967Y-131903407D01*
X143668159Y-131886079D01*
X143663316Y-131879240D01*
X143659461Y-131873082D01*
X143654239Y-131867860D01*
X143648692Y-131861650D01*
X143634779Y-131844190D01*
X143629585Y-131837672D01*
X143622078Y-131834051D01*
X143617139Y-131830108D01*
X143610981Y-131824602D01*
X143175241Y-131388863D01*
X143169654Y-131382603D01*
X143166162Y-131378212D01*
X143162554Y-131370699D01*
X143138409Y-131351390D01*
X143132309Y-131345931D01*
X143127045Y-131340667D01*
X143123534Y-131338460D01*
X143123531Y-131338458D01*
X143121052Y-131336900D01*
X143114210Y-131332038D01*
X143096910Y-131318202D01*
X143096909Y-131318201D01*
X143090401Y-131312997D01*
X143082278Y-131311129D01*
X143079067Y-131309577D01*
X143075708Y-131308401D01*
X143068651Y-131303965D01*
X143047240Y-131301544D01*
X143038352Y-131300539D01*
X143030088Y-131299127D01*
X143027092Y-131298438D01*
X143027089Y-131298438D01*
X143023011Y-131297500D01*
X143015640Y-131297500D01*
X143007327Y-131297032D01*
X143007257Y-131297024D01*
X142976847Y-131293586D01*
X142968981Y-131296333D01*
X142962687Y-131297039D01*
X142954438Y-131297500D01*
X140395338Y-131297500D01*
X140386961Y-131297024D01*
X140381375Y-131296387D01*
X140373514Y-131293627D01*
X140365236Y-131294548D01*
X140365234Y-131294548D01*
X140344041Y-131296907D01*
X140342790Y-131297046D01*
X140334606Y-131297500D01*
X140327169Y-131297500D01*
X140320269Y-131299074D01*
X140312000Y-131300473D01*
X140281692Y-131303845D01*
X140274631Y-131308265D01*
X140271272Y-131309435D01*
X140268051Y-131310985D01*
X140259926Y-131312839D01*
X140241694Y-131327367D01*
X140236083Y-131331838D01*
X140229240Y-131336683D01*
X140226637Y-131338313D01*
X140223082Y-131340539D01*
X140217860Y-131345761D01*
X140211651Y-131351307D01*
X140187672Y-131370415D01*
X140184051Y-131377922D01*
X140180108Y-131382861D01*
X140174602Y-131389019D01*
X139864184Y-131699437D01*
X139818308Y-131720829D01*
X139800473Y-131720230D01*
X139778768Y-131716850D01*
X139778761Y-131716849D01*
X139776170Y-131716446D01*
X139761594Y-131716268D01*
X139741959Y-131716027D01*
X139741954Y-131716027D01*
X139739316Y-131715995D01*
X139715410Y-131719121D01*
X139713452Y-131719377D01*
X139703857Y-131720002D01*
X139304736Y-131720002D01*
X139293352Y-131719121D01*
X139285520Y-131717902D01*
X139276170Y-131716446D01*
X139261594Y-131716268D01*
X139241959Y-131716027D01*
X139241954Y-131716027D01*
X139239316Y-131715995D01*
X139097302Y-131734565D01*
X139094765Y-131735273D01*
X139094762Y-131735274D01*
X139064338Y-131743769D01*
X139064334Y-131743771D01*
X139061800Y-131744478D01*
X139059392Y-131745538D01*
X139059388Y-131745539D01*
X138933113Y-131801102D01*
X138933109Y-131801104D01*
X138930707Y-131802161D01*
X138928477Y-131803549D01*
X138928475Y-131803550D01*
X138924375Y-131806102D01*
X138899416Y-131821637D01*
X138897398Y-131823333D01*
X138897397Y-131823334D01*
X138791850Y-131912055D01*
X138789781Y-131913794D01*
X138765214Y-131941272D01*
X138763758Y-131943460D01*
X138763756Y-131943462D01*
X138744017Y-131973115D01*
X138685851Y-132060497D01*
X138669983Y-132093765D01*
X138669199Y-132096275D01*
X138669198Y-132096277D01*
X138629396Y-132223677D01*
X138627273Y-132230471D01*
X138621380Y-132266854D01*
X138620108Y-132336252D01*
X138619379Y-132376039D01*
X138618755Y-132410053D01*
X138619080Y-132412662D01*
X138619080Y-132412663D01*
X138619435Y-132415513D01*
X138620002Y-132424658D01*
X138620002Y-132850000D01*
X138619744Y-132850000D01*
X138607620Y-132897298D01*
X138566474Y-132926781D01*
X138516002Y-132922918D01*
X138494219Y-132907841D01*
X138474174Y-132887796D01*
X138452782Y-132841920D01*
X138452500Y-132835470D01*
X138452500Y-131764530D01*
X138469813Y-131716964D01*
X138474174Y-131712204D01*
X140390613Y-129795765D01*
X140436489Y-129774373D01*
X140454514Y-129775002D01*
X140500000Y-129782206D01*
X140618108Y-129763500D01*
X140724655Y-129709211D01*
X140809211Y-129624655D01*
X140863500Y-129518108D01*
X140882206Y-129400000D01*
X140863500Y-129281892D01*
X140809211Y-129175345D01*
X140724655Y-129090789D01*
X140618108Y-129036500D01*
X140500000Y-129017794D01*
X140381892Y-129036500D01*
X140275345Y-129090789D01*
X140190789Y-129175345D01*
X140136500Y-129281892D01*
X140117794Y-129400000D01*
X140118705Y-129405752D01*
X140124998Y-129445484D01*
X140115339Y-129495173D01*
X140104235Y-129509386D01*
X138138863Y-131474759D01*
X138132603Y-131480346D01*
X138128212Y-131483838D01*
X138120699Y-131487446D01*
X138101390Y-131511591D01*
X138095931Y-131517691D01*
X138090667Y-131522955D01*
X138088460Y-131526466D01*
X138088458Y-131526469D01*
X138086900Y-131528948D01*
X138082039Y-131535789D01*
X138062997Y-131559599D01*
X138061129Y-131567722D01*
X138059577Y-131570933D01*
X138058401Y-131574292D01*
X138053965Y-131581349D01*
X138053029Y-131589631D01*
X138050539Y-131611648D01*
X138049127Y-131619912D01*
X138047500Y-131626989D01*
X138047500Y-131634360D01*
X138047032Y-131642672D01*
X138043586Y-131673153D01*
X138046333Y-131681019D01*
X138047039Y-131687313D01*
X138047500Y-131695562D01*
X138047500Y-132904664D01*
X138047024Y-132913041D01*
X138046388Y-132918625D01*
X138043627Y-132926487D01*
X138045345Y-132941922D01*
X138047046Y-132957208D01*
X138047500Y-132965393D01*
X138047500Y-132972831D01*
X138048425Y-132976885D01*
X138049074Y-132979732D01*
X138050473Y-132988001D01*
X138053846Y-133018308D01*
X138058267Y-133025370D01*
X138059439Y-133028734D01*
X138060986Y-133031948D01*
X138062839Y-133040074D01*
X138068031Y-133046589D01*
X138068033Y-133046594D01*
X138081843Y-133063924D01*
X138086691Y-133070771D01*
X138087774Y-133072500D01*
X138090540Y-133076918D01*
X138095757Y-133082135D01*
X138101303Y-133088344D01*
X138120415Y-133112328D01*
X138127923Y-133115949D01*
X138132862Y-133119892D01*
X138139021Y-133125399D01*
X138598328Y-133584707D01*
X138619720Y-133630584D01*
X138620002Y-133637033D01*
X138620002Y-133641326D01*
X138619990Y-133642681D01*
X138618755Y-133710053D01*
X138623311Y-133746630D01*
X138660984Y-133884810D01*
X138662027Y-133887220D01*
X138662028Y-133887223D01*
X138664090Y-133891988D01*
X138675622Y-133918636D01*
X138750562Y-134040688D01*
X138752233Y-134042701D01*
X138752236Y-134042705D01*
X138763720Y-134056538D01*
X138774105Y-134069047D01*
X138880289Y-134165161D01*
X138882481Y-134166640D01*
X138882483Y-134166641D01*
X138908665Y-134184301D01*
X138908672Y-134184305D01*
X138910847Y-134185772D01*
X138913202Y-134186913D01*
X138913209Y-134186917D01*
X139013829Y-134235666D01*
X139039739Y-134248219D01*
X139074852Y-134259425D01*
X139110575Y-134265435D01*
X139214680Y-134282950D01*
X139214686Y-134282951D01*
X139216090Y-134283187D01*
X139236068Y-134284979D01*
X139237510Y-134284997D01*
X139237517Y-134284997D01*
X139246987Y-134285113D01*
X139246998Y-134285113D01*
X139248410Y-134285130D01*
X139268429Y-134283827D01*
X139289950Y-134280745D01*
X139300440Y-134279998D01*
X139690956Y-134279998D01*
X139703222Y-134281022D01*
X139716090Y-134283187D01*
X139736068Y-134284979D01*
X139737510Y-134284997D01*
X139737517Y-134284997D01*
X139746987Y-134285113D01*
X139746998Y-134285113D01*
X139748410Y-134285130D01*
X139756235Y-134284621D01*
X139767018Y-134283919D01*
X139767022Y-134283919D01*
X139768429Y-134283827D01*
X139769822Y-134283628D01*
X139769827Y-134283627D01*
X139907604Y-134263896D01*
X139907609Y-134263895D01*
X139910206Y-134263523D01*
X139945583Y-134253178D01*
X139949245Y-134251513D01*
X140073572Y-134194985D01*
X140073576Y-134194983D01*
X140075962Y-134193898D01*
X140098077Y-134179755D01*
X140104796Y-134175458D01*
X140104798Y-134175457D01*
X140107013Y-134174040D01*
X140114143Y-134167897D01*
X140213521Y-134082267D01*
X140215514Y-134080550D01*
X140239744Y-134052775D01*
X140243642Y-134046762D01*
X140307234Y-133948650D01*
X140317644Y-133932590D01*
X140333105Y-133899130D01*
X140336796Y-133886790D01*
X140373387Y-133764434D01*
X140373388Y-133764431D01*
X140374141Y-133761912D01*
X140374904Y-133756812D01*
X140379200Y-133728061D01*
X140379589Y-133725459D01*
X140380315Y-133606584D01*
X140380448Y-133584862D01*
X140380464Y-133582238D01*
X140380139Y-133579862D01*
X140379998Y-133575555D01*
X140379998Y-133150000D01*
X140375961Y-133129706D01*
X140371524Y-133107399D01*
X140371523Y-133107398D01*
X140370102Y-133100252D01*
X140348023Y-133067208D01*
X140345972Y-133064139D01*
X140341922Y-133058078D01*
X140335861Y-133054028D01*
X140334159Y-133052326D01*
X140328230Y-133039610D01*
X140768619Y-133039610D01*
X140797348Y-133206802D01*
X140863768Y-133362900D01*
X140866318Y-133366364D01*
X140866319Y-133366367D01*
X140961768Y-133496068D01*
X140961772Y-133496072D01*
X140964318Y-133499532D01*
X140967595Y-133502316D01*
X140967596Y-133502317D01*
X141082577Y-133600000D01*
X141093603Y-133609367D01*
X141097429Y-133611321D01*
X141097431Y-133611322D01*
X141144853Y-133635537D01*
X141244687Y-133686515D01*
X141409468Y-133726837D01*
X141412757Y-133727041D01*
X141419027Y-133727430D01*
X141419028Y-133727430D01*
X141420156Y-133727500D01*
X141542483Y-133727500D01*
X141544608Y-133727252D01*
X141544612Y-133727252D01*
X141664230Y-133713306D01*
X141668501Y-133712808D01*
X141672542Y-133711341D01*
X141672543Y-133711341D01*
X141823916Y-133656395D01*
X141823919Y-133656394D01*
X141827962Y-133654926D01*
X141969832Y-133561912D01*
X142086498Y-133438757D01*
X142171703Y-133292065D01*
X142188797Y-133235627D01*
X142213760Y-133153203D01*
X142220877Y-133129706D01*
X142223551Y-133086598D01*
X142231115Y-132964684D01*
X142231115Y-132964681D01*
X142231381Y-132960390D01*
X142202652Y-132793198D01*
X142136232Y-132637100D01*
X142133681Y-132633633D01*
X142038232Y-132503932D01*
X142038228Y-132503928D01*
X142035682Y-132500468D01*
X141952398Y-132429713D01*
X141909673Y-132393416D01*
X141909672Y-132393415D01*
X141906397Y-132390633D01*
X141902571Y-132388679D01*
X141902569Y-132388678D01*
X141799899Y-132336252D01*
X141755313Y-132313485D01*
X141590532Y-132273163D01*
X141583842Y-132272748D01*
X141580973Y-132272570D01*
X141580972Y-132272570D01*
X141579844Y-132272500D01*
X141457517Y-132272500D01*
X141455392Y-132272748D01*
X141455388Y-132272748D01*
X141335770Y-132286694D01*
X141331499Y-132287192D01*
X141327458Y-132288659D01*
X141327457Y-132288659D01*
X141176084Y-132343605D01*
X141176081Y-132343606D01*
X141172038Y-132345074D01*
X141030168Y-132438088D01*
X140913502Y-132561243D01*
X140911342Y-132564961D01*
X140911341Y-132564963D01*
X140871455Y-132633633D01*
X140828297Y-132707935D01*
X140827052Y-132712046D01*
X140827051Y-132712048D01*
X140809369Y-132770431D01*
X140779123Y-132870294D01*
X140778857Y-132874581D01*
X140769222Y-133029898D01*
X140768619Y-133039610D01*
X140328230Y-133039610D01*
X140312767Y-133006450D01*
X140325868Y-132957555D01*
X140334159Y-132947674D01*
X140335861Y-132945972D01*
X140341922Y-132941922D01*
X140370102Y-132899748D01*
X140375109Y-132874581D01*
X140379288Y-132853570D01*
X140379288Y-132853568D01*
X140379998Y-132850000D01*
X140379998Y-132358674D01*
X140379999Y-132358350D01*
X140380448Y-132284862D01*
X140380464Y-132282238D01*
X140375461Y-132245721D01*
X140366859Y-132215623D01*
X140336828Y-132110544D01*
X140336826Y-132110539D01*
X140336104Y-132108012D01*
X140321054Y-132074366D01*
X140252391Y-131965541D01*
X140241651Y-131916076D01*
X140262649Y-131873729D01*
X140412204Y-131724174D01*
X140458080Y-131702782D01*
X140464530Y-131702500D01*
X142885470Y-131702500D01*
X142933036Y-131719813D01*
X142937796Y-131724174D01*
X143275826Y-132062204D01*
X143297218Y-132108080D01*
X143297500Y-132114530D01*
X143297500Y-132139484D01*
X143280187Y-132187050D01*
X143236350Y-132212360D01*
X143186500Y-132203570D01*
X143163635Y-132182983D01*
X143161853Y-132180531D01*
X143159211Y-132175345D01*
X143156768Y-132172902D01*
X143156054Y-132171767D01*
X143155312Y-132170811D01*
X143152408Y-132165428D01*
X143112295Y-132128348D01*
X143110200Y-132126334D01*
X143074655Y-132090789D01*
X143069596Y-132088211D01*
X143065529Y-132084873D01*
X143064613Y-132084271D01*
X143060122Y-132080120D01*
X143054531Y-132077648D01*
X143054529Y-132077647D01*
X143013565Y-132059537D01*
X143009892Y-132057790D01*
X143003250Y-132054406D01*
X142968108Y-132036500D01*
X142962355Y-132035589D01*
X142956815Y-132033788D01*
X142956964Y-132033330D01*
X142956707Y-132033254D01*
X142956696Y-132033298D01*
X142950776Y-132031778D01*
X142945179Y-132029304D01*
X142898122Y-132025229D01*
X142892939Y-132024595D01*
X142850000Y-132017794D01*
X142844248Y-132018705D01*
X142839510Y-132018705D01*
X142827647Y-132019125D01*
X142819972Y-132018460D01*
X142814040Y-132019934D01*
X142814034Y-132019934D01*
X142777643Y-132028974D01*
X142771386Y-132030244D01*
X142756486Y-132032605D01*
X142737641Y-132035589D01*
X142737638Y-132035590D01*
X142731892Y-132036500D01*
X142726708Y-132039141D01*
X142726703Y-132039143D01*
X142724727Y-132040150D01*
X142708974Y-132046032D01*
X142698004Y-132048757D01*
X142692868Y-132052073D01*
X142692864Y-132052075D01*
X142664384Y-132070464D01*
X142657840Y-132074231D01*
X142634614Y-132086066D01*
X142625345Y-132090789D01*
X142617131Y-132099003D01*
X142604945Y-132108844D01*
X142592425Y-132116928D01*
X142588637Y-132121733D01*
X142588636Y-132121734D01*
X142569873Y-132145535D01*
X142564086Y-132152048D01*
X142540789Y-132175345D01*
X142538147Y-132180530D01*
X142538145Y-132180533D01*
X142533894Y-132188877D01*
X142526071Y-132201097D01*
X142518410Y-132210815D01*
X142514620Y-132215623D01*
X142504051Y-132245721D01*
X142503738Y-132246611D01*
X142499852Y-132255687D01*
X142486500Y-132281892D01*
X142485224Y-132289947D01*
X142483565Y-132300422D01*
X142480297Y-132313359D01*
X142472979Y-132334199D01*
X142472500Y-132339730D01*
X142472500Y-132364463D01*
X142471589Y-132376039D01*
X142467794Y-132400000D01*
X142468705Y-132405752D01*
X142471589Y-132423961D01*
X142472500Y-132435537D01*
X142472500Y-132964463D01*
X142471589Y-132976039D01*
X142467794Y-133000000D01*
X142468705Y-133005752D01*
X142471589Y-133023961D01*
X142472500Y-133035537D01*
X142472500Y-133564463D01*
X142471589Y-133576039D01*
X142467794Y-133600000D01*
X142468705Y-133605752D01*
X142471589Y-133623961D01*
X142472500Y-133635537D01*
X142472500Y-139551825D01*
X142470842Y-139567400D01*
X142467705Y-139581971D01*
X142468424Y-139588047D01*
X142468424Y-139588048D01*
X142471987Y-139618152D01*
X142472500Y-139626849D01*
X142472500Y-139631362D01*
X142473002Y-139634377D01*
X142473002Y-139634380D01*
X142475850Y-139651493D01*
X142476341Y-139654943D01*
X142482476Y-139706775D01*
X142485122Y-139712285D01*
X142485887Y-139714917D01*
X142485937Y-139715135D01*
X142486028Y-139715358D01*
X142486909Y-139717932D01*
X142487914Y-139723970D01*
X142490821Y-139729357D01*
X142512695Y-139769896D01*
X142514279Y-139773004D01*
X142534863Y-139815871D01*
X142534865Y-139815875D01*
X142536878Y-139820066D01*
X142540450Y-139824315D01*
X142541202Y-139825067D01*
X142544700Y-139829212D01*
X142547592Y-139834572D01*
X142585381Y-139869504D01*
X142587718Y-139871664D01*
X142589813Y-139873678D01*
X145962011Y-143245877D01*
X145983403Y-143291753D01*
X145970302Y-143340648D01*
X145928838Y-143369682D01*
X145902017Y-143371509D01*
X145897967Y-143370298D01*
X145891855Y-143370538D01*
X145891854Y-143370538D01*
X145843374Y-143372443D01*
X145840469Y-143372500D01*
X145817451Y-143372500D01*
X145777202Y-143360597D01*
X145706771Y-143314946D01*
X145706772Y-143314946D01*
X145702348Y-143312079D01*
X145603256Y-143282444D01*
X145576358Y-143274400D01*
X145576357Y-143274400D01*
X145571305Y-143272889D01*
X145501141Y-143272460D01*
X145439799Y-143272085D01*
X145439798Y-143272085D01*
X145434529Y-143272053D01*
X145303017Y-143309640D01*
X145187340Y-143382626D01*
X145096798Y-143485146D01*
X145038669Y-143608957D01*
X145022500Y-143712803D01*
X145022500Y-144176000D01*
X145005187Y-144223566D01*
X144961350Y-144248876D01*
X144948500Y-144250000D01*
X143776500Y-144250000D01*
X143728934Y-144232687D01*
X143703624Y-144188850D01*
X143702500Y-144176000D01*
X143702500Y-142304272D01*
X143702976Y-142295893D01*
X143703611Y-142290319D01*
X143706373Y-142282455D01*
X143702954Y-142251734D01*
X143702500Y-142243549D01*
X143702500Y-142236111D01*
X143700926Y-142229210D01*
X143699527Y-142220941D01*
X143697075Y-142198914D01*
X143696154Y-142190634D01*
X143691733Y-142183572D01*
X143690561Y-142180208D01*
X143689014Y-142176994D01*
X143687161Y-142168868D01*
X143681969Y-142162353D01*
X143681967Y-142162348D01*
X143668157Y-142145018D01*
X143663309Y-142138171D01*
X143661682Y-142135573D01*
X143661681Y-142135572D01*
X143659460Y-142132024D01*
X143654243Y-142126807D01*
X143648696Y-142120597D01*
X143634780Y-142103133D01*
X143634779Y-142103132D01*
X143629585Y-142096614D01*
X143622077Y-142092993D01*
X143617138Y-142089050D01*
X143610979Y-142083543D01*
X137224174Y-135696738D01*
X137202782Y-135650862D01*
X137202500Y-135644412D01*
X137202500Y-134356567D01*
X137219813Y-134309001D01*
X137266905Y-134283192D01*
X137337572Y-134273951D01*
X137402698Y-134265435D01*
X137405235Y-134264727D01*
X137405238Y-134264726D01*
X137435662Y-134256231D01*
X137435666Y-134256229D01*
X137438200Y-134255522D01*
X137440608Y-134254462D01*
X137440612Y-134254461D01*
X137566887Y-134198898D01*
X137566891Y-134198896D01*
X137569293Y-134197839D01*
X137573879Y-134194985D01*
X137588680Y-134185772D01*
X137600584Y-134178363D01*
X137663572Y-134125417D01*
X137708205Y-134087899D01*
X137708206Y-134087898D01*
X137710219Y-134086206D01*
X137734786Y-134058728D01*
X137746795Y-134040688D01*
X137774467Y-133999116D01*
X137814149Y-133939503D01*
X137830017Y-133906235D01*
X137841984Y-133867932D01*
X137871943Y-133772040D01*
X137871945Y-133772034D01*
X137872727Y-133769529D01*
X137878620Y-133733146D01*
X137880516Y-133629713D01*
X137881197Y-133592576D01*
X137881197Y-133592573D01*
X137881245Y-133589947D01*
X137880565Y-133584487D01*
X137879998Y-133575342D01*
X137879998Y-133150000D01*
X137875961Y-133129706D01*
X137871524Y-133107399D01*
X137871523Y-133107398D01*
X137870102Y-133100252D01*
X137848023Y-133067208D01*
X137845972Y-133064139D01*
X137841922Y-133058078D01*
X137835861Y-133054028D01*
X137834159Y-133052326D01*
X137812767Y-133006450D01*
X137825868Y-132957555D01*
X137834159Y-132947674D01*
X137835861Y-132945972D01*
X137841922Y-132941922D01*
X137870102Y-132899748D01*
X137875109Y-132874581D01*
X137879288Y-132853570D01*
X137879288Y-132853568D01*
X137879998Y-132850000D01*
X137879998Y-132358674D01*
X137880010Y-132357318D01*
X137881197Y-132292574D01*
X137881197Y-132292572D01*
X137881245Y-132289947D01*
X137876689Y-132253370D01*
X137839016Y-132115190D01*
X137837006Y-132110544D01*
X137831230Y-132097197D01*
X137824378Y-132081364D01*
X137749438Y-131959312D01*
X137741239Y-131949435D01*
X137727573Y-131932974D01*
X137727571Y-131932972D01*
X137725895Y-131930953D01*
X137619711Y-131834839D01*
X137617517Y-131833359D01*
X137591335Y-131815699D01*
X137591328Y-131815695D01*
X137589153Y-131814228D01*
X137586798Y-131813087D01*
X137586791Y-131813083D01*
X137462624Y-131752926D01*
X137460261Y-131751781D01*
X137425148Y-131740575D01*
X137343777Y-131726885D01*
X137285320Y-131717050D01*
X137285314Y-131717049D01*
X137283910Y-131716813D01*
X137263932Y-131715021D01*
X137262490Y-131715003D01*
X137262483Y-131715003D01*
X137253013Y-131714887D01*
X137253002Y-131714887D01*
X137251590Y-131714870D01*
X137231571Y-131716173D01*
X137214093Y-131718676D01*
X137210050Y-131719255D01*
X137199560Y-131720002D01*
X136809044Y-131720002D01*
X136796778Y-131718978D01*
X136783910Y-131716813D01*
X136763932Y-131715021D01*
X136762490Y-131715003D01*
X136762483Y-131715003D01*
X136753013Y-131714887D01*
X136753002Y-131714887D01*
X136751590Y-131714870D01*
X136743765Y-131715379D01*
X136732982Y-131716081D01*
X136732978Y-131716081D01*
X136731571Y-131716173D01*
X136730178Y-131716372D01*
X136730173Y-131716373D01*
X136592396Y-131736104D01*
X136592391Y-131736105D01*
X136589794Y-131736477D01*
X136587271Y-131737215D01*
X136587270Y-131737215D01*
X136580882Y-131739083D01*
X136554417Y-131746822D01*
X136552028Y-131747908D01*
X136552026Y-131747909D01*
X136426428Y-131805015D01*
X136426424Y-131805017D01*
X136424038Y-131806102D01*
X136421821Y-131807520D01*
X136399747Y-131821637D01*
X136392987Y-131825960D01*
X136390998Y-131827673D01*
X136390995Y-131827676D01*
X136347778Y-131864914D01*
X136284486Y-131919450D01*
X136282757Y-131921432D01*
X136282755Y-131921434D01*
X136279497Y-131925169D01*
X136260256Y-131947225D01*
X136258827Y-131949430D01*
X136258823Y-131949435D01*
X136240531Y-131977655D01*
X136200131Y-132008153D01*
X136149579Y-132005547D01*
X136126109Y-131989731D01*
X135245765Y-131109387D01*
X135224373Y-131063511D01*
X135225002Y-131045485D01*
X135226165Y-131038146D01*
X135232206Y-131000000D01*
X135213500Y-130881892D01*
X135159211Y-130775345D01*
X135074655Y-130690789D01*
X134968108Y-130636500D01*
X134850000Y-130617794D01*
X134731892Y-130636500D01*
X134625345Y-130690789D01*
X134540789Y-130775345D01*
X134486500Y-130881892D01*
X134467794Y-131000000D01*
X134486500Y-131118108D01*
X134540789Y-131224655D01*
X134625345Y-131309211D01*
X134731892Y-131363500D01*
X134850000Y-131382206D01*
X134895485Y-131375002D01*
X134945174Y-131384661D01*
X134959387Y-131395765D01*
X136024753Y-132461131D01*
X136030339Y-132467389D01*
X136033838Y-132471787D01*
X136037446Y-132479301D01*
X136061591Y-132498610D01*
X136067691Y-132504069D01*
X136072955Y-132509333D01*
X136076466Y-132511540D01*
X136076469Y-132511542D01*
X136078948Y-132513100D01*
X136085788Y-132517961D01*
X136092218Y-132523103D01*
X136118555Y-132566331D01*
X136120002Y-132580896D01*
X136120002Y-132850000D01*
X136120712Y-132853568D01*
X136120712Y-132853570D01*
X136124892Y-132874581D01*
X136129898Y-132899748D01*
X136158078Y-132941922D01*
X136164139Y-132945972D01*
X136165841Y-132947674D01*
X136187233Y-132993550D01*
X136174132Y-133042445D01*
X136165841Y-133052326D01*
X136164139Y-133054028D01*
X136158078Y-133058078D01*
X136154028Y-133064139D01*
X136151977Y-133067208D01*
X136129898Y-133100252D01*
X136128477Y-133107398D01*
X136128476Y-133107399D01*
X136124039Y-133129706D01*
X136120002Y-133150000D01*
X136120002Y-133641198D01*
X136120001Y-133641650D01*
X136119536Y-133717762D01*
X136124539Y-133754279D01*
X136127441Y-133764434D01*
X136162935Y-133888624D01*
X136163896Y-133891988D01*
X136178946Y-133925634D01*
X136255372Y-134046762D01*
X136279261Y-134074831D01*
X136281238Y-134076577D01*
X136281240Y-134076579D01*
X136384639Y-134167897D01*
X136384643Y-134167900D01*
X136386612Y-134169639D01*
X136417418Y-134189875D01*
X136547063Y-134250744D01*
X136567884Y-134257109D01*
X136579789Y-134260749D01*
X136579793Y-134260750D01*
X136582312Y-134261520D01*
X136723830Y-134283554D01*
X136726464Y-134283586D01*
X136729082Y-134283805D01*
X136728959Y-134285283D01*
X136771752Y-134301450D01*
X136796527Y-134345592D01*
X136797500Y-134357555D01*
X136797500Y-135482470D01*
X136780187Y-135530036D01*
X136736350Y-135555346D01*
X136686500Y-135546556D01*
X136671174Y-135534796D01*
X135261795Y-134125417D01*
X135240403Y-134079541D01*
X135252520Y-134032086D01*
X135314149Y-133939503D01*
X135330017Y-133906235D01*
X135341984Y-133867932D01*
X135371943Y-133772040D01*
X135371945Y-133772034D01*
X135372727Y-133769529D01*
X135378620Y-133733146D01*
X135380516Y-133629713D01*
X135381197Y-133592576D01*
X135381197Y-133592573D01*
X135381245Y-133589947D01*
X135380565Y-133584487D01*
X135379998Y-133575342D01*
X135379998Y-133150000D01*
X135375961Y-133129706D01*
X135371524Y-133107399D01*
X135371523Y-133107398D01*
X135370102Y-133100252D01*
X135348023Y-133067208D01*
X135345972Y-133064139D01*
X135341922Y-133058078D01*
X135335861Y-133054028D01*
X135334159Y-133052326D01*
X135312767Y-133006450D01*
X135325868Y-132957555D01*
X135334159Y-132947674D01*
X135335861Y-132945972D01*
X135341922Y-132941922D01*
X135370102Y-132899748D01*
X135375109Y-132874581D01*
X135379288Y-132853570D01*
X135379288Y-132853568D01*
X135379998Y-132850000D01*
X135379998Y-132358674D01*
X135380010Y-132357318D01*
X135381197Y-132292574D01*
X135381197Y-132292572D01*
X135381245Y-132289947D01*
X135376689Y-132253370D01*
X135339016Y-132115190D01*
X135337006Y-132110544D01*
X135331230Y-132097197D01*
X135324378Y-132081364D01*
X135249438Y-131959312D01*
X135241239Y-131949435D01*
X135227573Y-131932974D01*
X135227571Y-131932972D01*
X135225895Y-131930953D01*
X135119711Y-131834839D01*
X135117517Y-131833359D01*
X135091335Y-131815699D01*
X135091328Y-131815695D01*
X135089153Y-131814228D01*
X135086798Y-131813087D01*
X135086791Y-131813083D01*
X134962624Y-131752926D01*
X134960261Y-131751781D01*
X134925148Y-131740575D01*
X134843777Y-131726885D01*
X134785320Y-131717050D01*
X134785314Y-131717049D01*
X134783910Y-131716813D01*
X134763932Y-131715021D01*
X134762490Y-131715003D01*
X134762483Y-131715003D01*
X134753013Y-131714887D01*
X134753002Y-131714887D01*
X134751590Y-131714870D01*
X134731571Y-131716173D01*
X134714093Y-131718676D01*
X134710050Y-131719255D01*
X134699560Y-131720002D01*
X134309044Y-131720002D01*
X134296778Y-131718978D01*
X134283910Y-131716813D01*
X134263932Y-131715021D01*
X134262490Y-131715003D01*
X134262483Y-131715003D01*
X134253013Y-131714887D01*
X134253002Y-131714887D01*
X134251590Y-131714870D01*
X134243765Y-131715379D01*
X134232982Y-131716081D01*
X134232978Y-131716081D01*
X134231571Y-131716173D01*
X134221364Y-131717635D01*
X134199091Y-131720824D01*
X134149551Y-131710429D01*
X134136275Y-131699897D01*
X134074174Y-131637796D01*
X134052782Y-131591920D01*
X134052500Y-131585470D01*
X134052500Y-131361886D01*
X134069813Y-131314320D01*
X134074964Y-131309520D01*
X134074655Y-131309211D01*
X134159211Y-131224655D01*
X134213500Y-131118108D01*
X134232206Y-131000000D01*
X134213500Y-130881892D01*
X134159211Y-130775345D01*
X134074655Y-130690789D01*
X133968108Y-130636500D01*
X133850000Y-130617794D01*
X133731892Y-130636500D01*
X133625345Y-130690789D01*
X133540789Y-130775345D01*
X133486500Y-130881892D01*
X133467794Y-131000000D01*
X133486500Y-131118108D01*
X133540789Y-131224655D01*
X133625345Y-131309211D01*
X133623250Y-131311306D01*
X133645290Y-131343938D01*
X133647500Y-131361886D01*
X133647500Y-131654664D01*
X133647024Y-131663041D01*
X133646388Y-131668625D01*
X133643627Y-131676487D01*
X133644549Y-131684768D01*
X133647046Y-131707208D01*
X133647500Y-131715393D01*
X133647500Y-131722831D01*
X133648425Y-131726885D01*
X133649074Y-131729732D01*
X133650473Y-131738001D01*
X133650711Y-131740138D01*
X133653846Y-131768308D01*
X133658267Y-131775370D01*
X133659439Y-131778734D01*
X133660986Y-131781948D01*
X133662839Y-131790074D01*
X133668031Y-131796589D01*
X133668033Y-131796594D01*
X133681843Y-131813924D01*
X133686691Y-131820771D01*
X133688296Y-131823334D01*
X133690540Y-131826918D01*
X133695757Y-131832135D01*
X133701304Y-131838345D01*
X133715222Y-131855812D01*
X133715224Y-131855813D01*
X133720415Y-131862328D01*
X133727919Y-131865947D01*
X133731554Y-131868849D01*
X133757927Y-131912055D01*
X133750358Y-131962104D01*
X133747486Y-131966927D01*
X133682356Y-132067410D01*
X133666895Y-132100870D01*
X133666143Y-132103385D01*
X133666141Y-132103390D01*
X133628888Y-132227960D01*
X133625859Y-132238088D01*
X133625470Y-132240690D01*
X133625469Y-132240695D01*
X133621956Y-132264201D01*
X133620411Y-132274541D01*
X133620395Y-132277168D01*
X133619645Y-132400000D01*
X133619536Y-132417762D01*
X133619861Y-132420138D01*
X133620002Y-132424445D01*
X133620002Y-132850000D01*
X133620712Y-132853568D01*
X133620712Y-132853570D01*
X133624892Y-132874581D01*
X133629898Y-132899748D01*
X133658078Y-132941922D01*
X133664139Y-132945972D01*
X133665841Y-132947674D01*
X133687233Y-132993550D01*
X133674132Y-133042445D01*
X133665841Y-133052326D01*
X133664139Y-133054028D01*
X133658078Y-133058078D01*
X133654028Y-133064139D01*
X133651977Y-133067208D01*
X133629898Y-133100252D01*
X133628477Y-133107398D01*
X133628476Y-133107399D01*
X133624039Y-133129706D01*
X133620002Y-133150000D01*
X133620002Y-133641198D01*
X133620001Y-133641650D01*
X133619536Y-133717762D01*
X133624539Y-133754279D01*
X133627441Y-133764434D01*
X133662935Y-133888624D01*
X133663896Y-133891988D01*
X133678946Y-133925634D01*
X133755372Y-134046762D01*
X133779261Y-134074831D01*
X133781238Y-134076577D01*
X133781240Y-134076579D01*
X133884639Y-134167897D01*
X133884643Y-134167900D01*
X133886612Y-134169639D01*
X133917418Y-134189875D01*
X134047063Y-134250744D01*
X134067884Y-134257109D01*
X134079789Y-134260749D01*
X134079793Y-134260750D01*
X134082312Y-134261520D01*
X134223830Y-134283554D01*
X134238406Y-134283732D01*
X134258041Y-134283973D01*
X134258046Y-134283973D01*
X134260684Y-134284005D01*
X134286548Y-134280623D01*
X134296143Y-134279998D01*
X134695264Y-134279998D01*
X134706648Y-134280879D01*
X134714480Y-134282098D01*
X134723830Y-134283554D01*
X134738406Y-134283732D01*
X134758041Y-134283973D01*
X134758046Y-134283973D01*
X134760684Y-134284005D01*
X134801428Y-134278677D01*
X134850836Y-134289676D01*
X134863348Y-134299726D01*
X138675976Y-138112355D01*
X142275826Y-141712205D01*
X142297218Y-141758081D01*
X142297500Y-141764531D01*
X142297500Y-144176000D01*
X142280187Y-144223566D01*
X142236350Y-144248876D01*
X142223500Y-144250000D01*
X141051500Y-144250000D01*
X141003934Y-144232687D01*
X140978624Y-144188850D01*
X140977500Y-144176000D01*
X140977500Y-141665715D01*
X140963020Y-141564604D01*
X140933646Y-141500000D01*
X140908589Y-141444890D01*
X140908587Y-141444888D01*
X140906407Y-141440092D01*
X140872177Y-141400365D01*
X140820564Y-141340465D01*
X140820563Y-141340464D01*
X140817124Y-141336473D01*
X140812703Y-141333608D01*
X140808727Y-141330139D01*
X140809766Y-141328948D01*
X140792758Y-141309806D01*
X140791988Y-141310295D01*
X140785774Y-141300503D01*
X140747105Y-141239571D01*
X140746214Y-141238129D01*
X140703076Y-141166336D01*
X140700326Y-141163428D01*
X140698887Y-141161532D01*
X140691813Y-141152446D01*
X140691453Y-141151879D01*
X140689828Y-141149318D01*
X140685924Y-141144951D01*
X140630154Y-141089181D01*
X140628713Y-141087699D01*
X140627079Y-141085971D01*
X140572079Y-141027810D01*
X140568762Y-141025556D01*
X140568760Y-141025554D01*
X140567577Y-141024750D01*
X140556846Y-141015873D01*
X138398777Y-138857804D01*
X138394582Y-138853242D01*
X138358709Y-138810792D01*
X138292183Y-138759929D01*
X138290761Y-138758813D01*
X138228682Y-138708901D01*
X138225559Y-138706390D01*
X138221970Y-138704609D01*
X138219982Y-138703337D01*
X138212406Y-138698621D01*
X138210431Y-138697425D01*
X138207249Y-138694992D01*
X138203621Y-138693300D01*
X138203619Y-138693299D01*
X138131360Y-138659604D01*
X138129731Y-138658820D01*
X138054786Y-138621617D01*
X138050902Y-138620649D01*
X138048718Y-138619845D01*
X138040319Y-138616871D01*
X138038093Y-138616113D01*
X138034456Y-138614417D01*
X138030546Y-138613543D01*
X138030543Y-138613542D01*
X137952737Y-138596150D01*
X137950979Y-138595734D01*
X137884197Y-138579084D01*
X137869792Y-138575493D01*
X137865781Y-138575381D01*
X137863349Y-138575048D01*
X137852010Y-138573636D01*
X137848391Y-138572827D01*
X137844469Y-138572608D01*
X137843551Y-138572556D01*
X137843536Y-138572556D01*
X137842542Y-138572500D01*
X137763681Y-138572500D01*
X137761615Y-138572471D01*
X137683222Y-138570281D01*
X137679211Y-138570169D01*
X137675271Y-138570921D01*
X137675267Y-138570921D01*
X137673863Y-138571189D01*
X137659997Y-138572500D01*
X133344124Y-138572500D01*
X133296558Y-138555187D01*
X133291798Y-138550826D01*
X132249174Y-137508201D01*
X132227782Y-137462324D01*
X132227500Y-137455875D01*
X132227500Y-135302373D01*
X132227106Y-135298747D01*
X132227584Y-135279184D01*
X132232206Y-135250000D01*
X132231295Y-135244248D01*
X132214412Y-135137647D01*
X132214411Y-135137644D01*
X132213500Y-135131892D01*
X132183477Y-135072968D01*
X132179279Y-135062983D01*
X132152551Y-134983560D01*
X132152549Y-134983556D01*
X132151272Y-134979761D01*
X132053076Y-134816336D01*
X132050327Y-134813429D01*
X132050324Y-134813425D01*
X131979663Y-134738704D01*
X131922079Y-134677810D01*
X131764390Y-134570645D01*
X131587369Y-134499841D01*
X131399272Y-134468702D01*
X131395280Y-134468911D01*
X131395276Y-134468911D01*
X131212880Y-134478470D01*
X131212878Y-134478470D01*
X131208877Y-134478680D01*
X131205011Y-134479745D01*
X131205010Y-134479745D01*
X131028931Y-134528245D01*
X131028928Y-134528246D01*
X131025066Y-134529310D01*
X131021522Y-134531179D01*
X131021521Y-134531179D01*
X130859963Y-134616359D01*
X130859961Y-134616361D01*
X130856415Y-134618230D01*
X130853353Y-134620818D01*
X130853351Y-134620819D01*
X130826889Y-134643181D01*
X130710792Y-134741291D01*
X130594992Y-134892751D01*
X130514417Y-135065544D01*
X130513544Y-135069451D01*
X130513542Y-135069456D01*
X130511853Y-135077014D01*
X130505571Y-135094463D01*
X130486500Y-135131892D01*
X130485589Y-135137644D01*
X130485588Y-135137647D01*
X130468705Y-135244248D01*
X130467794Y-135250000D01*
X130468705Y-135255751D01*
X130468705Y-135255752D01*
X130471589Y-135273961D01*
X130472500Y-135285537D01*
X130472500Y-137809987D01*
X130472240Y-137816179D01*
X130467589Y-137871566D01*
X130468119Y-137875538D01*
X130468119Y-137875540D01*
X130475556Y-137931276D01*
X130475295Y-137952639D01*
X130467794Y-138000000D01*
X130486500Y-138118108D01*
X130540789Y-138224655D01*
X130556012Y-138239878D01*
X130566166Y-138252553D01*
X130602868Y-138310386D01*
X130603813Y-138311916D01*
X130646924Y-138383664D01*
X130649675Y-138386573D01*
X130651113Y-138388468D01*
X130658186Y-138397553D01*
X130660172Y-138400682D01*
X130664077Y-138405049D01*
X130719829Y-138460801D01*
X130721270Y-138462283D01*
X130777921Y-138522190D01*
X130781237Y-138524444D01*
X130781240Y-138524446D01*
X130782426Y-138525252D01*
X130793157Y-138534129D01*
X132301223Y-140042196D01*
X132305418Y-140046758D01*
X132332019Y-140078236D01*
X132349498Y-140125742D01*
X132332351Y-140173368D01*
X132288602Y-140198830D01*
X132275498Y-140200000D01*
X124654916Y-140200000D01*
X124607350Y-140182687D01*
X124602590Y-140178326D01*
X124321674Y-139897410D01*
X124300282Y-139851534D01*
X124300000Y-139845084D01*
X124300000Y-127654916D01*
X124317313Y-127607350D01*
X124321674Y-127602590D01*
X124602590Y-127321674D01*
X124648466Y-127300282D01*
X124654916Y-127300000D01*
X184845084Y-127300000D01*
X184892650Y-127317313D01*
G37*
%TD.AperFunction*%
%TD*%
M02*
