%TF.GenerationSoftware,KiCad,Pcbnew,(6.0.1)*%
%TF.CreationDate,2022-02-11T10:22:36+08:00*%
%TF.ProjectId,Wyse-5070-PCIe-Riser,57797365-2d35-4303-9730-2d504349652d,rev?*%
%TF.SameCoordinates,Original*%
%TF.FileFunction,Profile,NP*%
%FSLAX46Y46*%
G04 Gerber Fmt 4.6, Leading zero omitted, Abs format (unit mm)*
G04 Created by KiCad (PCBNEW (6.0.1)) date 2022-02-11 10:22:36*
%MOMM*%
%LPD*%
G01*
G04 APERTURE LIST*
%TA.AperFunction,Profile*%
%ADD10C,0.100000*%
%TD*%
G04 APERTURE END LIST*
D10*
X137850000Y-141500000D02*
G75*
G03*
X136850000Y-140500000I-999999J1D01*
G01*
X172150000Y-141500000D02*
X172150000Y-141600000D01*
X124000000Y-127500000D02*
X124500000Y-127000000D01*
X173150000Y-140500000D02*
G75*
G03*
X172150000Y-141500000I-1J-999999D01*
G01*
X185500000Y-140000000D02*
X185000000Y-140500000D01*
X185000000Y-140500000D02*
X173150000Y-140500000D01*
X185500000Y-127500000D02*
X185000000Y-127000000D01*
X137850000Y-141600000D02*
X137850000Y-141500000D01*
X124000000Y-140000000D02*
X124500000Y-140500000D01*
X124500000Y-127000000D02*
X185000000Y-127000000D01*
X124000000Y-140000000D02*
X124000000Y-127500000D01*
X185500000Y-127500000D02*
X185500000Y-140000000D01*
X124500000Y-140500000D02*
X136850000Y-140500000D01*
%TO.C,J1*%
X151450000Y-150000000D02*
X171650000Y-150000000D01*
X149050000Y-149500000D02*
X148550000Y-150000000D01*
X138350000Y-150000000D02*
X148550000Y-150000000D01*
X150950000Y-149500000D02*
X151450000Y-150000000D01*
X172150000Y-149500000D02*
X171650000Y-150000000D01*
X149050000Y-142550000D02*
X149050000Y-149500000D01*
X137850000Y-141600000D02*
X137850000Y-149500000D01*
X172150000Y-141600000D02*
X172150000Y-149500000D01*
X137850000Y-149500000D02*
X138350000Y-150000000D01*
X150950000Y-142550000D02*
X150950000Y-149500000D01*
X150950000Y-142550000D02*
G75*
G03*
X149050000Y-142550000I-950000J0D01*
G01*
%TD*%
M02*
