%TF.GenerationSoftware,KiCad,Pcbnew,(6.0.1)*%
%TF.CreationDate,2022-02-11T10:22:36+08:00*%
%TF.ProjectId,Wyse-5070-PCIe-Riser,57797365-2d35-4303-9730-2d504349652d,rev?*%
%TF.SameCoordinates,Original*%
%TF.FileFunction,Soldermask,Top*%
%TF.FilePolarity,Negative*%
%FSLAX46Y46*%
G04 Gerber Fmt 4.6, Leading zero omitted, Abs format (unit mm)*
G04 Created by KiCad (PCBNEW (6.0.1)) date 2022-02-11 10:22:36*
%MOMM*%
%LPD*%
G01*
G04 APERTURE LIST*
G04 Aperture macros list*
%AMRoundRect*
0 Rectangle with rounded corners*
0 $1 Rounding radius*
0 $2 $3 $4 $5 $6 $7 $8 $9 X,Y pos of 4 corners*
0 Add a 4 corners polygon primitive as box body*
4,1,4,$2,$3,$4,$5,$6,$7,$8,$9,$2,$3,0*
0 Add four circle primitives for the rounded corners*
1,1,$1+$1,$2,$3*
1,1,$1+$1,$4,$5*
1,1,$1+$1,$6,$7*
1,1,$1+$1,$8,$9*
0 Add four rect primitives between the rounded corners*
20,1,$1+$1,$2,$3,$4,$5,0*
20,1,$1+$1,$4,$5,$6,$7,0*
20,1,$1+$1,$6,$7,$8,$9,0*
20,1,$1+$1,$8,$9,$2,$3,0*%
%AMFreePoly0*
4,1,22,0.500000,-0.750000,0.000000,-0.750000,0.000000,-0.745033,-0.079941,-0.743568,-0.215256,-0.701293,-0.333266,-0.622738,-0.424486,-0.514219,-0.481581,-0.384460,-0.499164,-0.250000,-0.500000,-0.250000,-0.500000,0.250000,-0.499164,0.250000,-0.499963,0.256109,-0.478152,0.396186,-0.417904,0.524511,-0.324060,0.630769,-0.204165,0.706417,-0.067858,0.745374,0.000000,0.744959,0.000000,0.750000,
0.500000,0.750000,0.500000,-0.750000,0.500000,-0.750000,$1*%
%AMFreePoly1*
4,1,20,0.000000,0.744959,0.073905,0.744508,0.209726,0.703889,0.328688,0.626782,0.421226,0.519385,0.479903,0.390333,0.500000,0.250000,0.500000,-0.250000,0.499851,-0.262216,0.476331,-0.402017,0.414519,-0.529596,0.319384,-0.634700,0.198574,-0.708877,0.061801,-0.746166,0.000000,-0.745033,0.000000,-0.750000,-0.500000,-0.750000,-0.500000,0.750000,0.000000,0.750000,0.000000,0.744959,
0.000000,0.744959,$1*%
G04 Aperture macros list end*
%ADD10C,0.050000*%
%ADD11C,1.200000*%
%ADD12FreePoly0,270.000000*%
%ADD13FreePoly1,270.000000*%
%ADD14FreePoly0,90.000000*%
%ADD15FreePoly1,90.000000*%
%ADD16RoundRect,0.140000X-0.170000X0.140000X-0.170000X-0.140000X0.170000X-0.140000X0.170000X0.140000X0*%
%ADD17R,0.700000X4.300000*%
%ADD18R,0.700000X3.200000*%
G04 APERTURE END LIST*
D10*
X137000000Y-144400000D02*
X173000000Y-144400000D01*
X173000000Y-144400000D02*
X173000000Y-150500000D01*
X173000000Y-150500000D02*
X137000000Y-150500000D01*
X137000000Y-150500000D02*
X137000000Y-144400000D01*
G36*
X137000000Y-144400000D02*
G01*
X173000000Y-144400000D01*
X173000000Y-150500000D01*
X137000000Y-150500000D01*
X137000000Y-144400000D01*
G37*
D11*
%TO.C,J2*%
X181650000Y-133000000D03*
X141500000Y-133000000D03*
%TD*%
D12*
%TO.C,JP4*%
X139500000Y-132350000D03*
D13*
X139500000Y-133650000D03*
%TD*%
D14*
%TO.C,JP2*%
X134500000Y-133650000D03*
D15*
X134500000Y-132350000D03*
%TD*%
D16*
%TO.C,C6*%
X154850000Y-132520000D03*
X154850000Y-133480000D03*
%TD*%
%TO.C,C4*%
X150850000Y-132520000D03*
X150850000Y-133480000D03*
%TD*%
D17*
%TO.C,J1*%
X138500000Y-146550000D03*
X139500000Y-146550000D03*
X140500000Y-146550000D03*
X141500000Y-146550000D03*
X142500000Y-146550000D03*
X143500000Y-146550000D03*
X144500000Y-146550000D03*
X145500000Y-146550000D03*
X146500000Y-146550000D03*
X147500000Y-146550000D03*
X148500000Y-146550000D03*
X151500000Y-146550000D03*
X152500000Y-146550000D03*
X153500000Y-146550000D03*
X154500000Y-146550000D03*
X155500000Y-146550000D03*
X156500000Y-146550000D03*
X157500000Y-146550000D03*
X158500000Y-146550000D03*
X159500000Y-146550000D03*
X160500000Y-146550000D03*
X161500000Y-146550000D03*
X162500000Y-146550000D03*
X163500000Y-146550000D03*
X164500000Y-146550000D03*
X165500000Y-146550000D03*
X166500000Y-146550000D03*
X167500000Y-146550000D03*
X168500000Y-146550000D03*
X169500000Y-146550000D03*
D18*
X170500000Y-146000000D03*
D17*
X171500000Y-146550000D03*
%TD*%
D16*
%TO.C,C1*%
X144850000Y-132520000D03*
X144850000Y-133480000D03*
%TD*%
D14*
%TO.C,JP3*%
X137000000Y-133650000D03*
D15*
X137000000Y-132350000D03*
%TD*%
D16*
%TO.C,C7*%
X157850000Y-132520000D03*
X157850000Y-133480000D03*
%TD*%
%TO.C,C3*%
X149850000Y-132520000D03*
X149850000Y-133480000D03*
%TD*%
%TO.C,C5*%
X153850000Y-132520000D03*
X153850000Y-133480000D03*
%TD*%
%TO.C,C8*%
X158850000Y-132520000D03*
X158850000Y-133480000D03*
%TD*%
%TO.C,C2*%
X145850000Y-132520000D03*
X145850000Y-133480000D03*
%TD*%
M02*
