%TF.GenerationSoftware,KiCad,Pcbnew,(6.0.1)*%
%TF.CreationDate,2022-02-11T10:22:36+08:00*%
%TF.ProjectId,Wyse-5070-PCIe-Riser,57797365-2d35-4303-9730-2d504349652d,rev?*%
%TF.SameCoordinates,Original*%
%TF.FileFunction,Legend,Top*%
%TF.FilePolarity,Positive*%
%FSLAX46Y46*%
G04 Gerber Fmt 4.6, Leading zero omitted, Abs format (unit mm)*
G04 Created by KiCad (PCBNEW (6.0.1)) date 2022-02-11 10:22:36*
%MOMM*%
%LPD*%
G01*
G04 APERTURE LIST*
%ADD10C,0.150000*%
%ADD11C,0.300000*%
%ADD12C,0.120000*%
G04 APERTURE END LIST*
D10*
X136738095Y-135952380D02*
X136738095Y-134952380D01*
X136976190Y-134952380D01*
X137119047Y-135000000D01*
X137214285Y-135095238D01*
X137261904Y-135190476D01*
X137309523Y-135380952D01*
X137309523Y-135523809D01*
X137261904Y-135714285D01*
X137214285Y-135809523D01*
X137119047Y-135904761D01*
X136976190Y-135952380D01*
X136738095Y-135952380D01*
X134809523Y-135857142D02*
X134761904Y-135904761D01*
X134619047Y-135952380D01*
X134523809Y-135952380D01*
X134380952Y-135904761D01*
X134285714Y-135809523D01*
X134238095Y-135714285D01*
X134190476Y-135523809D01*
X134190476Y-135380952D01*
X134238095Y-135190476D01*
X134285714Y-135095238D01*
X134380952Y-135000000D01*
X134523809Y-134952380D01*
X134619047Y-134952380D01*
X134761904Y-135000000D01*
X134809523Y-135047619D01*
X138928571Y-134670000D02*
X140071428Y-134670000D01*
X139071428Y-134952380D02*
X139309523Y-135952380D01*
X139500000Y-135238095D01*
X139690476Y-135952380D01*
X139928571Y-134952380D01*
D11*
X174549285Y-138819285D02*
X174477857Y-138890714D01*
X174406428Y-139033571D01*
X174406428Y-139176428D01*
X174477857Y-139319285D01*
X174549285Y-139390714D01*
X174692142Y-139462142D01*
X174835000Y-139462142D01*
X174977857Y-139390714D01*
X175049285Y-139319285D01*
X175120714Y-139176428D01*
X175120714Y-139033571D01*
X175049285Y-138890714D01*
X174977857Y-138819285D01*
X174406428Y-138819285D02*
X174977857Y-138819285D01*
X175049285Y-138747857D01*
X175049285Y-138676428D01*
X174977857Y-138533571D01*
X174835000Y-138462142D01*
X174477857Y-138462142D01*
X174263571Y-138605000D01*
X174120714Y-138819285D01*
X174049285Y-139105000D01*
X174120714Y-139390714D01*
X174263571Y-139605000D01*
X174477857Y-139747857D01*
X174763571Y-139819285D01*
X175049285Y-139747857D01*
X175263571Y-139605000D01*
X175406428Y-139390714D01*
X175477857Y-139105000D01*
X175406428Y-138819285D01*
X175263571Y-138605000D01*
X174835000Y-137890714D02*
X174835000Y-137176428D01*
X175263571Y-138033571D02*
X173763571Y-137533571D01*
X175263571Y-137033571D01*
X175263571Y-136319285D02*
X175192142Y-136462142D01*
X175049285Y-136533571D01*
X173763571Y-136533571D01*
X174263571Y-135747857D02*
X175763571Y-135747857D01*
X174335000Y-135747857D02*
X174263571Y-135605000D01*
X174263571Y-135319285D01*
X174335000Y-135176428D01*
X174406428Y-135105000D01*
X174549285Y-135033571D01*
X174977857Y-135033571D01*
X175120714Y-135105000D01*
X175192142Y-135176428D01*
X175263571Y-135319285D01*
X175263571Y-135605000D01*
X175192142Y-135747857D01*
X175263571Y-134390714D02*
X173763571Y-134390714D01*
X175263571Y-133747857D02*
X174477857Y-133747857D01*
X174335000Y-133819285D01*
X174263571Y-133962142D01*
X174263571Y-134176428D01*
X174335000Y-134319285D01*
X174406428Y-134390714D01*
X175263571Y-132390714D02*
X174477857Y-132390714D01*
X174335000Y-132462142D01*
X174263571Y-132605000D01*
X174263571Y-132890714D01*
X174335000Y-133033571D01*
X175192142Y-132390714D02*
X175263571Y-132533571D01*
X175263571Y-132890714D01*
X175192142Y-133033571D01*
X175049285Y-133105000D01*
X174906428Y-133105000D01*
X174763571Y-133033571D01*
X174692142Y-132890714D01*
X174692142Y-132533571D01*
X174620714Y-132390714D01*
X174835000Y-131747857D02*
X174835000Y-131033571D01*
X175263571Y-131890714D02*
X173763571Y-131390714D01*
X175263571Y-130890714D01*
X175263571Y-130390714D02*
X174263571Y-130390714D01*
X174549285Y-130390714D02*
X174406428Y-130319285D01*
X174335000Y-130247857D01*
X174263571Y-130105000D01*
X174263571Y-129962142D01*
X175192142Y-128890714D02*
X175263571Y-129033571D01*
X175263571Y-129319285D01*
X175192142Y-129462142D01*
X175049285Y-129533571D01*
X174477857Y-129533571D01*
X174335000Y-129462142D01*
X174263571Y-129319285D01*
X174263571Y-129033571D01*
X174335000Y-128890714D01*
X174477857Y-128819285D01*
X174620714Y-128819285D01*
X174763571Y-129533571D01*
X175263571Y-127533571D02*
X174477857Y-127533571D01*
X174335000Y-127605000D01*
X174263571Y-127747857D01*
X174263571Y-128033571D01*
X174335000Y-128176428D01*
X175192142Y-127533571D02*
X175263571Y-127676428D01*
X175263571Y-128033571D01*
X175192142Y-128176428D01*
X175049285Y-128247857D01*
X174906428Y-128247857D01*
X174763571Y-128176428D01*
X174692142Y-128033571D01*
X174692142Y-127676428D01*
X174620714Y-127533571D01*
X176964285Y-138819285D02*
X176892857Y-138890714D01*
X176821428Y-139033571D01*
X176821428Y-139176428D01*
X176892857Y-139319285D01*
X176964285Y-139390714D01*
X177107142Y-139462142D01*
X177250000Y-139462142D01*
X177392857Y-139390714D01*
X177464285Y-139319285D01*
X177535714Y-139176428D01*
X177535714Y-139033571D01*
X177464285Y-138890714D01*
X177392857Y-138819285D01*
X176821428Y-138819285D02*
X177392857Y-138819285D01*
X177464285Y-138747857D01*
X177464285Y-138676428D01*
X177392857Y-138533571D01*
X177250000Y-138462142D01*
X176892857Y-138462142D01*
X176678571Y-138605000D01*
X176535714Y-138819285D01*
X176464285Y-139105000D01*
X176535714Y-139390714D01*
X176678571Y-139605000D01*
X176892857Y-139747857D01*
X177178571Y-139819285D01*
X177464285Y-139747857D01*
X177678571Y-139605000D01*
X177821428Y-139390714D01*
X177892857Y-139105000D01*
X177821428Y-138819285D01*
X177678571Y-138605000D01*
X177678571Y-137819285D02*
X176178571Y-137819285D01*
X176892857Y-137819285D02*
X176892857Y-136962142D01*
X177678571Y-136962142D02*
X176178571Y-136962142D01*
X177678571Y-135605000D02*
X176892857Y-135605000D01*
X176750000Y-135676428D01*
X176678571Y-135819285D01*
X176678571Y-136105000D01*
X176750000Y-136247857D01*
X177607142Y-135605000D02*
X177678571Y-135747857D01*
X177678571Y-136105000D01*
X177607142Y-136247857D01*
X177464285Y-136319285D01*
X177321428Y-136319285D01*
X177178571Y-136247857D01*
X177107142Y-136105000D01*
X177107142Y-135747857D01*
X177035714Y-135605000D01*
X176678571Y-135033571D02*
X177678571Y-134676428D01*
X176678571Y-134319285D01*
X177678571Y-133533571D02*
X177607142Y-133676428D01*
X177535714Y-133747857D01*
X177392857Y-133819285D01*
X176964285Y-133819285D01*
X176821428Y-133747857D01*
X176750000Y-133676428D01*
X176678571Y-133533571D01*
X176678571Y-133319285D01*
X176750000Y-133176428D01*
X176821428Y-133105000D01*
X176964285Y-133033571D01*
X177392857Y-133033571D01*
X177535714Y-133105000D01*
X177607142Y-133176428D01*
X177678571Y-133319285D01*
X177678571Y-133533571D01*
X177607142Y-131747857D02*
X177678571Y-131890714D01*
X177678571Y-132176428D01*
X177607142Y-132319285D01*
X177535714Y-132390714D01*
X177392857Y-132462142D01*
X176964285Y-132462142D01*
X176821428Y-132390714D01*
X176750000Y-132319285D01*
X176678571Y-132176428D01*
X176678571Y-131890714D01*
X176750000Y-131747857D01*
X179379285Y-138819285D02*
X179307857Y-138890714D01*
X179236428Y-139033571D01*
X179236428Y-139176428D01*
X179307857Y-139319285D01*
X179379285Y-139390714D01*
X179522142Y-139462142D01*
X179665000Y-139462142D01*
X179807857Y-139390714D01*
X179879285Y-139319285D01*
X179950714Y-139176428D01*
X179950714Y-139033571D01*
X179879285Y-138890714D01*
X179807857Y-138819285D01*
X179236428Y-138819285D02*
X179807857Y-138819285D01*
X179879285Y-138747857D01*
X179879285Y-138676428D01*
X179807857Y-138533571D01*
X179665000Y-138462142D01*
X179307857Y-138462142D01*
X179093571Y-138605000D01*
X178950714Y-138819285D01*
X178879285Y-139105000D01*
X178950714Y-139390714D01*
X179093571Y-139605000D01*
X179307857Y-139747857D01*
X179593571Y-139819285D01*
X179879285Y-139747857D01*
X180093571Y-139605000D01*
X180236428Y-139390714D01*
X180307857Y-139105000D01*
X180236428Y-138819285D01*
X180093571Y-138605000D01*
X180093571Y-137819285D02*
X178593571Y-137819285D01*
X180093571Y-136962142D01*
X178593571Y-136962142D01*
X180093571Y-135605000D02*
X179307857Y-135605000D01*
X179165000Y-135676428D01*
X179093571Y-135819285D01*
X179093571Y-136105000D01*
X179165000Y-136247857D01*
X180022142Y-135605000D02*
X180093571Y-135747857D01*
X180093571Y-136105000D01*
X180022142Y-136247857D01*
X179879285Y-136319285D01*
X179736428Y-136319285D01*
X179593571Y-136247857D01*
X179522142Y-136105000D01*
X179522142Y-135747857D01*
X179450714Y-135605000D01*
X180093571Y-134890714D02*
X179093571Y-134890714D01*
X178593571Y-134890714D02*
X178665000Y-134962142D01*
X178736428Y-134890714D01*
X178665000Y-134819285D01*
X178593571Y-134890714D01*
X178736428Y-134890714D01*
X179093571Y-134319285D02*
X180093571Y-133962142D01*
X179093571Y-133605000D01*
X180022142Y-132462142D02*
X180093571Y-132605000D01*
X180093571Y-132890714D01*
X180022142Y-133033571D01*
X179879285Y-133105000D01*
X179307857Y-133105000D01*
X179165000Y-133033571D01*
X179093571Y-132890714D01*
X179093571Y-132605000D01*
X179165000Y-132462142D01*
X179307857Y-132390714D01*
X179450714Y-132390714D01*
X179593571Y-133105000D01*
X180093571Y-131747857D02*
X178593571Y-131747857D01*
X179522142Y-131605000D02*
X180093571Y-131176428D01*
X179093571Y-131176428D02*
X179665000Y-131747857D01*
X179093571Y-129890714D02*
X180093571Y-129890714D01*
X179093571Y-130533571D02*
X179879285Y-130533571D01*
X180022142Y-130462142D01*
X180093571Y-130319285D01*
X180093571Y-130105000D01*
X180022142Y-129962142D01*
X179950714Y-129890714D01*
X179093571Y-129176428D02*
X180093571Y-129176428D01*
X179236428Y-129176428D02*
X179165000Y-129105000D01*
X179093571Y-128962142D01*
X179093571Y-128747857D01*
X179165000Y-128605000D01*
X179307857Y-128533571D01*
X180093571Y-128533571D01*
%TO.C,G\u002A\u002A\u002A*%
G36*
X168487666Y-135547532D02*
G01*
X168550683Y-135547533D01*
X168611010Y-135547535D01*
X168668709Y-135547537D01*
X168723836Y-135547541D01*
X168776452Y-135547545D01*
X168826617Y-135547551D01*
X168874387Y-135547558D01*
X168919824Y-135547566D01*
X168962987Y-135547576D01*
X169003933Y-135547588D01*
X169042722Y-135547602D01*
X169079414Y-135547617D01*
X169114068Y-135547635D01*
X169146742Y-135547655D01*
X169177496Y-135547677D01*
X169206389Y-135547702D01*
X169233480Y-135547730D01*
X169258828Y-135547761D01*
X169282492Y-135547794D01*
X169304532Y-135547831D01*
X169325006Y-135547870D01*
X169343973Y-135547913D01*
X169361494Y-135547960D01*
X169377626Y-135548010D01*
X169392428Y-135548064D01*
X169405961Y-135548122D01*
X169418283Y-135548184D01*
X169429453Y-135548250D01*
X169439531Y-135548321D01*
X169448575Y-135548395D01*
X169456644Y-135548475D01*
X169463798Y-135548559D01*
X169470096Y-135548648D01*
X169475597Y-135548742D01*
X169480360Y-135548841D01*
X169484444Y-135548945D01*
X169487908Y-135549055D01*
X169490812Y-135549170D01*
X169493214Y-135549291D01*
X169495173Y-135549417D01*
X169496749Y-135549550D01*
X169498001Y-135549689D01*
X169498988Y-135549833D01*
X169499769Y-135549984D01*
X169500403Y-135550142D01*
X169500451Y-135550156D01*
X169518705Y-135556761D01*
X169535861Y-135565885D01*
X169551767Y-135577341D01*
X169566269Y-135590941D01*
X169579212Y-135606500D01*
X169590445Y-135623829D01*
X169599813Y-135642741D01*
X169607162Y-135663050D01*
X169612341Y-135684567D01*
X169612796Y-135687143D01*
X169612970Y-135688346D01*
X169613136Y-135689892D01*
X169613293Y-135691857D01*
X169613442Y-135694314D01*
X169613582Y-135697339D01*
X169613714Y-135701005D01*
X169613838Y-135705388D01*
X169613955Y-135710561D01*
X169614064Y-135716599D01*
X169614166Y-135723577D01*
X169614261Y-135731569D01*
X169614350Y-135740650D01*
X169614432Y-135750894D01*
X169614508Y-135762375D01*
X169614578Y-135775168D01*
X169614643Y-135789348D01*
X169614701Y-135804988D01*
X169614755Y-135822164D01*
X169614804Y-135840950D01*
X169614847Y-135861420D01*
X169614887Y-135883649D01*
X169614922Y-135907711D01*
X169614953Y-135933681D01*
X169614980Y-135961633D01*
X169615003Y-135991641D01*
X169615023Y-136023781D01*
X169615040Y-136058127D01*
X169615054Y-136094752D01*
X169615066Y-136133732D01*
X169615075Y-136175142D01*
X169615081Y-136219054D01*
X169615086Y-136265545D01*
X169615089Y-136314688D01*
X169615091Y-136366558D01*
X169615091Y-136468325D01*
X169615089Y-136520011D01*
X169615085Y-136568978D01*
X169615079Y-136615299D01*
X169615071Y-136659049D01*
X169615060Y-136700301D01*
X169615047Y-136739128D01*
X169615031Y-136775604D01*
X169615013Y-136809803D01*
X169614990Y-136841798D01*
X169614965Y-136871662D01*
X169614935Y-136899470D01*
X169614902Y-136925295D01*
X169614864Y-136949210D01*
X169614822Y-136971289D01*
X169614776Y-136991606D01*
X169614725Y-137010234D01*
X169614668Y-137027247D01*
X169614606Y-137042718D01*
X169614539Y-137056721D01*
X169614466Y-137069330D01*
X169614388Y-137080618D01*
X169614303Y-137090658D01*
X169614211Y-137099524D01*
X169614113Y-137107290D01*
X169614008Y-137114030D01*
X169613897Y-137119816D01*
X169613778Y-137124723D01*
X169613651Y-137128824D01*
X169613517Y-137132193D01*
X169613374Y-137134903D01*
X169613224Y-137137027D01*
X169613065Y-137138640D01*
X169612906Y-137139770D01*
X169607926Y-137161575D01*
X169600765Y-137182130D01*
X169591569Y-137201257D01*
X169580484Y-137218776D01*
X169567656Y-137234508D01*
X169553230Y-137248273D01*
X169537351Y-137259893D01*
X169520167Y-137269188D01*
X169502309Y-137275836D01*
X169493208Y-137277903D01*
X169482479Y-137279382D01*
X169471123Y-137280211D01*
X169460140Y-137280328D01*
X169450531Y-137279670D01*
X169447604Y-137279232D01*
X169442447Y-137278074D01*
X169435893Y-137276280D01*
X169429232Y-137274206D01*
X169428258Y-137273877D01*
X169426913Y-137273275D01*
X169424285Y-137271945D01*
X169420340Y-137269869D01*
X169415044Y-137267026D01*
X169408362Y-137263398D01*
X169400261Y-137258966D01*
X169390707Y-137253710D01*
X169379665Y-137247612D01*
X169367100Y-137240651D01*
X169352980Y-137232810D01*
X169337269Y-137224068D01*
X169319934Y-137214407D01*
X169300940Y-137203808D01*
X169280253Y-137192251D01*
X169257839Y-137179717D01*
X169233664Y-137166187D01*
X169207693Y-137151642D01*
X169179893Y-137136062D01*
X169150229Y-137119429D01*
X169118667Y-137101724D01*
X169085173Y-137082926D01*
X169049713Y-137063018D01*
X169012252Y-137041979D01*
X168972756Y-137019791D01*
X168931192Y-136996435D01*
X168887524Y-136971891D01*
X168841719Y-136946140D01*
X168793743Y-136919163D01*
X168743562Y-136890942D01*
X168691140Y-136861455D01*
X168636445Y-136830686D01*
X168579441Y-136798614D01*
X168520095Y-136765220D01*
X168458373Y-136730485D01*
X168394240Y-136694390D01*
X168327662Y-136656916D01*
X168293145Y-136637486D01*
X168240150Y-136607653D01*
X168187737Y-136578143D01*
X168135963Y-136548990D01*
X168084886Y-136520225D01*
X168034560Y-136491880D01*
X167985044Y-136463986D01*
X167936394Y-136436577D01*
X167888666Y-136409684D01*
X167841917Y-136383339D01*
X167796204Y-136357574D01*
X167751584Y-136332420D01*
X167708113Y-136307911D01*
X167665847Y-136284078D01*
X167624844Y-136260952D01*
X167585161Y-136238566D01*
X167546853Y-136216953D01*
X167509977Y-136196143D01*
X167474591Y-136176169D01*
X167440751Y-136157063D01*
X167408513Y-136138856D01*
X167377934Y-136121582D01*
X167349071Y-136105271D01*
X167321981Y-136089956D01*
X167296719Y-136075669D01*
X167273344Y-136062441D01*
X167251911Y-136050305D01*
X167232477Y-136039293D01*
X167215100Y-136029437D01*
X167199834Y-136020768D01*
X167186738Y-136013319D01*
X167175868Y-136007122D01*
X167167280Y-136002209D01*
X167161031Y-135998611D01*
X167157179Y-135996360D01*
X167155859Y-135995551D01*
X167131481Y-135977276D01*
X167109587Y-135957790D01*
X167090220Y-135937144D01*
X167073426Y-135915389D01*
X167059246Y-135892577D01*
X167047997Y-135869405D01*
X167039253Y-135845057D01*
X167033231Y-135820065D01*
X167029928Y-135794661D01*
X167029338Y-135769078D01*
X167031457Y-135743550D01*
X167036279Y-135718309D01*
X167043801Y-135693591D01*
X167052090Y-135673636D01*
X167062193Y-135654371D01*
X167073833Y-135636604D01*
X167087457Y-135619720D01*
X167102499Y-135604074D01*
X167121098Y-135588036D01*
X167141122Y-135574483D01*
X167162533Y-135563435D01*
X167185294Y-135554911D01*
X167203834Y-135550056D01*
X167204628Y-135549904D01*
X167205610Y-135549758D01*
X167206839Y-135549618D01*
X167208375Y-135549484D01*
X167210276Y-135549356D01*
X167212602Y-135549233D01*
X167215411Y-135549117D01*
X167218763Y-135549005D01*
X167222716Y-135548899D01*
X167227331Y-135548798D01*
X167232666Y-135548702D01*
X167238780Y-135548612D01*
X167245732Y-135548525D01*
X167253582Y-135548444D01*
X167262388Y-135548367D01*
X167272209Y-135548295D01*
X167283106Y-135548227D01*
X167295136Y-135548163D01*
X167308360Y-135548103D01*
X167322835Y-135548047D01*
X167338622Y-135547994D01*
X167355779Y-135547946D01*
X167374366Y-135547901D01*
X167394441Y-135547859D01*
X167416063Y-135547820D01*
X167439293Y-135547785D01*
X167464188Y-135547752D01*
X167490808Y-135547723D01*
X167519213Y-135547696D01*
X167549461Y-135547672D01*
X167581611Y-135547650D01*
X167615722Y-135547631D01*
X167651855Y-135547613D01*
X167690066Y-135547598D01*
X167730417Y-135547585D01*
X167772966Y-135547574D01*
X167817771Y-135547564D01*
X167864893Y-135547556D01*
X167914390Y-135547549D01*
X167966322Y-135547544D01*
X168020747Y-135547539D01*
X168077724Y-135547536D01*
X168137314Y-135547534D01*
X168199574Y-135547532D01*
X168264564Y-135547532D01*
X168332343Y-135547531D01*
X168421902Y-135547531D01*
X168487666Y-135547532D01*
G37*
G36*
X166126107Y-136169899D02*
G01*
X166134969Y-136170661D01*
X166143986Y-136171584D01*
X166152231Y-136172565D01*
X166158776Y-136173500D01*
X166160040Y-136173715D01*
X166162979Y-136174365D01*
X166168497Y-136175717D01*
X166176408Y-136177722D01*
X166186524Y-136180330D01*
X166198661Y-136183493D01*
X166212630Y-136187161D01*
X166228246Y-136191286D01*
X166245322Y-136195817D01*
X166263671Y-136200705D01*
X166283107Y-136205903D01*
X166303443Y-136211359D01*
X166324493Y-136217025D01*
X166337016Y-136220405D01*
X166358802Y-136226289D01*
X166380248Y-136232081D01*
X166401143Y-136237722D01*
X166421274Y-136243157D01*
X166440428Y-136248327D01*
X166458394Y-136253175D01*
X166474959Y-136257644D01*
X166489910Y-136261676D01*
X166503035Y-136265215D01*
X166514123Y-136268202D01*
X166522959Y-136270581D01*
X166529333Y-136272295D01*
X166531266Y-136272814D01*
X166554382Y-136279120D01*
X166577305Y-136285588D01*
X166599669Y-136292106D01*
X166621109Y-136298562D01*
X166641258Y-136304842D01*
X166659749Y-136310836D01*
X166676217Y-136316429D01*
X166690295Y-136321510D01*
X166691623Y-136322011D01*
X166738155Y-136341159D01*
X166783615Y-136362942D01*
X166827884Y-136387294D01*
X166870846Y-136414147D01*
X166912382Y-136443435D01*
X166933224Y-136459483D01*
X166935316Y-136461202D01*
X166939535Y-136464724D01*
X166945828Y-136470007D01*
X166954143Y-136477006D01*
X166964430Y-136485677D01*
X166976635Y-136495976D01*
X166990708Y-136507859D01*
X167006596Y-136521282D01*
X167024247Y-136536202D01*
X167043610Y-136552574D01*
X167064633Y-136570354D01*
X167087263Y-136589499D01*
X167111450Y-136609964D01*
X167137141Y-136631705D01*
X167164284Y-136654679D01*
X167192827Y-136678842D01*
X167222719Y-136704149D01*
X167253908Y-136730557D01*
X167286342Y-136758022D01*
X167319969Y-136786499D01*
X167354737Y-136815945D01*
X167390594Y-136846316D01*
X167427489Y-136877568D01*
X167465370Y-136909656D01*
X167504184Y-136942538D01*
X167543881Y-136976168D01*
X167584407Y-137010504D01*
X167625712Y-137045501D01*
X167667743Y-137081114D01*
X167710449Y-137117301D01*
X167753777Y-137154018D01*
X167797676Y-137191219D01*
X167842095Y-137228862D01*
X167886980Y-137266902D01*
X167932281Y-137305295D01*
X167977945Y-137343998D01*
X168023920Y-137382966D01*
X168070156Y-137422156D01*
X168116599Y-137461523D01*
X168163198Y-137501024D01*
X168209902Y-137540615D01*
X168256658Y-137580251D01*
X168303414Y-137619889D01*
X168350119Y-137659485D01*
X168396721Y-137698995D01*
X168443168Y-137738374D01*
X168489407Y-137777580D01*
X168535388Y-137816567D01*
X168581059Y-137855292D01*
X168626367Y-137893711D01*
X168671260Y-137931781D01*
X168715688Y-137969456D01*
X168759597Y-138006694D01*
X168802936Y-138043450D01*
X168845654Y-138079680D01*
X168887698Y-138115340D01*
X168929017Y-138150387D01*
X168969558Y-138184776D01*
X169009271Y-138218464D01*
X169048102Y-138251406D01*
X169086001Y-138283558D01*
X169122914Y-138314877D01*
X169158792Y-138345319D01*
X169193580Y-138374839D01*
X169227229Y-138403394D01*
X169259686Y-138430940D01*
X169290898Y-138457432D01*
X169320815Y-138482828D01*
X169349384Y-138507082D01*
X169376554Y-138530151D01*
X169402272Y-138551991D01*
X169426487Y-138572558D01*
X169449147Y-138591808D01*
X169470200Y-138609697D01*
X169489594Y-138626181D01*
X169507278Y-138641216D01*
X169523199Y-138654758D01*
X169537306Y-138666764D01*
X169549547Y-138677189D01*
X169559870Y-138685990D01*
X169568223Y-138693121D01*
X169574554Y-138698540D01*
X169578812Y-138702203D01*
X169580944Y-138704065D01*
X169581101Y-138704208D01*
X169605297Y-138728143D01*
X169629183Y-138754421D01*
X169652349Y-138782524D01*
X169674384Y-138811931D01*
X169694878Y-138842123D01*
X169711861Y-138869872D01*
X169717952Y-138880781D01*
X169724741Y-138893620D01*
X169731887Y-138907686D01*
X169739046Y-138922280D01*
X169745876Y-138936697D01*
X169752033Y-138950236D01*
X169757175Y-138962196D01*
X169758347Y-138965068D01*
X169772825Y-139004560D01*
X169785162Y-139045596D01*
X169795253Y-139087701D01*
X169802991Y-139130401D01*
X169808268Y-139173219D01*
X169809949Y-139194503D01*
X169810209Y-139200093D01*
X169810442Y-139208174D01*
X169810651Y-139218486D01*
X169810833Y-139230774D01*
X169810991Y-139244779D01*
X169811122Y-139260246D01*
X169811229Y-139276917D01*
X169811310Y-139294534D01*
X169811366Y-139312841D01*
X169811397Y-139331581D01*
X169811403Y-139350497D01*
X169811384Y-139369331D01*
X169811339Y-139387826D01*
X169811270Y-139405726D01*
X169811176Y-139422773D01*
X169811058Y-139438711D01*
X169810914Y-139453281D01*
X169810746Y-139466228D01*
X169810553Y-139477293D01*
X169810336Y-139486221D01*
X169810095Y-139492753D01*
X169809875Y-139496174D01*
X169805413Y-139529104D01*
X169798226Y-139561173D01*
X169788344Y-139592319D01*
X169775798Y-139622478D01*
X169760616Y-139651584D01*
X169742828Y-139679574D01*
X169722463Y-139706383D01*
X169703576Y-139727745D01*
X169701566Y-139729914D01*
X169697708Y-139734123D01*
X169692075Y-139740289D01*
X169684744Y-139748330D01*
X169675789Y-139758162D01*
X169665287Y-139769701D01*
X169653314Y-139782865D01*
X169639943Y-139797571D01*
X169625251Y-139813736D01*
X169609314Y-139831276D01*
X169592206Y-139850109D01*
X169574004Y-139870151D01*
X169554783Y-139891319D01*
X169534618Y-139913531D01*
X169513584Y-139936702D01*
X169491758Y-139960751D01*
X169469214Y-139985593D01*
X169446029Y-140011147D01*
X169422277Y-140037328D01*
X169398035Y-140064054D01*
X169376311Y-140088005D01*
X169351723Y-140115112D01*
X169327567Y-140141730D01*
X169303918Y-140167776D01*
X169280852Y-140193170D01*
X169258444Y-140217829D01*
X169236769Y-140241669D01*
X169215901Y-140264610D01*
X169195915Y-140286570D01*
X169176887Y-140307465D01*
X169158891Y-140327213D01*
X169142002Y-140345734D01*
X169126296Y-140362943D01*
X169111847Y-140378760D01*
X169098729Y-140393102D01*
X169087019Y-140405887D01*
X169076791Y-140417032D01*
X169068120Y-140426455D01*
X169061080Y-140434075D01*
X169055748Y-140439809D01*
X169052197Y-140443574D01*
X169050588Y-140445211D01*
X169033685Y-140459868D01*
X169014675Y-140474216D01*
X168994313Y-140487746D01*
X168973350Y-140499944D01*
X168959849Y-140506873D01*
X168935639Y-140517626D01*
X168910911Y-140526580D01*
X168885017Y-140533937D01*
X168857307Y-140539899D01*
X168849867Y-140541222D01*
X168831955Y-140544281D01*
X167417580Y-140544497D01*
X167353950Y-140544506D01*
X167291010Y-140544514D01*
X167228821Y-140544520D01*
X167167445Y-140544526D01*
X167106943Y-140544530D01*
X167047376Y-140544533D01*
X166988805Y-140544535D01*
X166931293Y-140544535D01*
X166874899Y-140544534D01*
X166819686Y-140544533D01*
X166765714Y-140544530D01*
X166713046Y-140544526D01*
X166661742Y-140544521D01*
X166611864Y-140544515D01*
X166563472Y-140544507D01*
X166516629Y-140544499D01*
X166471396Y-140544490D01*
X166427834Y-140544479D01*
X166386004Y-140544468D01*
X166345967Y-140544456D01*
X166307786Y-140544442D01*
X166271520Y-140544428D01*
X166237232Y-140544413D01*
X166204983Y-140544397D01*
X166174835Y-140544380D01*
X166146847Y-140544362D01*
X166121083Y-140544343D01*
X166097602Y-140544324D01*
X166076467Y-140544303D01*
X166057739Y-140544282D01*
X166041479Y-140544260D01*
X166027748Y-140544237D01*
X166016607Y-140544213D01*
X166008119Y-140544189D01*
X166002344Y-140544164D01*
X165999344Y-140544138D01*
X165998905Y-140544125D01*
X165979023Y-140540014D01*
X165960291Y-140533356D01*
X165942879Y-140524297D01*
X165926955Y-140512983D01*
X165912689Y-140499561D01*
X165900250Y-140484176D01*
X165889806Y-140466975D01*
X165881527Y-140448102D01*
X165878983Y-140440524D01*
X165875667Y-140429777D01*
X165874950Y-139807136D01*
X165874904Y-139764932D01*
X165874863Y-139723406D01*
X165874828Y-139682652D01*
X165874797Y-139642765D01*
X165874772Y-139603839D01*
X165874752Y-139565969D01*
X165874737Y-139529249D01*
X165874727Y-139493773D01*
X165874722Y-139459636D01*
X165874722Y-139426933D01*
X165874727Y-139395758D01*
X165874736Y-139366205D01*
X165874751Y-139338368D01*
X165874770Y-139312343D01*
X165874795Y-139288224D01*
X165874824Y-139266105D01*
X165874857Y-139246081D01*
X165874895Y-139228245D01*
X165874938Y-139212694D01*
X165874986Y-139199520D01*
X165875038Y-139188819D01*
X165875094Y-139180684D01*
X165875155Y-139175211D01*
X165875220Y-139172494D01*
X165875231Y-139172315D01*
X165878157Y-139153274D01*
X165883599Y-139135256D01*
X165891344Y-139118409D01*
X165901179Y-139102883D01*
X165912891Y-139088825D01*
X165926266Y-139076384D01*
X165941092Y-139065707D01*
X165957155Y-139056945D01*
X165974242Y-139050244D01*
X165992140Y-139045753D01*
X166010636Y-139043621D01*
X166029517Y-139043996D01*
X166048570Y-139047026D01*
X166053456Y-139048248D01*
X166055330Y-139048910D01*
X166058995Y-139050370D01*
X166064481Y-139052644D01*
X166071820Y-139055743D01*
X166081041Y-139059683D01*
X166092175Y-139064475D01*
X166105253Y-139070134D01*
X166120306Y-139076673D01*
X166137363Y-139084105D01*
X166156457Y-139092445D01*
X166177617Y-139101704D01*
X166200874Y-139111898D01*
X166226258Y-139123039D01*
X166253801Y-139135140D01*
X166283532Y-139148216D01*
X166315483Y-139162280D01*
X166349684Y-139177345D01*
X166386165Y-139193424D01*
X166424958Y-139210531D01*
X166466093Y-139228680D01*
X166509601Y-139247884D01*
X166555511Y-139268157D01*
X166603855Y-139289511D01*
X166654664Y-139311961D01*
X166707968Y-139335519D01*
X166763797Y-139360200D01*
X166822183Y-139386016D01*
X166883155Y-139412982D01*
X166886748Y-139414571D01*
X166944457Y-139440097D01*
X166999604Y-139464489D01*
X167052245Y-139487775D01*
X167102442Y-139509978D01*
X167150251Y-139531126D01*
X167195731Y-139551244D01*
X167238941Y-139570357D01*
X167279939Y-139588491D01*
X167318784Y-139605672D01*
X167355534Y-139621927D01*
X167390249Y-139637279D01*
X167422985Y-139651756D01*
X167453803Y-139665382D01*
X167482760Y-139678184D01*
X167509915Y-139690187D01*
X167535326Y-139701417D01*
X167559053Y-139711900D01*
X167581153Y-139721661D01*
X167601684Y-139730727D01*
X167620707Y-139739122D01*
X167638278Y-139746872D01*
X167654457Y-139754004D01*
X167669303Y-139760543D01*
X167682872Y-139766514D01*
X167695225Y-139771944D01*
X167706420Y-139776858D01*
X167716515Y-139781281D01*
X167725568Y-139785240D01*
X167733639Y-139788760D01*
X167740785Y-139791868D01*
X167747066Y-139794587D01*
X167752539Y-139796946D01*
X167757264Y-139798968D01*
X167761299Y-139800680D01*
X167764701Y-139802107D01*
X167767531Y-139803275D01*
X167769846Y-139804211D01*
X167771705Y-139804939D01*
X167773167Y-139805485D01*
X167774289Y-139805876D01*
X167775131Y-139806136D01*
X167775751Y-139806291D01*
X167776207Y-139806368D01*
X167776558Y-139806391D01*
X167776863Y-139806387D01*
X167777180Y-139806382D01*
X167777567Y-139806400D01*
X167778084Y-139806468D01*
X167778788Y-139806612D01*
X167779413Y-139806768D01*
X167793082Y-139809407D01*
X167808037Y-139810598D01*
X167823185Y-139810329D01*
X167837431Y-139808589D01*
X167842858Y-139807424D01*
X167861876Y-139801270D01*
X167879678Y-139792638D01*
X167896067Y-139781728D01*
X167910843Y-139768744D01*
X167923807Y-139753885D01*
X167934760Y-139737354D01*
X167943503Y-139719353D01*
X167949838Y-139700082D01*
X167950167Y-139698765D01*
X167952146Y-139687801D01*
X167953190Y-139675465D01*
X167953300Y-139662728D01*
X167952473Y-139650559D01*
X167950708Y-139639931D01*
X167950234Y-139638042D01*
X167946832Y-139626525D01*
X167943163Y-139616667D01*
X167938738Y-139607268D01*
X167934562Y-139599683D01*
X167933400Y-139598041D01*
X167930743Y-139594551D01*
X167926581Y-139589202D01*
X167920905Y-139581981D01*
X167913706Y-139572878D01*
X167904974Y-139561881D01*
X167894700Y-139548978D01*
X167882874Y-139534157D01*
X167869488Y-139517407D01*
X167854532Y-139498717D01*
X167837997Y-139478074D01*
X167819872Y-139455468D01*
X167800150Y-139430885D01*
X167778820Y-139404316D01*
X167755874Y-139375748D01*
X167731301Y-139345169D01*
X167705094Y-139312568D01*
X167677241Y-139277934D01*
X167647734Y-139241255D01*
X167616564Y-139202518D01*
X167583721Y-139161713D01*
X167549196Y-139118828D01*
X167512979Y-139073852D01*
X167475062Y-139026772D01*
X167435435Y-138977577D01*
X167394088Y-138926255D01*
X167351012Y-138872796D01*
X167306198Y-138817186D01*
X167259637Y-138759415D01*
X167211319Y-138699471D01*
X167161234Y-138637343D01*
X167109375Y-138573018D01*
X167055730Y-138506485D01*
X167011105Y-138451143D01*
X166970435Y-138400708D01*
X166930172Y-138350778D01*
X166890356Y-138301400D01*
X166851023Y-138252623D01*
X166812213Y-138204495D01*
X166773965Y-138157063D01*
X166736318Y-138110376D01*
X166699309Y-138064481D01*
X166662978Y-138019426D01*
X166627363Y-137975260D01*
X166592504Y-137932029D01*
X166558437Y-137889783D01*
X166525203Y-137848569D01*
X166492840Y-137808435D01*
X166461387Y-137769429D01*
X166430881Y-137731598D01*
X166401362Y-137694991D01*
X166372869Y-137659656D01*
X166345440Y-137625641D01*
X166319114Y-137592993D01*
X166293929Y-137561761D01*
X166269924Y-137531992D01*
X166247138Y-137503734D01*
X166225609Y-137477036D01*
X166205377Y-137451945D01*
X166186479Y-137428509D01*
X166168954Y-137406776D01*
X166152841Y-137386794D01*
X166138179Y-137368611D01*
X166125007Y-137352275D01*
X166113362Y-137337834D01*
X166103283Y-137325335D01*
X166094810Y-137314827D01*
X166087981Y-137306358D01*
X166082835Y-137299975D01*
X166079409Y-137295727D01*
X166077743Y-137293661D01*
X166077732Y-137293647D01*
X166068129Y-137281262D01*
X166057722Y-137267014D01*
X166046988Y-137251607D01*
X166036402Y-137235744D01*
X166026440Y-137220128D01*
X166017578Y-137205461D01*
X166014721Y-137200502D01*
X165994211Y-137161985D01*
X165975025Y-137121178D01*
X165957246Y-137078373D01*
X165940957Y-137033861D01*
X165926240Y-136987937D01*
X165913180Y-136940891D01*
X165901857Y-136893017D01*
X165892356Y-136844606D01*
X165884758Y-136795952D01*
X165879147Y-136747347D01*
X165876340Y-136711847D01*
X165876037Y-136705280D01*
X165875777Y-136695851D01*
X165875561Y-136683566D01*
X165875389Y-136668427D01*
X165875260Y-136650441D01*
X165875174Y-136629611D01*
X165875133Y-136605941D01*
X165875135Y-136579436D01*
X165875181Y-136550100D01*
X165875244Y-136526273D01*
X165875321Y-136501405D01*
X165875392Y-136479231D01*
X165875463Y-136459578D01*
X165875536Y-136442274D01*
X165875615Y-136427147D01*
X165875703Y-136414025D01*
X165875805Y-136402734D01*
X165875923Y-136393103D01*
X165876062Y-136384959D01*
X165876225Y-136378131D01*
X165876416Y-136372445D01*
X165876639Y-136367730D01*
X165876896Y-136363813D01*
X165877193Y-136360521D01*
X165877531Y-136357684D01*
X165877916Y-136355127D01*
X165878350Y-136352679D01*
X165878838Y-136350168D01*
X165878975Y-136349473D01*
X165885412Y-136323279D01*
X165893914Y-136299070D01*
X165904479Y-136276849D01*
X165917109Y-136256614D01*
X165931802Y-136238369D01*
X165948558Y-136222112D01*
X165967375Y-136207846D01*
X165988254Y-136195570D01*
X165989984Y-136194689D01*
X166012455Y-136184917D01*
X166036423Y-136177431D01*
X166061587Y-136172287D01*
X166087645Y-136169539D01*
X166114295Y-136169241D01*
X166126107Y-136169899D01*
G37*
G36*
X149426296Y-135546963D02*
G01*
X149469816Y-135546967D01*
X149511273Y-135546973D01*
X149550718Y-135546981D01*
X149588202Y-135546991D01*
X149623775Y-135547004D01*
X149657487Y-135547019D01*
X149689388Y-135547037D01*
X149719528Y-135547057D01*
X149747958Y-135547080D01*
X149774728Y-135547105D01*
X149799889Y-135547134D01*
X149823489Y-135547165D01*
X149845581Y-135547198D01*
X149866213Y-135547235D01*
X149885437Y-135547275D01*
X149903302Y-135547317D01*
X149919858Y-135547363D01*
X149935157Y-135547412D01*
X149949248Y-135547464D01*
X149962181Y-135547520D01*
X149974007Y-135547579D01*
X149984776Y-135547641D01*
X149994538Y-135547706D01*
X150003344Y-135547776D01*
X150011243Y-135547848D01*
X150018286Y-135547925D01*
X150024523Y-135548005D01*
X150030005Y-135548089D01*
X150034781Y-135548176D01*
X150038903Y-135548268D01*
X150042419Y-135548363D01*
X150045381Y-135548463D01*
X150047839Y-135548567D01*
X150049843Y-135548674D01*
X150051442Y-135548786D01*
X150052688Y-135548903D01*
X150053631Y-135549023D01*
X150053799Y-135549050D01*
X150075636Y-135554065D01*
X150096598Y-135561749D01*
X150116446Y-135571979D01*
X150134939Y-135584628D01*
X150151839Y-135599572D01*
X150153193Y-135600943D01*
X150167690Y-135617815D01*
X150180057Y-135636559D01*
X150190237Y-135657064D01*
X150198172Y-135679222D01*
X150201776Y-135693017D01*
X150201970Y-135693997D01*
X150202155Y-135695235D01*
X150202329Y-135696809D01*
X150202493Y-135698798D01*
X150202649Y-135701280D01*
X150202795Y-135704335D01*
X150202933Y-135708042D01*
X150203062Y-135712478D01*
X150203184Y-135717723D01*
X150203298Y-135723857D01*
X150203405Y-135730956D01*
X150203505Y-135739101D01*
X150203599Y-135748370D01*
X150203686Y-135758842D01*
X150203768Y-135770595D01*
X150203844Y-135783709D01*
X150203916Y-135798262D01*
X150203982Y-135814333D01*
X150204044Y-135832001D01*
X150204102Y-135851345D01*
X150204157Y-135872443D01*
X150204208Y-135895374D01*
X150204256Y-135920218D01*
X150204302Y-135947052D01*
X150204345Y-135975956D01*
X150204386Y-136007008D01*
X150204426Y-136040288D01*
X150204465Y-136075873D01*
X150204502Y-136113843D01*
X150204540Y-136154277D01*
X150204577Y-136197253D01*
X150204614Y-136242851D01*
X150204652Y-136291148D01*
X150204690Y-136342224D01*
X150204695Y-136347864D01*
X150204734Y-136403617D01*
X150204767Y-136456551D01*
X150204793Y-136506715D01*
X150204812Y-136554157D01*
X150204825Y-136598925D01*
X150204830Y-136641067D01*
X150204829Y-136680631D01*
X150204820Y-136717664D01*
X150204804Y-136752215D01*
X150204781Y-136784331D01*
X150204751Y-136814062D01*
X150204713Y-136841453D01*
X150204668Y-136866554D01*
X150204615Y-136889413D01*
X150204555Y-136910077D01*
X150204487Y-136928595D01*
X150204410Y-136945013D01*
X150204326Y-136959381D01*
X150204234Y-136971747D01*
X150204134Y-136982157D01*
X150204026Y-136990661D01*
X150203910Y-136997306D01*
X150203785Y-137002140D01*
X150203652Y-137005211D01*
X150203574Y-137006174D01*
X150200283Y-137025621D01*
X150194896Y-137043471D01*
X150187216Y-137060273D01*
X150179861Y-137072475D01*
X150167442Y-137088597D01*
X150153015Y-137102736D01*
X150136737Y-137114786D01*
X150118765Y-137124645D01*
X150099256Y-137132208D01*
X150083960Y-137136257D01*
X150078742Y-137137019D01*
X150071400Y-137137588D01*
X150062675Y-137137918D01*
X150054584Y-137137980D01*
X150038233Y-137137237D01*
X150023686Y-137135129D01*
X150010145Y-137131495D01*
X149997247Y-137126372D01*
X149995478Y-137125465D01*
X149991249Y-137123241D01*
X149984628Y-137119736D01*
X149975682Y-137114986D01*
X149964477Y-137109027D01*
X149951082Y-137101894D01*
X149935563Y-137093624D01*
X149917988Y-137084253D01*
X149898424Y-137073816D01*
X149876937Y-137062348D01*
X149853596Y-137049888D01*
X149828466Y-137036469D01*
X149801616Y-137022127D01*
X149773112Y-137006900D01*
X149743023Y-136990822D01*
X149711414Y-136973930D01*
X149678353Y-136956260D01*
X149643907Y-136937846D01*
X149608143Y-136918726D01*
X149571129Y-136898935D01*
X149532932Y-136878509D01*
X149493619Y-136857484D01*
X149453256Y-136835896D01*
X149411912Y-136813780D01*
X149369653Y-136791173D01*
X149326547Y-136768110D01*
X149282660Y-136744628D01*
X149238060Y-136720762D01*
X149192815Y-136696548D01*
X149162539Y-136680344D01*
X149116908Y-136655924D01*
X149071881Y-136631831D01*
X149027524Y-136608100D01*
X148983904Y-136584768D01*
X148941088Y-136561870D01*
X148899144Y-136539442D01*
X148858139Y-136517521D01*
X148818139Y-136496141D01*
X148779212Y-136475338D01*
X148741424Y-136455149D01*
X148704844Y-136435609D01*
X148669538Y-136416753D01*
X148635573Y-136398619D01*
X148603016Y-136381241D01*
X148571935Y-136364655D01*
X148542396Y-136348898D01*
X148514466Y-136334004D01*
X148488213Y-136320010D01*
X148463704Y-136306952D01*
X148441006Y-136294865D01*
X148420186Y-136283785D01*
X148401310Y-136273748D01*
X148384447Y-136264789D01*
X148369663Y-136256946D01*
X148357026Y-136250252D01*
X148346601Y-136244745D01*
X148338458Y-136240459D01*
X148332662Y-136237432D01*
X148329280Y-136235698D01*
X148328401Y-136235278D01*
X148308822Y-136229372D01*
X148288981Y-136226230D01*
X148269127Y-136225819D01*
X148249511Y-136228101D01*
X148230382Y-136233042D01*
X148211991Y-136240607D01*
X148194588Y-136250761D01*
X148188713Y-136254967D01*
X148172853Y-136268632D01*
X148159342Y-136283916D01*
X148148241Y-136300712D01*
X148139609Y-136318913D01*
X148133507Y-136338413D01*
X148130048Y-136358612D01*
X148129977Y-136360703D01*
X148129909Y-136365591D01*
X148129842Y-136373208D01*
X148129777Y-136383485D01*
X148129713Y-136396353D01*
X148129652Y-136411742D01*
X148129592Y-136429586D01*
X148129534Y-136449813D01*
X148129478Y-136472357D01*
X148129423Y-136497147D01*
X148129371Y-136524116D01*
X148129320Y-136553194D01*
X148129270Y-136584313D01*
X148129223Y-136617404D01*
X148129177Y-136652398D01*
X148129133Y-136689227D01*
X148129091Y-136727821D01*
X148129050Y-136768112D01*
X148129012Y-136810031D01*
X148128974Y-136853509D01*
X148128939Y-136898478D01*
X148128906Y-136944868D01*
X148128874Y-136992612D01*
X148128844Y-137041640D01*
X148128815Y-137091883D01*
X148128789Y-137143273D01*
X148128764Y-137195740D01*
X148128741Y-137249217D01*
X148128719Y-137303634D01*
X148128700Y-137358923D01*
X148128682Y-137415014D01*
X148128665Y-137471839D01*
X148128651Y-137529330D01*
X148128638Y-137587417D01*
X148128627Y-137646032D01*
X148128618Y-137705106D01*
X148128610Y-137764569D01*
X148128604Y-137824355D01*
X148128600Y-137884392D01*
X148128598Y-137944614D01*
X148128597Y-138004950D01*
X148128598Y-138065333D01*
X148128600Y-138125693D01*
X148128605Y-138185962D01*
X148128611Y-138246071D01*
X148128618Y-138305951D01*
X148128628Y-138365534D01*
X148128639Y-138424750D01*
X148128652Y-138483531D01*
X148128667Y-138541808D01*
X148128683Y-138599512D01*
X148128701Y-138656575D01*
X148128720Y-138712927D01*
X148128742Y-138768501D01*
X148128765Y-138823226D01*
X148128790Y-138877036D01*
X148128816Y-138929859D01*
X148128844Y-138981629D01*
X148128874Y-139032275D01*
X148128905Y-139081730D01*
X148128939Y-139129925D01*
X148128973Y-139176790D01*
X148129010Y-139222257D01*
X148129048Y-139266258D01*
X148129088Y-139308723D01*
X148129130Y-139349583D01*
X148129173Y-139388771D01*
X148129218Y-139426217D01*
X148129265Y-139461852D01*
X148129313Y-139495607D01*
X148129363Y-139527414D01*
X148129414Y-139557205D01*
X148129468Y-139584909D01*
X148129523Y-139610459D01*
X148129579Y-139633786D01*
X148129638Y-139654821D01*
X148129697Y-139673495D01*
X148129759Y-139689739D01*
X148129822Y-139703485D01*
X148129887Y-139714663D01*
X148129954Y-139723206D01*
X148130022Y-139729044D01*
X148130092Y-139732108D01*
X148130116Y-139732504D01*
X148133587Y-139752832D01*
X148139631Y-139772081D01*
X148148098Y-139790069D01*
X148158840Y-139806613D01*
X148171705Y-139821532D01*
X148186547Y-139834643D01*
X148203214Y-139845764D01*
X148221558Y-139854714D01*
X148234011Y-139859187D01*
X148253673Y-139863904D01*
X148273296Y-139865754D01*
X148292877Y-139864739D01*
X148312414Y-139860860D01*
X148331903Y-139854116D01*
X148342860Y-139849054D01*
X148344751Y-139848059D01*
X148349099Y-139845743D01*
X148355837Y-139842143D01*
X148364895Y-139837294D01*
X148376208Y-139831234D01*
X148389706Y-139823998D01*
X148405324Y-139815623D01*
X148422992Y-139806144D01*
X148442644Y-139795599D01*
X148464212Y-139784024D01*
X148487628Y-139771455D01*
X148512824Y-139757928D01*
X148539734Y-139743480D01*
X148568288Y-139728146D01*
X148598421Y-139711964D01*
X148630064Y-139694969D01*
X148663149Y-139677199D01*
X148697609Y-139658688D01*
X148733377Y-139639474D01*
X148770384Y-139619592D01*
X148808563Y-139599080D01*
X148847847Y-139577973D01*
X148888168Y-139556308D01*
X148929458Y-139534121D01*
X148971649Y-139511448D01*
X149014675Y-139488326D01*
X149058467Y-139464791D01*
X149102957Y-139440879D01*
X149148079Y-139416626D01*
X149172570Y-139403463D01*
X149217995Y-139379048D01*
X149262823Y-139354958D01*
X149306988Y-139331230D01*
X149350420Y-139307898D01*
X149393053Y-139285000D01*
X149434819Y-139262572D01*
X149475650Y-139240649D01*
X149515480Y-139219268D01*
X149554240Y-139198466D01*
X149591863Y-139178277D01*
X149628282Y-139158740D01*
X149663428Y-139139889D01*
X149697236Y-139121761D01*
X149729635Y-139104391D01*
X149760561Y-139087818D01*
X149789944Y-139072075D01*
X149817717Y-139057201D01*
X149843814Y-139043230D01*
X149868165Y-139030199D01*
X149890705Y-139018144D01*
X149911365Y-139007101D01*
X149930077Y-138997108D01*
X149946775Y-138988198D01*
X149961390Y-138980410D01*
X149973855Y-138973779D01*
X149984103Y-138968341D01*
X149992067Y-138964133D01*
X149997677Y-138961190D01*
X150000868Y-138959549D01*
X150001563Y-138959217D01*
X150012105Y-138955280D01*
X150022166Y-138952490D01*
X150032582Y-138950700D01*
X150044193Y-138949761D01*
X150056733Y-138949524D01*
X150066119Y-138949622D01*
X150073441Y-138949931D01*
X150079499Y-138950528D01*
X150085092Y-138951493D01*
X150091019Y-138952904D01*
X150091029Y-138952906D01*
X150111268Y-138959588D01*
X150129947Y-138968627D01*
X150146960Y-138979946D01*
X150162202Y-138993471D01*
X150175564Y-139009127D01*
X150180527Y-139016223D01*
X150188350Y-139029573D01*
X150194680Y-139043803D01*
X150199874Y-139059751D01*
X150201150Y-139064543D01*
X150204333Y-139077021D01*
X150204333Y-139730471D01*
X150204332Y-139782130D01*
X150204331Y-139831002D01*
X150204329Y-139877166D01*
X150204325Y-139920701D01*
X150204320Y-139961685D01*
X150204312Y-140000197D01*
X150204302Y-140036317D01*
X150204289Y-140070122D01*
X150204274Y-140101693D01*
X150204255Y-140131108D01*
X150204232Y-140158445D01*
X150204206Y-140183784D01*
X150204175Y-140207203D01*
X150204140Y-140228782D01*
X150204100Y-140248599D01*
X150204054Y-140266734D01*
X150204004Y-140283264D01*
X150203947Y-140298269D01*
X150203884Y-140311828D01*
X150203816Y-140324019D01*
X150203740Y-140334922D01*
X150203657Y-140344615D01*
X150203567Y-140353178D01*
X150203470Y-140360689D01*
X150203364Y-140367226D01*
X150203251Y-140372870D01*
X150203128Y-140377698D01*
X150202997Y-140381790D01*
X150202857Y-140385225D01*
X150202707Y-140388080D01*
X150202548Y-140390437D01*
X150202378Y-140392372D01*
X150202198Y-140393965D01*
X150202008Y-140395295D01*
X150201806Y-140396441D01*
X150201732Y-140396818D01*
X150195752Y-140419587D01*
X150187303Y-140440962D01*
X150176444Y-140460846D01*
X150163236Y-140479145D01*
X150147737Y-140495761D01*
X150131434Y-140509536D01*
X150123459Y-140514962D01*
X150113732Y-140520678D01*
X150103079Y-140526272D01*
X150092326Y-140531331D01*
X150082297Y-140535441D01*
X150074646Y-140537967D01*
X150073385Y-140538338D01*
X150072302Y-140538696D01*
X150071348Y-140539041D01*
X150070472Y-140539373D01*
X150069622Y-140539694D01*
X150068748Y-140540002D01*
X150067799Y-140540299D01*
X150066725Y-140540584D01*
X150065474Y-140540857D01*
X150063996Y-140541119D01*
X150062240Y-140541370D01*
X150060155Y-140541611D01*
X150057691Y-140541841D01*
X150054796Y-140542061D01*
X150051420Y-140542270D01*
X150047512Y-140542470D01*
X150043022Y-140542660D01*
X150037898Y-140542841D01*
X150032090Y-140543013D01*
X150025547Y-140543175D01*
X150018219Y-140543329D01*
X150010053Y-140543475D01*
X150001001Y-140543612D01*
X149991010Y-140543741D01*
X149980030Y-140543862D01*
X149968011Y-140543975D01*
X149954901Y-140544082D01*
X149940650Y-140544181D01*
X149925207Y-140544273D01*
X149908521Y-140544358D01*
X149890542Y-140544437D01*
X149871218Y-140544509D01*
X149850500Y-140544576D01*
X149828335Y-140544636D01*
X149804674Y-140544691D01*
X149779465Y-140544741D01*
X149752658Y-140544785D01*
X149724202Y-140544825D01*
X149694046Y-140544860D01*
X149662140Y-140544890D01*
X149628432Y-140544916D01*
X149592873Y-140544938D01*
X149555410Y-140544956D01*
X149515994Y-140544971D01*
X149474573Y-140544982D01*
X149431097Y-140544990D01*
X149385515Y-140544995D01*
X149337776Y-140544998D01*
X149287830Y-140544998D01*
X149235625Y-140544995D01*
X149181111Y-140544991D01*
X149124238Y-140544985D01*
X149064953Y-140544977D01*
X149003207Y-140544968D01*
X148938949Y-140544957D01*
X148872128Y-140544946D01*
X148802694Y-140544934D01*
X148730594Y-140544922D01*
X148655779Y-140544909D01*
X148578198Y-140544896D01*
X148500491Y-140544884D01*
X148434157Y-140544874D01*
X148368510Y-140544862D01*
X148303607Y-140544850D01*
X148239507Y-140544838D01*
X148176269Y-140544824D01*
X148113953Y-140544810D01*
X148052617Y-140544795D01*
X147992319Y-140544780D01*
X147933120Y-140544764D01*
X147875077Y-140544748D01*
X147818250Y-140544731D01*
X147762697Y-140544713D01*
X147708477Y-140544695D01*
X147655650Y-140544677D01*
X147604274Y-140544658D01*
X147554408Y-140544639D01*
X147506111Y-140544619D01*
X147459442Y-140544599D01*
X147414460Y-140544579D01*
X147371223Y-140544558D01*
X147329790Y-140544537D01*
X147290221Y-140544516D01*
X147252574Y-140544495D01*
X147216909Y-140544474D01*
X147183283Y-140544452D01*
X147151756Y-140544430D01*
X147122387Y-140544409D01*
X147095235Y-140544387D01*
X147070358Y-140544365D01*
X147047816Y-140544343D01*
X147027667Y-140544321D01*
X147009970Y-140544299D01*
X146994785Y-140544277D01*
X146982170Y-140544256D01*
X146972183Y-140544234D01*
X146964884Y-140544213D01*
X146960332Y-140544192D01*
X146958586Y-140544171D01*
X146958578Y-140544170D01*
X146925208Y-140539991D01*
X146892887Y-140533165D01*
X146861671Y-140523713D01*
X146831613Y-140511660D01*
X146802771Y-140497029D01*
X146775198Y-140479843D01*
X146748952Y-140460125D01*
X146740045Y-140452591D01*
X146736738Y-140449571D01*
X146731599Y-140444688D01*
X146724754Y-140438070D01*
X146716331Y-140429846D01*
X146706458Y-140420145D01*
X146695263Y-140409094D01*
X146682873Y-140396822D01*
X146669416Y-140383458D01*
X146655021Y-140369130D01*
X146639814Y-140353965D01*
X146623923Y-140338094D01*
X146607476Y-140321644D01*
X146590601Y-140304743D01*
X146573426Y-140287519D01*
X146556078Y-140270102D01*
X146538684Y-140252620D01*
X146521374Y-140235201D01*
X146504273Y-140217973D01*
X146487511Y-140201065D01*
X146471215Y-140184605D01*
X146455512Y-140168721D01*
X146440530Y-140153543D01*
X146426397Y-140139198D01*
X146413241Y-140125815D01*
X146401189Y-140113521D01*
X146390370Y-140102447D01*
X146380910Y-140092719D01*
X146372938Y-140084467D01*
X146366581Y-140077818D01*
X146361967Y-140072901D01*
X146359224Y-140069845D01*
X146358837Y-140069376D01*
X146339526Y-140042901D01*
X146322735Y-140015158D01*
X146308435Y-139986083D01*
X146296600Y-139955611D01*
X146287202Y-139923679D01*
X146280213Y-139890222D01*
X146279063Y-139883086D01*
X146278941Y-139882206D01*
X146278824Y-139881149D01*
X146278710Y-139879866D01*
X146278600Y-139878311D01*
X146278493Y-139876437D01*
X146278391Y-139874197D01*
X146278291Y-139871544D01*
X146278195Y-139868431D01*
X146278103Y-139864812D01*
X146278014Y-139860639D01*
X146277928Y-139855866D01*
X146277845Y-139850446D01*
X146277765Y-139844332D01*
X146277688Y-139837476D01*
X146277614Y-139829833D01*
X146277543Y-139821355D01*
X146277475Y-139811995D01*
X146277409Y-139801707D01*
X146277346Y-139790443D01*
X146277285Y-139778156D01*
X146277227Y-139764801D01*
X146277171Y-139750329D01*
X146277118Y-139734694D01*
X146277066Y-139717849D01*
X146277017Y-139699748D01*
X146276970Y-139680342D01*
X146276925Y-139659587D01*
X146276881Y-139637433D01*
X146276840Y-139613836D01*
X146276800Y-139588746D01*
X146276762Y-139562119D01*
X146276726Y-139533907D01*
X146276691Y-139504063D01*
X146276657Y-139472540D01*
X146276625Y-139439291D01*
X146276594Y-139404270D01*
X146276565Y-139367429D01*
X146276536Y-139328722D01*
X146276509Y-139288102D01*
X146276482Y-139245521D01*
X146276457Y-139200933D01*
X146276432Y-139154292D01*
X146276408Y-139105549D01*
X146276384Y-139054659D01*
X146276362Y-139001574D01*
X146276339Y-138946248D01*
X146276318Y-138888633D01*
X146276296Y-138828683D01*
X146276275Y-138766351D01*
X146276254Y-138701590D01*
X146276233Y-138634353D01*
X146276213Y-138564593D01*
X146276192Y-138492263D01*
X146276171Y-138417317D01*
X146276150Y-138339707D01*
X146276128Y-138259387D01*
X146276107Y-138176310D01*
X146276085Y-138090428D01*
X146276078Y-138062454D01*
X146276054Y-137964773D01*
X146276033Y-137869945D01*
X146276014Y-137777954D01*
X146275998Y-137688786D01*
X146275985Y-137602427D01*
X146275975Y-137518862D01*
X146275968Y-137438079D01*
X146275963Y-137360061D01*
X146275961Y-137284795D01*
X146275962Y-137212267D01*
X146275965Y-137142463D01*
X146275972Y-137075367D01*
X146275981Y-137010967D01*
X146275993Y-136949247D01*
X146276008Y-136890193D01*
X146276025Y-136833792D01*
X146276046Y-136780028D01*
X146276069Y-136728888D01*
X146276095Y-136680358D01*
X146276124Y-136634422D01*
X146276156Y-136591068D01*
X146276191Y-136550279D01*
X146276229Y-136512044D01*
X146276269Y-136476346D01*
X146276313Y-136443172D01*
X146276359Y-136412507D01*
X146276408Y-136384338D01*
X146276460Y-136358650D01*
X146276515Y-136335428D01*
X146276573Y-136314659D01*
X146276634Y-136296329D01*
X146276698Y-136280422D01*
X146276765Y-136266925D01*
X146276835Y-136255823D01*
X146276908Y-136247103D01*
X146276984Y-136240749D01*
X146277062Y-136236748D01*
X146277117Y-136235373D01*
X146280593Y-136201975D01*
X146286589Y-136169911D01*
X146295142Y-136139085D01*
X146306288Y-136109402D01*
X146320063Y-136080765D01*
X146336505Y-136053079D01*
X146355650Y-136026246D01*
X146357864Y-136023417D01*
X146360599Y-136020238D01*
X146365354Y-136015066D01*
X146372111Y-136007922D01*
X146380851Y-135998825D01*
X146391552Y-135987795D01*
X146404197Y-135974852D01*
X146418766Y-135960015D01*
X146435239Y-135943305D01*
X146453596Y-135924742D01*
X146473819Y-135904345D01*
X146495887Y-135882133D01*
X146519781Y-135858128D01*
X146545482Y-135832349D01*
X146546420Y-135831409D01*
X146565389Y-135812402D01*
X146583922Y-135793839D01*
X146601910Y-135775831D01*
X146619240Y-135758491D01*
X146635801Y-135741928D01*
X146651483Y-135726254D01*
X146666172Y-135711580D01*
X146679759Y-135698018D01*
X146692132Y-135685678D01*
X146703179Y-135674671D01*
X146712789Y-135665110D01*
X146720850Y-135657104D01*
X146727252Y-135650765D01*
X146731883Y-135646205D01*
X146734632Y-135643534D01*
X146735029Y-135643158D01*
X146754419Y-135626605D01*
X146776044Y-135610929D01*
X146799325Y-135596473D01*
X146823682Y-135583584D01*
X146848533Y-135572608D01*
X146861850Y-135567633D01*
X146880715Y-135561647D01*
X146901246Y-135556201D01*
X146922254Y-135551604D01*
X146926974Y-135550710D01*
X146944248Y-135547534D01*
X148491893Y-135547123D01*
X148572372Y-135547102D01*
X148650036Y-135547082D01*
X148724935Y-135547063D01*
X148797118Y-135547046D01*
X148866636Y-135547030D01*
X148933539Y-135547016D01*
X148997878Y-135547003D01*
X149059703Y-135546992D01*
X149119063Y-135546982D01*
X149176010Y-135546974D01*
X149230593Y-135546968D01*
X149282863Y-135546964D01*
X149332870Y-135546962D01*
X149380664Y-135546961D01*
X149426296Y-135546963D01*
G37*
G36*
X142182708Y-135545325D02*
G01*
X142224112Y-135545331D01*
X142265251Y-135545342D01*
X142306023Y-135545357D01*
X142346328Y-135545376D01*
X142386063Y-135545398D01*
X142425129Y-135545425D01*
X142463425Y-135545455D01*
X142500848Y-135545489D01*
X142537299Y-135545527D01*
X142572676Y-135545569D01*
X142606878Y-135545616D01*
X142639805Y-135545666D01*
X142671355Y-135545719D01*
X142701427Y-135545777D01*
X142729920Y-135545839D01*
X142756734Y-135545905D01*
X142781767Y-135545975D01*
X142804918Y-135546048D01*
X142826086Y-135546126D01*
X142845171Y-135546207D01*
X142862070Y-135546293D01*
X142876684Y-135546382D01*
X142888911Y-135546476D01*
X142898650Y-135546573D01*
X142905800Y-135546675D01*
X142910261Y-135546780D01*
X142911774Y-135546861D01*
X142932070Y-135550541D01*
X142951321Y-135556854D01*
X142969388Y-135565747D01*
X142983724Y-135575302D01*
X142999075Y-135588656D01*
X143012197Y-135603808D01*
X143023078Y-135620739D01*
X143031705Y-135639434D01*
X143036802Y-135655007D01*
X143040745Y-135669337D01*
X143041461Y-136889540D01*
X143042178Y-138109743D01*
X143046175Y-138122640D01*
X143052090Y-138139253D01*
X143059034Y-138153788D01*
X143067445Y-138166971D01*
X143077761Y-138179529D01*
X143085109Y-138187125D01*
X143100512Y-138200333D01*
X143117302Y-138211047D01*
X143135539Y-138219300D01*
X143155281Y-138225121D01*
X143158839Y-138225881D01*
X143170525Y-138227453D01*
X143183742Y-138227927D01*
X143197442Y-138227346D01*
X143210573Y-138225760D01*
X143222086Y-138223212D01*
X143222555Y-138223074D01*
X143224950Y-138222151D01*
X143229786Y-138220099D01*
X143236905Y-138216992D01*
X143246146Y-138212903D01*
X143257350Y-138207904D01*
X143270357Y-138202070D01*
X143285007Y-138195473D01*
X143301140Y-138188185D01*
X143318596Y-138180281D01*
X143337216Y-138171834D01*
X143356839Y-138162916D01*
X143377307Y-138153601D01*
X143398459Y-138143961D01*
X143420135Y-138134071D01*
X143442175Y-138124002D01*
X143464420Y-138113829D01*
X143486710Y-138103624D01*
X143508885Y-138093460D01*
X143530785Y-138083411D01*
X143552250Y-138073549D01*
X143573121Y-138063948D01*
X143593237Y-138054681D01*
X143612440Y-138045821D01*
X143630569Y-138037441D01*
X143647464Y-138029614D01*
X143662965Y-138022414D01*
X143676913Y-138015913D01*
X143689148Y-138010185D01*
X143699509Y-138005302D01*
X143707838Y-138001338D01*
X143713975Y-137998366D01*
X143716926Y-137996892D01*
X143742220Y-137982354D01*
X143766238Y-137965365D01*
X143788781Y-137946129D01*
X143809648Y-137924852D01*
X143828639Y-137901739D01*
X143845555Y-137876994D01*
X143860196Y-137850824D01*
X143861134Y-137848936D01*
X143870242Y-137828966D01*
X143877889Y-137808796D01*
X143884329Y-137787650D01*
X143889817Y-137764751D01*
X143891555Y-137756201D01*
X143894710Y-137740028D01*
X143895479Y-136704682D01*
X143896248Y-135669337D01*
X143900188Y-135655007D01*
X143906938Y-135635555D01*
X143916002Y-135617571D01*
X143927202Y-135601224D01*
X143940362Y-135586681D01*
X143955304Y-135574112D01*
X143971851Y-135563684D01*
X143989827Y-135555567D01*
X144009053Y-135549928D01*
X144011127Y-135549488D01*
X144012122Y-135549296D01*
X144013224Y-135549113D01*
X144014506Y-135548940D01*
X144016039Y-135548775D01*
X144017892Y-135548619D01*
X144020137Y-135548472D01*
X144022845Y-135548334D01*
X144026088Y-135548203D01*
X144029936Y-135548081D01*
X144034459Y-135547967D01*
X144039730Y-135547860D01*
X144045819Y-135547760D01*
X144052798Y-135547668D01*
X144060736Y-135547583D01*
X144069706Y-135547504D01*
X144079778Y-135547433D01*
X144091023Y-135547367D01*
X144103512Y-135547308D01*
X144117317Y-135547255D01*
X144132508Y-135547208D01*
X144149156Y-135547166D01*
X144167333Y-135547129D01*
X144187108Y-135547098D01*
X144208554Y-135547072D01*
X144231742Y-135547051D01*
X144256741Y-135547034D01*
X144283624Y-135547022D01*
X144312462Y-135547014D01*
X144343325Y-135547009D01*
X144376284Y-135547009D01*
X144411410Y-135547012D01*
X144448775Y-135547019D01*
X144488450Y-135547028D01*
X144530504Y-135547041D01*
X144575011Y-135547057D01*
X144622039Y-135547075D01*
X144671661Y-135547095D01*
X144723948Y-135547118D01*
X144778970Y-135547142D01*
X144827242Y-135547164D01*
X145630183Y-135547531D01*
X145642771Y-135551480D01*
X145649781Y-135553830D01*
X145657031Y-135556504D01*
X145663175Y-135559001D01*
X145664266Y-135559486D01*
X145681329Y-135568802D01*
X145696920Y-135580408D01*
X145710831Y-135594021D01*
X145722854Y-135609360D01*
X145732780Y-135626141D01*
X145740403Y-135644084D01*
X145745513Y-135662905D01*
X145746949Y-135671680D01*
X145747065Y-135673538D01*
X145747174Y-135677317D01*
X145747277Y-135683052D01*
X145747375Y-135690777D01*
X145747466Y-135700527D01*
X145747552Y-135712336D01*
X145747631Y-135726240D01*
X145747705Y-135742272D01*
X145747774Y-135760469D01*
X145747836Y-135780863D01*
X145747893Y-135803490D01*
X145747944Y-135828386D01*
X145747990Y-135855583D01*
X145748030Y-135885118D01*
X145748065Y-135917024D01*
X145748094Y-135951336D01*
X145748118Y-135988090D01*
X145748137Y-136027319D01*
X145748150Y-136069058D01*
X145748158Y-136113343D01*
X145748161Y-136160207D01*
X145748158Y-136209686D01*
X145748150Y-136261814D01*
X145748138Y-136316625D01*
X145748120Y-136374155D01*
X145748097Y-136434439D01*
X145748069Y-136497509D01*
X145748036Y-136563403D01*
X145748027Y-136580727D01*
X145747995Y-136641772D01*
X145747965Y-136700018D01*
X145747938Y-136755535D01*
X145747912Y-136808392D01*
X145747888Y-136858655D01*
X145747863Y-136906394D01*
X145747838Y-136951678D01*
X145747813Y-136994574D01*
X145747786Y-137035150D01*
X145747757Y-137073475D01*
X145747725Y-137109618D01*
X145747690Y-137143647D01*
X145747651Y-137175630D01*
X145747608Y-137205635D01*
X145747560Y-137233731D01*
X145747507Y-137259986D01*
X145747447Y-137284468D01*
X145747380Y-137307247D01*
X145747307Y-137328389D01*
X145747225Y-137347964D01*
X145747135Y-137366039D01*
X145747035Y-137382684D01*
X145746926Y-137397967D01*
X145746807Y-137411955D01*
X145746677Y-137424717D01*
X145746535Y-137436322D01*
X145746381Y-137446838D01*
X145746215Y-137456332D01*
X145746035Y-137464875D01*
X145745842Y-137472533D01*
X145745634Y-137479376D01*
X145745412Y-137485471D01*
X145745173Y-137490887D01*
X145744919Y-137495692D01*
X145744647Y-137499955D01*
X145744359Y-137503743D01*
X145744052Y-137507126D01*
X145743727Y-137510172D01*
X145743383Y-137512948D01*
X145743019Y-137515524D01*
X145742634Y-137517968D01*
X145742229Y-137520347D01*
X145741803Y-137522731D01*
X145741354Y-137525187D01*
X145740883Y-137527784D01*
X145740388Y-137530591D01*
X145739870Y-137533675D01*
X145739803Y-137534084D01*
X145731565Y-137576013D01*
X145720620Y-137617104D01*
X145707035Y-137657244D01*
X145690876Y-137696320D01*
X145672210Y-137734218D01*
X145651103Y-137770826D01*
X145627621Y-137806029D01*
X145601832Y-137839716D01*
X145573800Y-137871773D01*
X145543593Y-137902087D01*
X145511277Y-137930544D01*
X145503574Y-137936798D01*
X145495948Y-137942663D01*
X145486493Y-137949576D01*
X145475782Y-137957145D01*
X145464390Y-137964982D01*
X145452891Y-137972696D01*
X145441860Y-137979900D01*
X145431871Y-137986203D01*
X145423498Y-137991216D01*
X145422398Y-137991843D01*
X145419446Y-137993495D01*
X145416306Y-137995212D01*
X145412873Y-137997041D01*
X145409043Y-137999034D01*
X145404710Y-138001239D01*
X145399769Y-138003704D01*
X145394115Y-138006480D01*
X145387644Y-138009615D01*
X145380250Y-138013158D01*
X145371829Y-138017159D01*
X145362275Y-138021666D01*
X145351484Y-138026729D01*
X145339350Y-138032398D01*
X145325768Y-138038720D01*
X145310635Y-138045745D01*
X145293844Y-138053523D01*
X145275291Y-138062102D01*
X145254870Y-138071531D01*
X145232477Y-138081861D01*
X145208007Y-138093139D01*
X145181355Y-138105415D01*
X145152416Y-138118738D01*
X145121085Y-138133157D01*
X145087257Y-138148722D01*
X145086358Y-138149135D01*
X145059029Y-138161710D01*
X145032302Y-138174012D01*
X145006302Y-138185984D01*
X144981152Y-138197568D01*
X144956976Y-138208708D01*
X144933897Y-138219346D01*
X144912039Y-138229426D01*
X144891525Y-138238890D01*
X144872480Y-138247681D01*
X144855028Y-138255742D01*
X144839290Y-138263016D01*
X144825392Y-138269445D01*
X144813458Y-138274974D01*
X144803609Y-138279545D01*
X144795972Y-138283100D01*
X144790668Y-138285582D01*
X144787822Y-138286935D01*
X144787577Y-138287056D01*
X144765119Y-138299823D01*
X144743629Y-138315066D01*
X144723473Y-138332458D01*
X144705016Y-138351672D01*
X144688623Y-138372383D01*
X144683223Y-138380255D01*
X144672308Y-138398680D01*
X144662425Y-138419025D01*
X144653928Y-138440425D01*
X144647171Y-138462014D01*
X144643673Y-138476745D01*
X144639569Y-138503882D01*
X144638202Y-138531194D01*
X144639514Y-138558439D01*
X144643445Y-138585375D01*
X144649937Y-138611759D01*
X144658931Y-138637348D01*
X144670366Y-138661901D01*
X144684185Y-138685175D01*
X144699462Y-138705873D01*
X144706756Y-138714194D01*
X144715655Y-138723412D01*
X144725467Y-138732878D01*
X144735502Y-138741946D01*
X144745070Y-138749968D01*
X144752517Y-138755620D01*
X144754813Y-138757066D01*
X144759520Y-138759864D01*
X144766552Y-138763965D01*
X144775820Y-138769320D01*
X144787236Y-138775877D01*
X144800713Y-138783589D01*
X144816163Y-138792405D01*
X144833499Y-138802275D01*
X144852632Y-138813150D01*
X144873474Y-138824979D01*
X144895939Y-138837714D01*
X144919938Y-138851304D01*
X144945384Y-138865700D01*
X144972188Y-138880852D01*
X145000264Y-138896710D01*
X145029523Y-138913225D01*
X145059878Y-138930347D01*
X145091240Y-138948025D01*
X145123523Y-138966211D01*
X145156638Y-138984855D01*
X145190498Y-139003907D01*
X145207447Y-139013439D01*
X145240596Y-139032083D01*
X145273145Y-139050394D01*
X145305003Y-139068321D01*
X145336078Y-139085812D01*
X145366279Y-139102816D01*
X145395515Y-139119282D01*
X145423694Y-139135157D01*
X145450725Y-139150391D01*
X145476517Y-139164931D01*
X145500978Y-139178727D01*
X145524018Y-139191727D01*
X145545544Y-139203878D01*
X145565466Y-139215130D01*
X145583692Y-139225432D01*
X145600130Y-139234731D01*
X145614691Y-139242976D01*
X145627281Y-139250115D01*
X145637811Y-139256098D01*
X145646188Y-139260871D01*
X145652321Y-139264385D01*
X145656119Y-139266588D01*
X145657410Y-139267367D01*
X145676240Y-139281617D01*
X145693217Y-139297929D01*
X145708195Y-139316060D01*
X145721025Y-139335770D01*
X145731562Y-139356815D01*
X145739657Y-139378955D01*
X145745163Y-139401948D01*
X145746992Y-139414493D01*
X145747147Y-139416960D01*
X145747291Y-139421560D01*
X145747424Y-139428329D01*
X145747547Y-139437307D01*
X145747659Y-139448532D01*
X145747760Y-139462041D01*
X145747851Y-139477873D01*
X145747932Y-139496065D01*
X145748003Y-139516657D01*
X145748063Y-139539686D01*
X145748113Y-139565190D01*
X145748153Y-139593207D01*
X145748183Y-139623776D01*
X145748204Y-139656934D01*
X145748214Y-139692720D01*
X145748215Y-139731172D01*
X145748207Y-139772327D01*
X145748188Y-139816225D01*
X145748161Y-139862903D01*
X145748124Y-139912399D01*
X145748113Y-139925359D01*
X145747690Y-140422612D01*
X145743888Y-140436225D01*
X145736922Y-140456142D01*
X145727678Y-140474391D01*
X145716284Y-140490851D01*
X145702871Y-140505402D01*
X145687568Y-140517924D01*
X145670505Y-140528295D01*
X145651812Y-140536396D01*
X145631619Y-140542105D01*
X145629467Y-140542551D01*
X145627329Y-140542693D01*
X145622426Y-140542830D01*
X145614856Y-140542962D01*
X145604720Y-140543088D01*
X145592118Y-140543210D01*
X145577149Y-140543327D01*
X145559913Y-140543439D01*
X145540510Y-140543545D01*
X145519040Y-140543647D01*
X145495602Y-140543744D01*
X145470298Y-140543835D01*
X145443226Y-140543922D01*
X145414486Y-140544003D01*
X145384179Y-140544080D01*
X145352403Y-140544151D01*
X145319260Y-140544217D01*
X145284848Y-140544279D01*
X145249269Y-140544335D01*
X145212621Y-140544387D01*
X145175004Y-140544433D01*
X145136519Y-140544474D01*
X145097264Y-140544510D01*
X145057341Y-140544542D01*
X145016849Y-140544568D01*
X144975888Y-140544589D01*
X144934557Y-140544605D01*
X144892957Y-140544616D01*
X144851187Y-140544622D01*
X144809348Y-140544623D01*
X144767538Y-140544619D01*
X144725859Y-140544610D01*
X144684409Y-140544596D01*
X144643289Y-140544577D01*
X144602599Y-140544552D01*
X144562438Y-140544523D01*
X144522907Y-140544489D01*
X144484104Y-140544450D01*
X144446131Y-140544406D01*
X144409087Y-140544356D01*
X144373071Y-140544302D01*
X144338184Y-140544242D01*
X144304526Y-140544178D01*
X144272196Y-140544109D01*
X144241294Y-140544034D01*
X144211920Y-140543955D01*
X144184175Y-140543870D01*
X144158157Y-140543780D01*
X144133967Y-140543686D01*
X144111704Y-140543586D01*
X144091469Y-140543481D01*
X144073362Y-140543372D01*
X144057481Y-140543257D01*
X144043928Y-140543137D01*
X144032801Y-140543012D01*
X144024201Y-140542883D01*
X144018228Y-140542748D01*
X144014981Y-140542608D01*
X144014471Y-140542551D01*
X143995078Y-140537312D01*
X143976672Y-140529654D01*
X143959560Y-140519779D01*
X143944048Y-140507885D01*
X143930442Y-140494175D01*
X143920601Y-140481235D01*
X143911699Y-140465757D01*
X143904226Y-140448392D01*
X143898504Y-140429896D01*
X143898120Y-140428344D01*
X143897986Y-140427191D01*
X143897857Y-140424822D01*
X143897733Y-140421177D01*
X143897614Y-140416201D01*
X143897500Y-140409834D01*
X143897389Y-140402020D01*
X143897283Y-140392699D01*
X143897181Y-140381815D01*
X143897083Y-140369309D01*
X143896989Y-140355124D01*
X143896898Y-140339202D01*
X143896810Y-140321485D01*
X143896725Y-140301914D01*
X143896643Y-140280434D01*
X143896564Y-140256984D01*
X143896487Y-140231509D01*
X143896413Y-140203949D01*
X143896341Y-140174247D01*
X143896270Y-140142345D01*
X143896202Y-140108186D01*
X143896135Y-140071711D01*
X143896069Y-140032863D01*
X143896004Y-139991584D01*
X143895941Y-139947815D01*
X143895878Y-139901500D01*
X143895816Y-139852581D01*
X143895754Y-139800999D01*
X143895692Y-139746696D01*
X143895631Y-139689616D01*
X143895599Y-139658820D01*
X143894815Y-138896462D01*
X143891677Y-138885463D01*
X143884945Y-138866037D01*
X143876350Y-138848617D01*
X143865714Y-138832895D01*
X143854034Y-138819724D01*
X143838968Y-138806547D01*
X143822569Y-138795713D01*
X143805107Y-138787281D01*
X143786851Y-138781312D01*
X143768068Y-138777866D01*
X143749027Y-138777004D01*
X143729996Y-138778787D01*
X143711245Y-138783274D01*
X143703729Y-138785898D01*
X143701267Y-138786941D01*
X143696366Y-138789111D01*
X143689189Y-138792333D01*
X143679901Y-138796532D01*
X143668663Y-138801633D01*
X143655639Y-138807560D01*
X143640993Y-138814240D01*
X143624887Y-138821596D01*
X143607484Y-138829554D01*
X143588948Y-138838038D01*
X143569443Y-138846975D01*
X143549130Y-138856288D01*
X143528174Y-138865903D01*
X143506737Y-138875744D01*
X143484983Y-138885738D01*
X143463075Y-138895807D01*
X143441176Y-138905879D01*
X143419449Y-138915877D01*
X143398058Y-138925727D01*
X143377165Y-138935354D01*
X143356934Y-138944682D01*
X143337527Y-138953636D01*
X143319109Y-138962143D01*
X143301843Y-138970126D01*
X143285890Y-138977510D01*
X143271416Y-138984221D01*
X143258582Y-138990183D01*
X143247552Y-138995322D01*
X143238489Y-138999563D01*
X143231557Y-139002830D01*
X143226918Y-139005048D01*
X143225611Y-139005691D01*
X143198918Y-139020608D01*
X143173782Y-139037863D01*
X143150359Y-139057300D01*
X143128805Y-139078759D01*
X143109278Y-139102083D01*
X143091934Y-139127115D01*
X143076930Y-139153696D01*
X143075154Y-139157269D01*
X143065777Y-139178161D01*
X143057904Y-139199618D01*
X143051302Y-139222356D01*
X143045739Y-139247091D01*
X143045449Y-139248571D01*
X143042306Y-139264744D01*
X143041459Y-139842961D01*
X143041388Y-139891633D01*
X143041318Y-139937522D01*
X143041251Y-139980711D01*
X143041186Y-140021281D01*
X143041122Y-140059317D01*
X143041058Y-140094901D01*
X143040995Y-140128116D01*
X143040932Y-140159044D01*
X143040868Y-140187768D01*
X143040804Y-140214372D01*
X143040737Y-140238937D01*
X143040669Y-140261547D01*
X143040599Y-140282285D01*
X143040526Y-140301233D01*
X143040449Y-140318474D01*
X143040369Y-140334090D01*
X143040284Y-140348166D01*
X143040195Y-140360783D01*
X143040101Y-140372024D01*
X143040001Y-140381972D01*
X143039896Y-140390710D01*
X143039783Y-140398320D01*
X143039664Y-140404886D01*
X143039538Y-140410490D01*
X143039404Y-140415215D01*
X143039261Y-140419144D01*
X143039110Y-140422359D01*
X143038950Y-140424944D01*
X143038779Y-140426980D01*
X143038599Y-140428552D01*
X143038409Y-140429741D01*
X143038243Y-140430493D01*
X143032260Y-140449861D01*
X143024605Y-140467169D01*
X143015048Y-140482833D01*
X143003357Y-140497272D01*
X142998580Y-140502252D01*
X142984581Y-140514691D01*
X142969527Y-140524938D01*
X142952990Y-140533229D01*
X142934540Y-140539802D01*
X142926821Y-140541929D01*
X142926014Y-140542100D01*
X142924921Y-140542263D01*
X142923471Y-140542419D01*
X142921594Y-140542566D01*
X142919220Y-140542706D01*
X142916277Y-140542838D01*
X142912697Y-140542963D01*
X142908408Y-140543081D01*
X142903340Y-140543193D01*
X142897422Y-140543298D01*
X142890586Y-140543397D01*
X142882759Y-140543490D01*
X142873873Y-140543577D01*
X142863855Y-140543659D01*
X142852637Y-140543735D01*
X142840148Y-140543806D01*
X142826317Y-140543873D01*
X142811074Y-140543934D01*
X142794349Y-140543992D01*
X142776071Y-140544045D01*
X142756170Y-140544094D01*
X142734576Y-140544140D01*
X142711219Y-140544182D01*
X142686027Y-140544220D01*
X142658932Y-140544256D01*
X142629861Y-140544289D01*
X142598746Y-140544320D01*
X142565516Y-140544348D01*
X142530100Y-140544373D01*
X142492427Y-140544397D01*
X142452429Y-140544420D01*
X142410034Y-140544441D01*
X142365172Y-140544460D01*
X142317773Y-140544479D01*
X142267766Y-140544497D01*
X142215081Y-140544515D01*
X142159647Y-140544532D01*
X142120756Y-140544543D01*
X142065818Y-140544557D01*
X142012335Y-140544565D01*
X141960362Y-140544569D01*
X141909957Y-140544567D01*
X141861176Y-140544561D01*
X141814078Y-140544550D01*
X141768718Y-140544534D01*
X141725155Y-140544513D01*
X141683444Y-140544488D01*
X141643644Y-140544458D01*
X141605810Y-140544424D01*
X141570001Y-140544386D01*
X141536273Y-140544343D01*
X141504684Y-140544296D01*
X141475290Y-140544245D01*
X141448148Y-140544190D01*
X141423315Y-140544131D01*
X141400849Y-140544068D01*
X141380807Y-140544002D01*
X141363245Y-140543931D01*
X141348221Y-140543857D01*
X141335791Y-140543779D01*
X141326013Y-140543698D01*
X141318944Y-140543614D01*
X141314641Y-140543526D01*
X141313258Y-140543457D01*
X141307273Y-140542405D01*
X141299734Y-140540623D01*
X141291765Y-140538395D01*
X141286747Y-140536793D01*
X141268005Y-140528971D01*
X141250842Y-140518823D01*
X141235398Y-140506500D01*
X141221813Y-140492154D01*
X141210227Y-140475936D01*
X141200777Y-140457998D01*
X141193605Y-140438492D01*
X141192416Y-140434266D01*
X141189303Y-140422612D01*
X141189303Y-135669337D01*
X141192520Y-135656716D01*
X141198938Y-135637039D01*
X141207687Y-135618880D01*
X141218599Y-135602387D01*
X141231502Y-135587708D01*
X141246229Y-135574992D01*
X141262611Y-135564385D01*
X141280477Y-135556037D01*
X141299660Y-135550096D01*
X141318036Y-135546914D01*
X141320442Y-135546805D01*
X141325613Y-135546700D01*
X141333447Y-135546600D01*
X141343843Y-135546502D01*
X141356702Y-135546409D01*
X141371920Y-135546320D01*
X141389399Y-135546234D01*
X141409035Y-135546152D01*
X141430730Y-135546074D01*
X141454380Y-135546000D01*
X141479887Y-135545930D01*
X141507147Y-135545863D01*
X141536061Y-135545800D01*
X141566528Y-135545742D01*
X141598446Y-135545687D01*
X141631715Y-135545635D01*
X141666233Y-135545588D01*
X141701899Y-135545545D01*
X141738613Y-135545505D01*
X141776273Y-135545469D01*
X141814779Y-135545437D01*
X141854029Y-135545409D01*
X141893923Y-135545385D01*
X141934359Y-135545365D01*
X141975236Y-135545348D01*
X142016454Y-135545336D01*
X142057911Y-135545327D01*
X142099506Y-135545322D01*
X142141139Y-135545322D01*
X142182708Y-135545325D01*
G37*
G36*
X150773226Y-137374522D02*
G01*
X150773249Y-137327526D01*
X150773273Y-137282570D01*
X150773297Y-137239608D01*
X150773323Y-137198594D01*
X150773350Y-137159483D01*
X150773378Y-137122229D01*
X150773407Y-137086786D01*
X150773438Y-137053108D01*
X150773470Y-137021149D01*
X150773503Y-136990863D01*
X150773538Y-136962205D01*
X150773574Y-136935128D01*
X150773612Y-136909586D01*
X150773652Y-136885535D01*
X150773694Y-136862927D01*
X150773737Y-136841717D01*
X150773782Y-136821860D01*
X150773830Y-136803308D01*
X150773879Y-136786017D01*
X150773931Y-136769941D01*
X150773985Y-136755033D01*
X150774041Y-136741248D01*
X150774099Y-136728539D01*
X150774160Y-136716862D01*
X150774224Y-136706170D01*
X150774290Y-136696417D01*
X150774358Y-136687557D01*
X150774430Y-136679545D01*
X150774504Y-136672335D01*
X150774581Y-136665880D01*
X150774661Y-136660135D01*
X150774743Y-136655054D01*
X150774829Y-136650591D01*
X150774918Y-136646700D01*
X150775011Y-136643336D01*
X150775106Y-136640452D01*
X150775205Y-136638003D01*
X150775308Y-136635943D01*
X150775413Y-136634225D01*
X150775523Y-136632805D01*
X150775636Y-136631635D01*
X150775753Y-136630671D01*
X150775825Y-136630166D01*
X150780991Y-136601052D01*
X150787285Y-136573526D01*
X150791276Y-136558969D01*
X150802306Y-136526138D01*
X150815933Y-136493989D01*
X150831980Y-136462817D01*
X150850269Y-136432912D01*
X150870622Y-136404569D01*
X150892863Y-136378078D01*
X150914560Y-136355860D01*
X150916594Y-136354059D01*
X150920743Y-136350508D01*
X150926912Y-136345285D01*
X150935007Y-136338467D01*
X150944936Y-136330131D01*
X150956605Y-136320356D01*
X150969920Y-136309220D01*
X150984788Y-136296799D01*
X151001114Y-136283171D01*
X151018806Y-136268415D01*
X151037770Y-136252608D01*
X151057913Y-136235827D01*
X151079140Y-136218151D01*
X151101359Y-136199656D01*
X151124475Y-136180421D01*
X151148396Y-136160523D01*
X151173027Y-136140040D01*
X151198276Y-136119050D01*
X151224048Y-136097629D01*
X151250250Y-136075857D01*
X151276788Y-136053810D01*
X151303569Y-136031566D01*
X151330500Y-136009204D01*
X151357486Y-135986800D01*
X151384435Y-135964432D01*
X151411252Y-135942178D01*
X151437844Y-135920115D01*
X151464118Y-135898322D01*
X151489980Y-135876876D01*
X151515336Y-135855854D01*
X151540093Y-135835335D01*
X151564158Y-135815395D01*
X151587436Y-135796113D01*
X151609835Y-135777566D01*
X151631260Y-135759833D01*
X151651619Y-135742989D01*
X151670817Y-135727115D01*
X151688761Y-135712286D01*
X151705357Y-135698580D01*
X151720513Y-135686076D01*
X151734133Y-135674851D01*
X151746126Y-135664982D01*
X151756397Y-135656548D01*
X151764852Y-135649626D01*
X151771399Y-135644293D01*
X151775943Y-135640627D01*
X151778266Y-135638802D01*
X151799357Y-135623980D01*
X151822805Y-135609614D01*
X151848100Y-135596010D01*
X151850211Y-135594953D01*
X151878605Y-135581942D01*
X151907422Y-135571054D01*
X151937180Y-135562130D01*
X151968396Y-135555014D01*
X151997737Y-135550087D01*
X151998732Y-135549956D01*
X151999887Y-135549830D01*
X152001253Y-135549709D01*
X152002879Y-135549592D01*
X152004816Y-135549479D01*
X152007113Y-135549370D01*
X152009821Y-135549265D01*
X152012989Y-135549165D01*
X152016668Y-135549068D01*
X152020908Y-135548975D01*
X152025758Y-135548886D01*
X152031269Y-135548801D01*
X152037490Y-135548719D01*
X152044471Y-135548641D01*
X152052263Y-135548567D01*
X152060916Y-135548496D01*
X152070479Y-135548428D01*
X152081003Y-135548363D01*
X152092537Y-135548302D01*
X152105131Y-135548243D01*
X152118836Y-135548188D01*
X152133702Y-135548136D01*
X152149778Y-135548086D01*
X152167114Y-135548039D01*
X152185761Y-135547995D01*
X152205768Y-135547954D01*
X152227186Y-135547915D01*
X152250064Y-135547878D01*
X152274453Y-135547844D01*
X152300402Y-135547812D01*
X152327961Y-135547783D01*
X152357181Y-135547755D01*
X152388111Y-135547730D01*
X152420801Y-135547706D01*
X152455302Y-135547685D01*
X152491664Y-135547665D01*
X152529935Y-135547647D01*
X152570167Y-135547631D01*
X152612410Y-135547616D01*
X152656713Y-135547603D01*
X152703126Y-135547591D01*
X152751699Y-135547581D01*
X152802483Y-135547572D01*
X152855527Y-135547564D01*
X152910882Y-135547557D01*
X152968596Y-135547551D01*
X153028722Y-135547546D01*
X153091307Y-135547542D01*
X153156403Y-135547539D01*
X153224059Y-135547536D01*
X153294325Y-135547534D01*
X153367251Y-135547533D01*
X153442888Y-135547532D01*
X153521285Y-135547531D01*
X155208383Y-135547531D01*
X155220037Y-135550644D01*
X155239844Y-135557253D01*
X155257907Y-135566059D01*
X155266343Y-135571310D01*
X155282760Y-135583988D01*
X155296941Y-135598421D01*
X155308810Y-135614481D01*
X155318291Y-135632040D01*
X155325309Y-135650969D01*
X155329787Y-135671140D01*
X155330949Y-135680541D01*
X155331028Y-135682492D01*
X155331105Y-135686646D01*
X155331178Y-135693021D01*
X155331249Y-135701634D01*
X155331317Y-135712502D01*
X155331382Y-135725642D01*
X155331445Y-135741073D01*
X155331505Y-135758811D01*
X155331562Y-135778874D01*
X155331616Y-135801278D01*
X155331667Y-135826042D01*
X155331716Y-135853183D01*
X155331762Y-135882718D01*
X155331805Y-135914664D01*
X155331846Y-135949039D01*
X155331884Y-135985860D01*
X155331919Y-136025144D01*
X155331952Y-136066910D01*
X155331982Y-136111173D01*
X155332009Y-136157953D01*
X155332034Y-136207265D01*
X155332056Y-136259127D01*
X155332075Y-136313557D01*
X155332092Y-136370572D01*
X155332106Y-136430189D01*
X155332117Y-136492426D01*
X155332126Y-136557300D01*
X155332133Y-136624828D01*
X155332137Y-136695028D01*
X155332138Y-136767917D01*
X155332137Y-136843512D01*
X155332133Y-136921832D01*
X155332127Y-137002892D01*
X155332118Y-137086711D01*
X155332107Y-137173305D01*
X155332093Y-137262693D01*
X155332077Y-137354892D01*
X155332058Y-137449918D01*
X155332037Y-137547789D01*
X155332032Y-137567351D01*
X155332012Y-137655727D01*
X155331992Y-137741284D01*
X155331972Y-137824066D01*
X155331953Y-137904121D01*
X155331934Y-137981495D01*
X155331914Y-138056234D01*
X155331895Y-138128383D01*
X155331876Y-138197989D01*
X155331857Y-138265098D01*
X155331837Y-138329757D01*
X155331818Y-138392011D01*
X155331798Y-138451907D01*
X155331777Y-138509490D01*
X155331756Y-138564807D01*
X155331735Y-138617904D01*
X155331713Y-138668828D01*
X155331690Y-138717623D01*
X155331666Y-138764337D01*
X155331642Y-138809016D01*
X155331616Y-138851705D01*
X155331590Y-138892451D01*
X155331562Y-138931300D01*
X155331534Y-138968298D01*
X155331504Y-139003491D01*
X155331473Y-139036926D01*
X155331440Y-139068649D01*
X155331406Y-139098705D01*
X155331371Y-139127141D01*
X155331334Y-139154002D01*
X155331295Y-139179336D01*
X155331255Y-139203189D01*
X155331213Y-139225605D01*
X155331169Y-139246633D01*
X155331123Y-139266316D01*
X155331075Y-139284703D01*
X155331024Y-139301839D01*
X155330972Y-139317770D01*
X155330918Y-139332542D01*
X155330861Y-139346201D01*
X155330802Y-139358794D01*
X155330740Y-139370367D01*
X155330676Y-139380965D01*
X155330609Y-139390636D01*
X155330540Y-139399424D01*
X155330467Y-139407377D01*
X155330392Y-139414541D01*
X155330314Y-139420960D01*
X155330234Y-139426683D01*
X155330150Y-139431754D01*
X155330063Y-139436220D01*
X155329972Y-139440128D01*
X155329879Y-139443522D01*
X155329782Y-139446450D01*
X155329682Y-139448958D01*
X155329578Y-139451091D01*
X155329471Y-139452896D01*
X155329360Y-139454419D01*
X155329246Y-139455706D01*
X155329127Y-139456803D01*
X155329042Y-139457483D01*
X155323774Y-139490313D01*
X155316851Y-139521254D01*
X155308109Y-139550863D01*
X155297383Y-139579699D01*
X155284507Y-139608323D01*
X155284339Y-139608665D01*
X155267166Y-139640598D01*
X155247640Y-139671014D01*
X155225892Y-139699735D01*
X155202053Y-139726583D01*
X155184739Y-139743657D01*
X155183037Y-139745133D01*
X155179224Y-139748362D01*
X155173394Y-139753265D01*
X155165641Y-139759764D01*
X155156060Y-139767780D01*
X155144743Y-139777235D01*
X155131787Y-139788051D01*
X155117283Y-139800150D01*
X155101328Y-139813454D01*
X155084014Y-139827883D01*
X155065437Y-139843361D01*
X155045690Y-139859809D01*
X155024867Y-139877148D01*
X155003062Y-139895300D01*
X154980370Y-139914187D01*
X154956884Y-139933731D01*
X154932700Y-139953854D01*
X154907910Y-139974476D01*
X154882609Y-139995521D01*
X154856892Y-140016910D01*
X154830852Y-140038564D01*
X154804583Y-140060405D01*
X154778180Y-140082355D01*
X154751736Y-140104337D01*
X154725347Y-140126270D01*
X154699105Y-140148078D01*
X154673106Y-140169682D01*
X154647443Y-140191003D01*
X154622210Y-140211965D01*
X154597502Y-140232487D01*
X154573412Y-140252492D01*
X154550035Y-140271903D01*
X154527465Y-140290639D01*
X154505796Y-140308624D01*
X154485122Y-140325779D01*
X154465537Y-140342026D01*
X154447136Y-140357286D01*
X154430012Y-140371482D01*
X154414260Y-140384534D01*
X154399974Y-140396366D01*
X154387248Y-140406897D01*
X154376176Y-140416052D01*
X154366852Y-140423750D01*
X154359370Y-140429914D01*
X154353825Y-140434465D01*
X154350311Y-140437326D01*
X154349584Y-140437908D01*
X154324248Y-140456406D01*
X154296791Y-140473408D01*
X154267656Y-140488699D01*
X154237288Y-140502061D01*
X154206129Y-140513278D01*
X154179579Y-140520907D01*
X154166822Y-140523985D01*
X154154441Y-140526610D01*
X154142055Y-140528820D01*
X154129284Y-140530656D01*
X154115749Y-140532156D01*
X154101068Y-140533360D01*
X154084861Y-140534306D01*
X154066748Y-140535033D01*
X154046349Y-140535581D01*
X154034753Y-140535808D01*
X154025307Y-140535983D01*
X154013345Y-140536222D01*
X153999220Y-140536516D01*
X153983280Y-140536857D01*
X153965877Y-140537239D01*
X153947360Y-140537652D01*
X153928081Y-140538090D01*
X153908389Y-140538545D01*
X153888634Y-140539009D01*
X153869958Y-140539454D01*
X153857087Y-140539763D01*
X153844578Y-140540061D01*
X153832368Y-140540347D01*
X153820394Y-140540622D01*
X153808594Y-140540886D01*
X153796907Y-140541140D01*
X153785268Y-140541383D01*
X153773617Y-140541616D01*
X153761891Y-140541839D01*
X153750028Y-140542052D01*
X153737964Y-140542256D01*
X153725638Y-140542450D01*
X153712988Y-140542636D01*
X153699951Y-140542812D01*
X153686464Y-140542980D01*
X153672466Y-140543139D01*
X153657894Y-140543289D01*
X153642686Y-140543432D01*
X153626779Y-140543567D01*
X153610112Y-140543694D01*
X153592620Y-140543814D01*
X153574244Y-140543926D01*
X153554919Y-140544032D01*
X153534583Y-140544131D01*
X153513176Y-140544223D01*
X153490633Y-140544308D01*
X153466892Y-140544388D01*
X153441892Y-140544462D01*
X153415570Y-140544529D01*
X153387863Y-140544592D01*
X153358710Y-140544649D01*
X153328047Y-140544701D01*
X153295813Y-140544748D01*
X153261946Y-140544790D01*
X153226382Y-140544828D01*
X153189059Y-140544861D01*
X153149916Y-140544891D01*
X153108889Y-140544917D01*
X153065917Y-140544939D01*
X153020937Y-140544957D01*
X152973887Y-140544973D01*
X152924704Y-140544985D01*
X152873327Y-140544995D01*
X152819692Y-140545002D01*
X152763737Y-140545007D01*
X152705401Y-140545010D01*
X152644620Y-140545010D01*
X152581332Y-140545009D01*
X152515476Y-140545007D01*
X152446988Y-140545003D01*
X152375806Y-140544998D01*
X152301868Y-140544993D01*
X152243498Y-140544988D01*
X152166925Y-140544981D01*
X152093169Y-140544973D01*
X152022182Y-140544964D01*
X151953914Y-140544953D01*
X151888318Y-140544942D01*
X151825344Y-140544929D01*
X151764943Y-140544915D01*
X151707067Y-140544899D01*
X151651667Y-140544882D01*
X151598694Y-140544864D01*
X151548100Y-140544844D01*
X151499835Y-140544822D01*
X151453851Y-140544798D01*
X151410100Y-140544773D01*
X151368532Y-140544745D01*
X151329099Y-140544716D01*
X151291751Y-140544684D01*
X151256441Y-140544650D01*
X151223119Y-140544614D01*
X151191737Y-140544576D01*
X151162246Y-140544536D01*
X151134597Y-140544493D01*
X151108741Y-140544447D01*
X151084630Y-140544399D01*
X151062215Y-140544349D01*
X151041448Y-140544295D01*
X151022278Y-140544239D01*
X151004658Y-140544180D01*
X150988539Y-140544118D01*
X150973873Y-140544054D01*
X150960609Y-140543986D01*
X150948701Y-140543915D01*
X150938098Y-140543840D01*
X150928752Y-140543763D01*
X150920614Y-140543682D01*
X150913637Y-140543597D01*
X150907770Y-140543510D01*
X150902965Y-140543418D01*
X150899174Y-140543323D01*
X150896347Y-140543224D01*
X150894436Y-140543122D01*
X150893392Y-140543015D01*
X150893370Y-140543012D01*
X150873579Y-140538022D01*
X150855011Y-140530553D01*
X150837849Y-140520784D01*
X150822277Y-140508894D01*
X150808478Y-140495062D01*
X150796636Y-140479467D01*
X150786934Y-140462287D01*
X150779555Y-140443702D01*
X150775472Y-140428054D01*
X150772507Y-140413505D01*
X150772903Y-138530075D01*
X150772922Y-138441376D01*
X150772940Y-138355496D01*
X150772958Y-138272391D01*
X150772976Y-138192014D01*
X150772994Y-138114319D01*
X150773012Y-138039261D01*
X150773030Y-137966794D01*
X150773048Y-137896872D01*
X150773066Y-137829449D01*
X150773085Y-137764479D01*
X150773103Y-137701916D01*
X150773122Y-137641715D01*
X150773142Y-137583829D01*
X150773162Y-137528212D01*
X150773183Y-137474820D01*
X150773196Y-137444296D01*
X152624183Y-137444296D01*
X152624184Y-137510753D01*
X152624187Y-137579860D01*
X152624192Y-137651643D01*
X152624201Y-137726124D01*
X152624212Y-137803329D01*
X152624226Y-137883282D01*
X152624243Y-137966006D01*
X152624263Y-138051525D01*
X152624285Y-138139865D01*
X152624308Y-138221517D01*
X152624331Y-138304322D01*
X152624354Y-138384310D01*
X152624377Y-138461530D01*
X152624400Y-138536030D01*
X152624423Y-138607859D01*
X152624445Y-138677065D01*
X152624468Y-138743699D01*
X152624490Y-138807808D01*
X152624513Y-138869441D01*
X152624536Y-138928648D01*
X152624559Y-138985476D01*
X152624583Y-139039974D01*
X152624608Y-139092192D01*
X152624633Y-139142179D01*
X152624659Y-139189982D01*
X152624685Y-139235651D01*
X152624713Y-139279234D01*
X152624741Y-139320781D01*
X152624770Y-139360340D01*
X152624801Y-139397960D01*
X152624833Y-139433689D01*
X152624866Y-139467577D01*
X152624900Y-139499672D01*
X152624936Y-139530023D01*
X152624974Y-139558679D01*
X152625013Y-139585688D01*
X152625054Y-139611100D01*
X152625096Y-139634962D01*
X152625141Y-139657325D01*
X152625187Y-139678237D01*
X152625236Y-139697745D01*
X152625286Y-139715900D01*
X152625339Y-139732751D01*
X152625395Y-139748345D01*
X152625452Y-139762731D01*
X152625512Y-139775959D01*
X152625575Y-139788077D01*
X152625640Y-139799134D01*
X152625709Y-139809179D01*
X152625779Y-139818260D01*
X152625853Y-139826427D01*
X152625930Y-139833728D01*
X152626010Y-139840211D01*
X152626093Y-139845927D01*
X152626179Y-139850922D01*
X152626269Y-139855247D01*
X152626362Y-139858950D01*
X152626458Y-139862080D01*
X152626559Y-139864685D01*
X152626662Y-139866814D01*
X152626770Y-139868517D01*
X152626881Y-139869842D01*
X152626997Y-139870837D01*
X152627116Y-139871552D01*
X152627173Y-139871804D01*
X152632647Y-139890076D01*
X152639401Y-139906282D01*
X152647736Y-139921046D01*
X152656919Y-139933721D01*
X152670798Y-139948779D01*
X152686371Y-139961554D01*
X152703491Y-139971955D01*
X152722008Y-139979890D01*
X152740034Y-139984909D01*
X152742255Y-139985346D01*
X152744669Y-139985732D01*
X152747462Y-139986069D01*
X152750817Y-139986361D01*
X152754923Y-139986611D01*
X152759963Y-139986824D01*
X152766124Y-139987001D01*
X152773590Y-139987146D01*
X152782549Y-139987264D01*
X152793184Y-139987356D01*
X152805683Y-139987427D01*
X152820230Y-139987480D01*
X152837011Y-139987518D01*
X152856212Y-139987544D01*
X152878018Y-139987562D01*
X152887633Y-139987568D01*
X152911257Y-139987574D01*
X152932194Y-139987565D01*
X152950626Y-139987536D01*
X152966731Y-139987487D01*
X152980690Y-139987414D01*
X152992683Y-139987316D01*
X153002889Y-139987189D01*
X153011490Y-139987031D01*
X153018663Y-139986839D01*
X153024591Y-139986612D01*
X153029452Y-139986347D01*
X153033426Y-139986041D01*
X153036694Y-139985692D01*
X153037972Y-139985522D01*
X153064724Y-139980280D01*
X153090769Y-139972263D01*
X153116074Y-139961482D01*
X153122601Y-139958189D01*
X153128006Y-139955336D01*
X153133009Y-139952585D01*
X153137772Y-139949792D01*
X153142460Y-139946815D01*
X153147237Y-139943511D01*
X153152267Y-139939738D01*
X153157713Y-139935352D01*
X153163739Y-139930210D01*
X153170509Y-139924172D01*
X153178187Y-139917092D01*
X153186937Y-139908830D01*
X153196922Y-139899241D01*
X153208306Y-139888185D01*
X153221253Y-139875517D01*
X153235927Y-139861095D01*
X153250183Y-139847052D01*
X153273463Y-139824087D01*
X153294767Y-139803032D01*
X153314177Y-139783801D01*
X153331776Y-139766310D01*
X153347647Y-139750476D01*
X153361871Y-139736213D01*
X153374533Y-139723436D01*
X153385715Y-139712063D01*
X153395499Y-139702008D01*
X153403968Y-139693187D01*
X153411204Y-139685515D01*
X153417291Y-139678909D01*
X153422312Y-139673283D01*
X153426348Y-139668554D01*
X153429483Y-139664637D01*
X153431136Y-139662403D01*
X153436889Y-139653609D01*
X153443117Y-139642921D01*
X153449430Y-139631109D01*
X153455439Y-139618945D01*
X153460755Y-139607201D01*
X153464990Y-139596647D01*
X153466539Y-139592186D01*
X153473107Y-139567518D01*
X153477378Y-139541179D01*
X153478036Y-139534866D01*
X153478121Y-139532960D01*
X153478203Y-139529079D01*
X153478282Y-139523199D01*
X153478358Y-139515294D01*
X153478430Y-139505341D01*
X153478500Y-139493316D01*
X153478566Y-139479195D01*
X153478629Y-139462954D01*
X153478689Y-139444568D01*
X153478746Y-139424014D01*
X153478800Y-139401267D01*
X153478851Y-139376304D01*
X153478899Y-139349100D01*
X153478944Y-139319632D01*
X153478986Y-139287874D01*
X153479025Y-139253804D01*
X153479061Y-139217397D01*
X153479094Y-139178629D01*
X153479124Y-139137476D01*
X153479151Y-139093914D01*
X153479176Y-139047918D01*
X153479197Y-138999465D01*
X153479216Y-138948531D01*
X153479232Y-138895091D01*
X153479245Y-138839122D01*
X153479255Y-138780599D01*
X153479262Y-138719498D01*
X153479267Y-138655796D01*
X153479269Y-138589468D01*
X153479268Y-138520490D01*
X153479264Y-138448838D01*
X153479258Y-138374488D01*
X153479249Y-138297416D01*
X153479237Y-138217597D01*
X153479223Y-138135009D01*
X153479206Y-138049626D01*
X153479187Y-137961424D01*
X153479165Y-137872581D01*
X153478747Y-136226775D01*
X153475340Y-136214632D01*
X153468246Y-136194243D01*
X153458944Y-136175574D01*
X153447542Y-136158736D01*
X153434153Y-136143837D01*
X153418886Y-136130989D01*
X153401852Y-136120300D01*
X153383161Y-136111881D01*
X153366793Y-136106777D01*
X153354076Y-136103537D01*
X153215075Y-136103537D01*
X153191811Y-136103540D01*
X153171226Y-136103551D01*
X153153131Y-136103574D01*
X153137341Y-136103612D01*
X153123667Y-136103667D01*
X153111922Y-136103744D01*
X153101918Y-136103844D01*
X153093469Y-136103972D01*
X153086385Y-136104130D01*
X153080482Y-136104323D01*
X153075569Y-136104552D01*
X153071462Y-136104821D01*
X153067971Y-136105133D01*
X153064909Y-136105492D01*
X153062090Y-136105900D01*
X153060518Y-136106157D01*
X153033808Y-136112000D01*
X153008276Y-136120368D01*
X152983711Y-136131350D01*
X152959900Y-136145033D01*
X152948728Y-136152550D01*
X152946135Y-136154570D01*
X152942378Y-136157807D01*
X152937385Y-136162331D01*
X152931081Y-136168215D01*
X152923392Y-136175532D01*
X152914244Y-136184352D01*
X152903563Y-136194748D01*
X152891275Y-136206792D01*
X152877305Y-136220555D01*
X152861581Y-136236110D01*
X152844027Y-136253528D01*
X152824569Y-136272882D01*
X152814794Y-136282618D01*
X152799010Y-136298364D01*
X152783673Y-136313697D01*
X152768921Y-136328477D01*
X152754889Y-136342568D01*
X152741714Y-136355831D01*
X152729532Y-136368129D01*
X152718479Y-136379323D01*
X152708692Y-136389275D01*
X152700307Y-136397849D01*
X152693460Y-136404904D01*
X152688287Y-136410305D01*
X152684925Y-136413913D01*
X152683788Y-136415215D01*
X152667372Y-136437539D01*
X152653655Y-136460791D01*
X152642607Y-136485052D01*
X152634194Y-136510403D01*
X152628384Y-136536926D01*
X152625392Y-136561382D01*
X152625306Y-136563449D01*
X152625224Y-136567488D01*
X152625145Y-136573525D01*
X152625069Y-136581583D01*
X152624997Y-136591687D01*
X152624928Y-136603860D01*
X152624862Y-136618127D01*
X152624799Y-136634512D01*
X152624739Y-136653040D01*
X152624682Y-136673734D01*
X152624629Y-136696618D01*
X152624578Y-136721718D01*
X152624531Y-136749057D01*
X152624487Y-136778659D01*
X152624446Y-136810549D01*
X152624408Y-136844750D01*
X152624373Y-136881288D01*
X152624341Y-136920185D01*
X152624312Y-136961467D01*
X152624286Y-137005158D01*
X152624263Y-137051281D01*
X152624243Y-137099861D01*
X152624226Y-137150923D01*
X152624211Y-137204490D01*
X152624200Y-137260586D01*
X152624192Y-137319237D01*
X152624186Y-137380465D01*
X152624183Y-137444296D01*
X150773196Y-137444296D01*
X150773204Y-137423605D01*
X150773226Y-137374522D01*
G37*
G36*
X164293711Y-135547031D02*
G01*
X164355464Y-135547035D01*
X164414689Y-135547041D01*
X164471416Y-135547050D01*
X164525672Y-135547062D01*
X164577485Y-135547076D01*
X164626884Y-135547093D01*
X164673897Y-135547113D01*
X164718553Y-135547136D01*
X164760879Y-135547161D01*
X164800903Y-135547189D01*
X164838654Y-135547219D01*
X164874161Y-135547253D01*
X164907451Y-135547289D01*
X164938552Y-135547328D01*
X164967493Y-135547370D01*
X164994303Y-135547415D01*
X165019008Y-135547463D01*
X165041638Y-135547514D01*
X165062221Y-135547567D01*
X165080785Y-135547624D01*
X165097359Y-135547683D01*
X165111969Y-135547746D01*
X165124646Y-135547811D01*
X165135416Y-135547880D01*
X165144309Y-135547951D01*
X165151351Y-135548026D01*
X165156573Y-135548104D01*
X165160002Y-135548184D01*
X165161665Y-135548268D01*
X165161739Y-135548277D01*
X165183649Y-135552784D01*
X165204627Y-135559894D01*
X165224456Y-135569453D01*
X165242918Y-135581305D01*
X165259794Y-135595297D01*
X165274866Y-135611274D01*
X165287915Y-135629080D01*
X165296307Y-135643665D01*
X165303216Y-135658437D01*
X165308642Y-135673210D01*
X165313072Y-135689324D01*
X165313510Y-135691199D01*
X165316729Y-135705162D01*
X165317187Y-136313472D01*
X165317226Y-136369823D01*
X165317258Y-136423335D01*
X165317281Y-136474033D01*
X165317295Y-136521945D01*
X165317302Y-136567097D01*
X165317300Y-136609515D01*
X165317290Y-136649226D01*
X165317272Y-136686256D01*
X165317245Y-136720632D01*
X165317209Y-136752380D01*
X165317165Y-136781528D01*
X165317112Y-136808100D01*
X165317051Y-136832124D01*
X165316981Y-136853626D01*
X165316902Y-136872632D01*
X165316815Y-136889170D01*
X165316718Y-136903265D01*
X165316613Y-136914944D01*
X165316499Y-136924234D01*
X165316376Y-136931161D01*
X165316244Y-136935751D01*
X165316127Y-136937805D01*
X165312794Y-136958807D01*
X165306942Y-136978497D01*
X165298650Y-136996765D01*
X165287996Y-137013497D01*
X165275060Y-137028582D01*
X165259919Y-137041906D01*
X165242654Y-137053356D01*
X165230991Y-137059431D01*
X165219233Y-137064524D01*
X165208265Y-137068171D01*
X165197110Y-137070602D01*
X165184794Y-137072047D01*
X165175219Y-137072585D01*
X165161226Y-137072760D01*
X165149140Y-137072055D01*
X165138109Y-137070362D01*
X165127280Y-137067572D01*
X165121907Y-137065813D01*
X165120017Y-137065028D01*
X165115575Y-137063101D01*
X165108646Y-137060063D01*
X165099294Y-137055941D01*
X165087585Y-137050765D01*
X165073582Y-137044564D01*
X165057351Y-137037365D01*
X165038956Y-137029199D01*
X165018461Y-137020093D01*
X164995932Y-137010077D01*
X164971433Y-136999180D01*
X164945029Y-136987430D01*
X164916784Y-136974856D01*
X164886763Y-136961487D01*
X164855030Y-136947351D01*
X164821651Y-136932479D01*
X164786689Y-136916897D01*
X164750211Y-136900636D01*
X164712279Y-136883723D01*
X164672959Y-136866188D01*
X164632316Y-136848060D01*
X164590414Y-136829367D01*
X164547318Y-136810139D01*
X164503092Y-136790403D01*
X164457801Y-136770189D01*
X164411510Y-136749526D01*
X164364284Y-136728442D01*
X164316186Y-136706967D01*
X164267282Y-136685128D01*
X164217637Y-136662955D01*
X164167314Y-136640477D01*
X164120237Y-136619446D01*
X164069342Y-136596709D01*
X164019065Y-136574248D01*
X163969468Y-136552092D01*
X163920618Y-136530270D01*
X163872578Y-136508812D01*
X163825414Y-136487745D01*
X163779190Y-136467098D01*
X163733971Y-136446902D01*
X163689821Y-136427184D01*
X163646805Y-136407973D01*
X163604987Y-136389299D01*
X163564434Y-136371189D01*
X163525208Y-136353674D01*
X163487375Y-136336781D01*
X163451000Y-136320540D01*
X163416147Y-136304980D01*
X163382880Y-136290129D01*
X163351265Y-136276016D01*
X163321367Y-136262671D01*
X163293249Y-136250122D01*
X163266977Y-136238398D01*
X163242615Y-136227527D01*
X163220227Y-136217539D01*
X163199880Y-136208463D01*
X163181636Y-136200328D01*
X163165562Y-136193161D01*
X163151721Y-136186993D01*
X163140178Y-136181852D01*
X163130999Y-136177767D01*
X163124247Y-136174767D01*
X163119987Y-136172880D01*
X163118323Y-136172152D01*
X163107699Y-136167946D01*
X163098412Y-136164927D01*
X163089554Y-136162917D01*
X163080218Y-136161738D01*
X163069496Y-136161214D01*
X163061963Y-136161140D01*
X163052417Y-136161218D01*
X163045025Y-136161494D01*
X163039082Y-136162032D01*
X163033879Y-136162895D01*
X163028736Y-136164141D01*
X163008233Y-136171076D01*
X162989461Y-136180181D01*
X162972532Y-136191343D01*
X162957556Y-136204451D01*
X162944644Y-136219391D01*
X162933907Y-136236050D01*
X162925455Y-136254317D01*
X162919399Y-136274077D01*
X162918973Y-136275933D01*
X162918782Y-136276906D01*
X162918601Y-136278116D01*
X162918429Y-136279638D01*
X162918268Y-136281550D01*
X162918115Y-136283928D01*
X162917972Y-136286851D01*
X162917837Y-136290394D01*
X162917711Y-136294634D01*
X162917593Y-136299648D01*
X162917483Y-136305514D01*
X162917381Y-136312307D01*
X162917286Y-136320105D01*
X162917199Y-136328986D01*
X162917118Y-136339025D01*
X162917043Y-136350299D01*
X162916975Y-136362886D01*
X162916913Y-136376862D01*
X162916857Y-136392304D01*
X162916806Y-136409290D01*
X162916761Y-136427895D01*
X162916720Y-136448198D01*
X162916684Y-136470274D01*
X162916652Y-136494200D01*
X162916625Y-136520055D01*
X162916601Y-136547913D01*
X162916581Y-136577853D01*
X162916564Y-136609951D01*
X162916550Y-136644284D01*
X162916539Y-136680930D01*
X162916530Y-136719963D01*
X162916523Y-136761463D01*
X162916519Y-136805505D01*
X162916516Y-136852167D01*
X162916514Y-136901525D01*
X162916513Y-136953656D01*
X162916513Y-137017376D01*
X162916514Y-137067190D01*
X162916516Y-137114293D01*
X162916519Y-137158760D01*
X162916524Y-137200671D01*
X162916531Y-137240101D01*
X162916540Y-137277128D01*
X162916551Y-137311829D01*
X162916565Y-137344281D01*
X162916582Y-137374561D01*
X162916603Y-137402747D01*
X162916627Y-137428915D01*
X162916655Y-137453143D01*
X162916687Y-137475507D01*
X162916724Y-137496086D01*
X162916766Y-137514955D01*
X162916813Y-137532193D01*
X162916866Y-137547876D01*
X162916924Y-137562081D01*
X162916988Y-137574886D01*
X162917059Y-137586368D01*
X162917136Y-137596603D01*
X162917221Y-137605670D01*
X162917312Y-137613644D01*
X162917411Y-137620604D01*
X162917518Y-137626627D01*
X162917633Y-137631789D01*
X162917757Y-137636167D01*
X162917889Y-137639840D01*
X162918031Y-137642883D01*
X162918181Y-137645374D01*
X162918342Y-137647391D01*
X162918512Y-137649010D01*
X162918693Y-137650308D01*
X162918884Y-137651364D01*
X162919086Y-137652252D01*
X162919179Y-137652614D01*
X162925433Y-137670819D01*
X162934038Y-137687461D01*
X162944852Y-137702394D01*
X162957735Y-137715476D01*
X162972548Y-137726561D01*
X162989151Y-137735505D01*
X163005663Y-137741653D01*
X163011441Y-137743279D01*
X163016553Y-137744371D01*
X163021856Y-137745031D01*
X163028208Y-137745361D01*
X163036465Y-137745464D01*
X163037602Y-137745466D01*
X163046919Y-137745359D01*
X163054156Y-137744966D01*
X163060090Y-137744211D01*
X163065500Y-137743020D01*
X163066979Y-137742611D01*
X163069014Y-137741911D01*
X163073641Y-137740239D01*
X163080770Y-137737628D01*
X163090307Y-137734114D01*
X163102163Y-137729731D01*
X163116246Y-137724511D01*
X163132464Y-137718490D01*
X163150726Y-137711702D01*
X163170940Y-137704180D01*
X163193016Y-137695959D01*
X163216862Y-137687072D01*
X163242386Y-137677554D01*
X163269497Y-137667439D01*
X163298104Y-137656761D01*
X163328116Y-137645555D01*
X163359440Y-137633853D01*
X163391986Y-137621690D01*
X163425662Y-137609101D01*
X163460377Y-137596119D01*
X163496039Y-137582779D01*
X163532557Y-137569114D01*
X163569840Y-137555158D01*
X163607797Y-137540946D01*
X163621551Y-137535795D01*
X163659733Y-137521499D01*
X163697277Y-137507448D01*
X163734092Y-137493677D01*
X163770088Y-137480218D01*
X163805171Y-137467108D01*
X163839251Y-137454379D01*
X163872236Y-137442066D01*
X163904034Y-137430202D01*
X163934555Y-137418822D01*
X163963706Y-137407960D01*
X163991396Y-137397650D01*
X164017533Y-137387925D01*
X164042027Y-137378821D01*
X164064785Y-137370370D01*
X164085715Y-137362607D01*
X164104727Y-137355567D01*
X164121729Y-137349282D01*
X164136629Y-137343788D01*
X164149336Y-137339118D01*
X164159758Y-137335306D01*
X164167804Y-137332387D01*
X164173382Y-137330393D01*
X164176401Y-137329360D01*
X164176840Y-137329231D01*
X164195738Y-137326067D01*
X164214723Y-137325762D01*
X164233724Y-137328312D01*
X164249207Y-137332510D01*
X164267083Y-137339929D01*
X164283376Y-137349680D01*
X164297947Y-137361621D01*
X164310660Y-137375609D01*
X164321378Y-137391502D01*
X164329964Y-137409158D01*
X164334036Y-137420539D01*
X164338053Y-137433365D01*
X164338053Y-138629923D01*
X164334036Y-138642750D01*
X164326794Y-138661396D01*
X164317339Y-138678364D01*
X164305806Y-138693512D01*
X164292333Y-138706698D01*
X164277057Y-138717780D01*
X164260114Y-138726615D01*
X164249207Y-138730778D01*
X164230815Y-138735510D01*
X164212129Y-138737633D01*
X164193594Y-138737128D01*
X164175654Y-138733976D01*
X164175050Y-138733820D01*
X164172993Y-138733091D01*
X164168371Y-138731321D01*
X164161273Y-138728544D01*
X164151791Y-138724797D01*
X164140013Y-138720116D01*
X164126031Y-138714538D01*
X164109934Y-138708099D01*
X164091812Y-138700836D01*
X164071756Y-138692784D01*
X164049854Y-138683979D01*
X164026199Y-138674459D01*
X164000879Y-138664260D01*
X163973984Y-138653417D01*
X163945606Y-138641967D01*
X163915833Y-138629946D01*
X163884756Y-138617391D01*
X163852465Y-138604338D01*
X163819049Y-138590823D01*
X163784600Y-138576882D01*
X163749207Y-138562553D01*
X163712961Y-138547870D01*
X163675950Y-138532870D01*
X163638266Y-138517591D01*
X163620119Y-138510230D01*
X163582171Y-138494839D01*
X163544866Y-138479713D01*
X163508292Y-138464888D01*
X163472540Y-138450401D01*
X163437699Y-138436288D01*
X163403858Y-138422585D01*
X163371107Y-138409327D01*
X163339536Y-138396553D01*
X163309234Y-138384296D01*
X163280291Y-138372594D01*
X163252796Y-138361483D01*
X163226838Y-138350999D01*
X163202507Y-138341178D01*
X163179893Y-138332056D01*
X163159085Y-138323669D01*
X163140173Y-138316054D01*
X163123246Y-138309246D01*
X163108394Y-138303282D01*
X163095706Y-138298198D01*
X163085271Y-138294030D01*
X163077180Y-138290814D01*
X163071522Y-138288587D01*
X163068386Y-138287384D01*
X163067798Y-138287180D01*
X163060763Y-138285771D01*
X163051795Y-138284787D01*
X163041796Y-138284253D01*
X163031671Y-138284193D01*
X163022323Y-138284629D01*
X163014657Y-138285586D01*
X163013764Y-138285764D01*
X162996106Y-138290929D01*
X162979517Y-138298607D01*
X162964266Y-138308574D01*
X162950618Y-138320607D01*
X162938840Y-138334479D01*
X162929198Y-138349969D01*
X162924028Y-138361235D01*
X162923404Y-138362718D01*
X162922812Y-138363994D01*
X162922252Y-138365137D01*
X162921722Y-138366224D01*
X162921221Y-138367331D01*
X162920750Y-138368532D01*
X162920306Y-138369903D01*
X162919889Y-138371520D01*
X162919499Y-138373458D01*
X162919134Y-138375793D01*
X162918794Y-138378601D01*
X162918477Y-138381956D01*
X162918183Y-138385935D01*
X162917911Y-138390613D01*
X162917661Y-138396065D01*
X162917430Y-138402367D01*
X162917220Y-138409595D01*
X162917027Y-138417824D01*
X162916853Y-138427130D01*
X162916695Y-138437587D01*
X162916554Y-138449273D01*
X162916428Y-138462261D01*
X162916316Y-138476629D01*
X162916218Y-138492450D01*
X162916132Y-138509802D01*
X162916058Y-138528759D01*
X162915996Y-138549397D01*
X162915943Y-138571791D01*
X162915900Y-138596017D01*
X162915865Y-138622151D01*
X162915837Y-138650268D01*
X162915817Y-138680443D01*
X162915802Y-138712753D01*
X162915793Y-138747272D01*
X162915787Y-138784076D01*
X162915785Y-138823241D01*
X162915786Y-138864842D01*
X162915788Y-138908955D01*
X162915791Y-138955656D01*
X162915794Y-139005019D01*
X162915796Y-139057120D01*
X162915797Y-139094685D01*
X162915798Y-139148909D01*
X162915800Y-139200340D01*
X162915804Y-139249052D01*
X162915811Y-139295117D01*
X162915820Y-139338608D01*
X162915832Y-139379600D01*
X162915846Y-139418165D01*
X162915864Y-139454376D01*
X162915884Y-139488307D01*
X162915908Y-139520030D01*
X162915936Y-139549620D01*
X162915968Y-139577148D01*
X162916004Y-139602689D01*
X162916044Y-139626315D01*
X162916088Y-139648100D01*
X162916138Y-139668117D01*
X162916192Y-139686439D01*
X162916251Y-139703140D01*
X162916316Y-139718291D01*
X162916387Y-139731968D01*
X162916463Y-139744242D01*
X162916545Y-139755187D01*
X162916634Y-139764876D01*
X162916729Y-139773383D01*
X162916831Y-139780781D01*
X162916940Y-139787142D01*
X162917055Y-139792540D01*
X162917179Y-139797049D01*
X162917309Y-139800741D01*
X162917448Y-139803689D01*
X162917594Y-139805968D01*
X162917749Y-139807649D01*
X162917900Y-139808740D01*
X162922796Y-139828621D01*
X162930240Y-139847330D01*
X162940088Y-139864675D01*
X162952193Y-139880462D01*
X162966412Y-139894499D01*
X162982599Y-139906593D01*
X162998194Y-139915397D01*
X163017450Y-139923419D01*
X163036658Y-139928594D01*
X163055943Y-139930935D01*
X163075433Y-139930455D01*
X163095252Y-139927167D01*
X163099621Y-139926081D01*
X163104279Y-139924601D01*
X163110963Y-139922131D01*
X163119103Y-139918898D01*
X163128131Y-139915132D01*
X163137477Y-139911059D01*
X163140462Y-139909720D01*
X163143320Y-139908432D01*
X163148726Y-139906002D01*
X163156613Y-139902460D01*
X163166913Y-139897835D01*
X163179559Y-139892159D01*
X163194483Y-139885461D01*
X163211619Y-139877772D01*
X163230898Y-139869122D01*
X163252255Y-139859540D01*
X163275620Y-139849058D01*
X163300927Y-139837705D01*
X163328109Y-139825511D01*
X163357098Y-139812507D01*
X163387827Y-139798724D01*
X163420229Y-139784190D01*
X163454236Y-139768937D01*
X163489781Y-139752994D01*
X163526797Y-139736392D01*
X163565216Y-139719160D01*
X163604971Y-139701330D01*
X163645995Y-139682932D01*
X163688221Y-139663994D01*
X163731580Y-139644549D01*
X163776006Y-139624625D01*
X163821432Y-139604254D01*
X163867789Y-139583464D01*
X163915012Y-139562287D01*
X163963032Y-139540753D01*
X164011782Y-139518892D01*
X164061195Y-139496734D01*
X164111204Y-139474309D01*
X164129551Y-139466081D01*
X164179656Y-139443613D01*
X164229153Y-139421417D01*
X164277977Y-139399523D01*
X164326061Y-139377960D01*
X164373340Y-139356759D01*
X164419747Y-139335947D01*
X164465216Y-139315556D01*
X164509682Y-139295615D01*
X164553078Y-139276153D01*
X164595338Y-139257199D01*
X164636397Y-139238785D01*
X164676189Y-139220939D01*
X164714646Y-139203690D01*
X164751704Y-139187069D01*
X164787297Y-139171105D01*
X164821358Y-139155827D01*
X164853821Y-139141266D01*
X164884621Y-139127450D01*
X164913691Y-139114410D01*
X164940965Y-139102175D01*
X164966378Y-139090774D01*
X164989864Y-139080238D01*
X165011355Y-139070595D01*
X165030787Y-139061876D01*
X165048094Y-139054110D01*
X165063208Y-139047327D01*
X165076066Y-139041555D01*
X165086599Y-139036826D01*
X165094743Y-139033168D01*
X165100432Y-139030611D01*
X165103598Y-139029185D01*
X165104158Y-139028931D01*
X165116148Y-139023793D01*
X165126777Y-139020078D01*
X165137024Y-139017551D01*
X165147866Y-139015978D01*
X165160279Y-139015123D01*
X165161739Y-139015064D01*
X165173476Y-139014868D01*
X165183827Y-139015192D01*
X165192095Y-139016011D01*
X165192549Y-139016082D01*
X165212035Y-139020610D01*
X165230575Y-139027691D01*
X165247933Y-139037122D01*
X165263874Y-139048703D01*
X165278161Y-139062232D01*
X165290559Y-139077508D01*
X165300831Y-139094329D01*
X165308742Y-139112494D01*
X165310070Y-139116428D01*
X165310612Y-139118058D01*
X165311124Y-139119534D01*
X165311607Y-139120938D01*
X165312062Y-139122351D01*
X165312489Y-139123854D01*
X165312890Y-139125529D01*
X165313266Y-139127456D01*
X165313616Y-139129717D01*
X165313943Y-139132394D01*
X165314247Y-139135566D01*
X165314528Y-139139316D01*
X165314788Y-139143725D01*
X165315027Y-139148874D01*
X165315247Y-139154844D01*
X165315448Y-139161716D01*
X165315631Y-139169572D01*
X165315796Y-139178492D01*
X165315946Y-139188559D01*
X165316079Y-139199853D01*
X165316198Y-139212455D01*
X165316304Y-139226447D01*
X165316396Y-139241910D01*
X165316476Y-139258925D01*
X165316545Y-139277573D01*
X165316604Y-139297936D01*
X165316652Y-139320094D01*
X165316692Y-139344130D01*
X165316725Y-139370123D01*
X165316750Y-139398156D01*
X165316768Y-139428310D01*
X165316782Y-139460665D01*
X165316791Y-139495303D01*
X165316796Y-139532306D01*
X165316798Y-139571753D01*
X165316798Y-139613728D01*
X165316797Y-139658310D01*
X165316796Y-139705582D01*
X165316795Y-139755624D01*
X165316795Y-139815197D01*
X165316794Y-139862746D01*
X165316791Y-139907591D01*
X165316786Y-139949812D01*
X165316780Y-139989491D01*
X165316771Y-140026708D01*
X165316760Y-140061545D01*
X165316746Y-140094081D01*
X165316729Y-140124399D01*
X165316707Y-140152578D01*
X165316682Y-140178700D01*
X165316653Y-140202846D01*
X165316619Y-140225096D01*
X165316581Y-140245532D01*
X165316537Y-140264233D01*
X165316487Y-140281282D01*
X165316432Y-140296759D01*
X165316370Y-140310745D01*
X165316302Y-140323320D01*
X165316227Y-140334566D01*
X165316145Y-140344563D01*
X165316056Y-140353393D01*
X165315958Y-140361136D01*
X165315853Y-140367873D01*
X165315739Y-140373685D01*
X165315616Y-140378653D01*
X165315484Y-140382858D01*
X165315342Y-140386380D01*
X165315191Y-140389300D01*
X165315030Y-140391700D01*
X165314858Y-140393660D01*
X165314676Y-140395261D01*
X165314482Y-140396584D01*
X165314277Y-140397710D01*
X165314252Y-140397835D01*
X165308300Y-140420225D01*
X165299927Y-140441239D01*
X165289285Y-140460738D01*
X165276521Y-140478580D01*
X165261785Y-140494625D01*
X165245228Y-140508731D01*
X165226998Y-140520759D01*
X165207244Y-140530568D01*
X165186117Y-140538016D01*
X165163765Y-140542964D01*
X165159419Y-140543606D01*
X165157516Y-140543671D01*
X165152814Y-140543734D01*
X165145383Y-140543796D01*
X165135290Y-140543856D01*
X165122603Y-140543915D01*
X165107391Y-140543972D01*
X165089722Y-140544027D01*
X165069664Y-140544081D01*
X165047285Y-140544133D01*
X165022653Y-140544184D01*
X164995836Y-140544233D01*
X164966903Y-140544280D01*
X164935922Y-140544326D01*
X164902960Y-140544371D01*
X164868086Y-140544413D01*
X164831367Y-140544455D01*
X164792873Y-140544494D01*
X164752672Y-140544532D01*
X164710830Y-140544569D01*
X164667417Y-140544603D01*
X164622501Y-140544637D01*
X164576149Y-140544668D01*
X164528430Y-140544698D01*
X164479413Y-140544727D01*
X164429164Y-140544754D01*
X164377753Y-140544779D01*
X164325247Y-140544803D01*
X164271714Y-140544826D01*
X164217224Y-140544846D01*
X164161843Y-140544865D01*
X164105640Y-140544883D01*
X164048683Y-140544899D01*
X163991040Y-140544913D01*
X163932780Y-140544926D01*
X163873970Y-140544937D01*
X163814678Y-140544947D01*
X163754973Y-140544955D01*
X163694924Y-140544962D01*
X163634597Y-140544967D01*
X163574061Y-140544970D01*
X163513384Y-140544972D01*
X163452635Y-140544973D01*
X163391882Y-140544971D01*
X163331192Y-140544968D01*
X163270633Y-140544964D01*
X163210275Y-140544958D01*
X163150185Y-140544951D01*
X163090430Y-140544942D01*
X163031080Y-140544931D01*
X162972203Y-140544919D01*
X162913866Y-140544905D01*
X162856138Y-140544890D01*
X162799086Y-140544873D01*
X162742780Y-140544855D01*
X162687286Y-140544835D01*
X162632674Y-140544813D01*
X162579011Y-140544790D01*
X162526366Y-140544765D01*
X162474806Y-140544739D01*
X162424400Y-140544712D01*
X162375216Y-140544682D01*
X162327322Y-140544651D01*
X162280785Y-140544619D01*
X162235676Y-140544585D01*
X162192060Y-140544550D01*
X162150007Y-140544513D01*
X162109585Y-140544474D01*
X162070861Y-140544434D01*
X162033905Y-140544392D01*
X161998783Y-140544349D01*
X161965565Y-140544304D01*
X161934318Y-140544258D01*
X161905110Y-140544210D01*
X161878010Y-140544161D01*
X161853086Y-140544110D01*
X161830405Y-140544057D01*
X161810036Y-140544003D01*
X161792048Y-140543948D01*
X161776508Y-140543890D01*
X161763484Y-140543832D01*
X161753044Y-140543772D01*
X161745257Y-140543710D01*
X161740191Y-140543647D01*
X161737914Y-140543582D01*
X161737867Y-140543578D01*
X161705837Y-140539083D01*
X161674290Y-140531813D01*
X161643408Y-140521840D01*
X161613374Y-140509239D01*
X161584370Y-140494084D01*
X161556578Y-140476448D01*
X161537247Y-140462119D01*
X161534100Y-140459439D01*
X161529260Y-140455025D01*
X161522701Y-140448854D01*
X161514398Y-140440899D01*
X161504324Y-140431136D01*
X161492454Y-140419540D01*
X161478764Y-140406085D01*
X161463226Y-140390747D01*
X161445817Y-140373500D01*
X161426510Y-140354320D01*
X161405280Y-140333181D01*
X161382102Y-140310058D01*
X161356949Y-140284927D01*
X161346657Y-140274634D01*
X161327734Y-140255697D01*
X161309235Y-140237170D01*
X161291274Y-140219169D01*
X161273963Y-140201806D01*
X161257416Y-140185195D01*
X161241746Y-140169451D01*
X161227066Y-140154687D01*
X161213489Y-140141018D01*
X161201129Y-140128558D01*
X161190099Y-140117420D01*
X161180512Y-140107718D01*
X161172481Y-140099566D01*
X161166120Y-140093079D01*
X161161540Y-140088371D01*
X161158857Y-140085555D01*
X161158602Y-140085277D01*
X161138209Y-140060747D01*
X161119926Y-140034336D01*
X161103858Y-140006214D01*
X161090111Y-139976551D01*
X161089479Y-139975012D01*
X161083651Y-139959859D01*
X161078628Y-139944774D01*
X161074193Y-139928998D01*
X161070130Y-139911768D01*
X161066778Y-139895266D01*
X161063766Y-139879503D01*
X161063306Y-138054572D01*
X161063284Y-137966834D01*
X161063263Y-137881916D01*
X161063244Y-137799772D01*
X161063226Y-137720356D01*
X161063209Y-137643623D01*
X161063194Y-137569525D01*
X161063180Y-137498018D01*
X161063167Y-137429056D01*
X161063156Y-137362592D01*
X161063146Y-137298580D01*
X161063139Y-137236975D01*
X161063132Y-137177730D01*
X161063128Y-137120801D01*
X161063125Y-137066139D01*
X161063124Y-137013701D01*
X161063124Y-136963439D01*
X161063127Y-136915309D01*
X161063132Y-136869263D01*
X161063138Y-136825256D01*
X161063146Y-136783242D01*
X161063157Y-136743175D01*
X161063169Y-136705010D01*
X161063184Y-136668699D01*
X161063201Y-136634198D01*
X161063220Y-136601460D01*
X161063241Y-136570439D01*
X161063265Y-136541090D01*
X161063291Y-136513366D01*
X161063319Y-136487222D01*
X161063350Y-136462612D01*
X161063383Y-136439488D01*
X161063419Y-136417807D01*
X161063458Y-136397521D01*
X161063498Y-136378585D01*
X161063542Y-136360953D01*
X161063588Y-136344579D01*
X161063637Y-136329417D01*
X161063689Y-136315420D01*
X161063744Y-136302544D01*
X161063802Y-136290742D01*
X161063862Y-136279968D01*
X161063926Y-136270176D01*
X161063992Y-136261320D01*
X161064062Y-136253355D01*
X161064134Y-136246234D01*
X161064210Y-136239911D01*
X161064289Y-136234341D01*
X161064371Y-136229478D01*
X161064456Y-136225275D01*
X161064545Y-136221686D01*
X161064637Y-136218666D01*
X161064733Y-136216169D01*
X161064832Y-136214149D01*
X161064934Y-136212560D01*
X161065040Y-136211355D01*
X161065079Y-136211012D01*
X161070156Y-136180403D01*
X161077964Y-136149988D01*
X161088370Y-136120078D01*
X161101244Y-136090986D01*
X161116451Y-136063025D01*
X161133861Y-136036507D01*
X161145532Y-136021139D01*
X161147601Y-136018805D01*
X161151569Y-136014573D01*
X161157308Y-136008571D01*
X161164693Y-136000926D01*
X161173595Y-135991769D01*
X161183887Y-135981226D01*
X161195442Y-135969426D01*
X161208132Y-135956498D01*
X161221831Y-135942569D01*
X161236411Y-135927769D01*
X161251745Y-135912225D01*
X161267705Y-135896065D01*
X161284165Y-135879418D01*
X161300997Y-135862413D01*
X161318073Y-135845177D01*
X161335267Y-135827839D01*
X161352452Y-135810527D01*
X161369499Y-135793370D01*
X161386282Y-135776495D01*
X161402674Y-135760032D01*
X161418547Y-135744108D01*
X161433774Y-135728851D01*
X161448227Y-135714391D01*
X161461781Y-135700855D01*
X161474306Y-135688371D01*
X161485676Y-135677068D01*
X161495764Y-135667075D01*
X161504442Y-135658519D01*
X161511584Y-135651528D01*
X161517061Y-135646232D01*
X161520747Y-135642759D01*
X161521573Y-135642013D01*
X161546439Y-135621615D01*
X161572123Y-135603784D01*
X161598854Y-135588408D01*
X161626861Y-135575377D01*
X161656373Y-135564580D01*
X161687618Y-135555906D01*
X161708491Y-135551445D01*
X161728553Y-135547614D01*
X163439560Y-135547156D01*
X163530975Y-135547132D01*
X163619553Y-135547111D01*
X163705321Y-135547092D01*
X163788308Y-135547076D01*
X163868542Y-135547062D01*
X163946051Y-135547050D01*
X164020863Y-135547041D01*
X164093007Y-135547035D01*
X164162511Y-135547031D01*
X164229403Y-135547030D01*
X164293711Y-135547031D01*
G37*
G36*
X155945407Y-135654290D02*
G01*
X155952112Y-135635016D01*
X155961244Y-135617122D01*
X155972632Y-135600784D01*
X155986102Y-135586174D01*
X156001483Y-135573464D01*
X156018602Y-135562829D01*
X156037289Y-135554441D01*
X156048124Y-135550862D01*
X156059588Y-135547531D01*
X157825049Y-135547098D01*
X157917776Y-135547076D01*
X158007665Y-135547056D01*
X158094747Y-135547039D01*
X158179049Y-135547023D01*
X158260600Y-135547011D01*
X158339430Y-135547000D01*
X158415567Y-135546992D01*
X158489040Y-135546986D01*
X158559879Y-135546983D01*
X158628111Y-135546982D01*
X158693766Y-135546984D01*
X158756872Y-135546988D01*
X158817459Y-135546994D01*
X158875556Y-135547003D01*
X158931190Y-135547015D01*
X158984392Y-135547029D01*
X159035190Y-135547045D01*
X159083613Y-135547064D01*
X159129690Y-135547086D01*
X159173449Y-135547111D01*
X159214920Y-135547137D01*
X159254131Y-135547167D01*
X159291112Y-135547199D01*
X159325890Y-135547234D01*
X159358496Y-135547272D01*
X159388958Y-135547312D01*
X159417304Y-135547356D01*
X159443564Y-135547401D01*
X159467767Y-135547450D01*
X159489941Y-135547502D01*
X159510116Y-135547556D01*
X159528319Y-135547613D01*
X159544581Y-135547673D01*
X159558930Y-135547736D01*
X159571394Y-135547802D01*
X159582004Y-135547870D01*
X159590786Y-135547942D01*
X159597772Y-135548016D01*
X159602988Y-135548094D01*
X159606465Y-135548174D01*
X159608218Y-135548256D01*
X159644688Y-135552951D01*
X159680354Y-135560385D01*
X159715140Y-135570530D01*
X159748973Y-135583354D01*
X159781778Y-135598827D01*
X159813481Y-135616918D01*
X159844008Y-135637596D01*
X159865826Y-135654571D01*
X159868096Y-135656618D01*
X159872281Y-135660587D01*
X159878272Y-135666368D01*
X159885959Y-135673854D01*
X159895236Y-135682936D01*
X159905991Y-135693505D01*
X159918118Y-135705453D01*
X159931507Y-135718671D01*
X159946049Y-135733052D01*
X159961636Y-135748486D01*
X159978159Y-135764865D01*
X159995508Y-135782081D01*
X160013576Y-135800026D01*
X160032254Y-135818590D01*
X160051432Y-135837665D01*
X160071002Y-135857143D01*
X160090856Y-135876916D01*
X160110884Y-135896875D01*
X160130977Y-135916911D01*
X160151028Y-135936916D01*
X160170927Y-135956782D01*
X160190565Y-135976400D01*
X160209833Y-135995662D01*
X160228624Y-136014459D01*
X160246828Y-136032683D01*
X160264336Y-136050225D01*
X160281040Y-136066977D01*
X160296830Y-136082831D01*
X160311599Y-136097677D01*
X160325236Y-136111409D01*
X160337635Y-136123916D01*
X160348685Y-136135091D01*
X160358278Y-136144825D01*
X160366305Y-136153010D01*
X160372658Y-136159537D01*
X160377227Y-136164298D01*
X160379748Y-136167010D01*
X160403582Y-136195666D01*
X160424830Y-136225559D01*
X160443485Y-136256669D01*
X160459538Y-136288976D01*
X160472981Y-136322459D01*
X160483803Y-136357098D01*
X160491996Y-136392875D01*
X160497552Y-136429767D01*
X160498269Y-136436504D01*
X160498400Y-136439255D01*
X160498525Y-136444747D01*
X160498644Y-136452851D01*
X160498757Y-136463443D01*
X160498865Y-136476395D01*
X160498966Y-136491582D01*
X160499062Y-136508876D01*
X160499151Y-136528153D01*
X160499235Y-136549285D01*
X160499313Y-136572146D01*
X160499385Y-136596609D01*
X160499451Y-136622549D01*
X160499511Y-136649840D01*
X160499565Y-136678354D01*
X160499614Y-136707966D01*
X160499656Y-136738548D01*
X160499693Y-136769976D01*
X160499724Y-136802122D01*
X160499748Y-136834860D01*
X160499767Y-136868064D01*
X160499780Y-136901608D01*
X160499787Y-136935365D01*
X160499788Y-136969209D01*
X160499784Y-137003013D01*
X160499773Y-137036652D01*
X160499756Y-137069998D01*
X160499734Y-137102927D01*
X160499705Y-137135310D01*
X160499671Y-137167022D01*
X160499631Y-137197937D01*
X160499585Y-137227929D01*
X160499533Y-137256870D01*
X160499475Y-137284635D01*
X160499411Y-137311098D01*
X160499341Y-137336131D01*
X160499265Y-137359609D01*
X160499184Y-137381405D01*
X160499096Y-137401394D01*
X160499002Y-137419448D01*
X160498903Y-137435442D01*
X160498798Y-137449248D01*
X160498686Y-137460742D01*
X160498569Y-137469796D01*
X160498446Y-137476284D01*
X160498317Y-137480080D01*
X160498279Y-137480654D01*
X160493229Y-137524241D01*
X160485480Y-137566917D01*
X160475047Y-137608635D01*
X160461949Y-137649348D01*
X160446199Y-137689008D01*
X160427816Y-137727568D01*
X160406814Y-137764981D01*
X160394158Y-137785044D01*
X160369619Y-137819881D01*
X160342936Y-137852945D01*
X160314237Y-137884118D01*
X160283654Y-137913281D01*
X160251314Y-137940319D01*
X160217350Y-137965112D01*
X160181890Y-137987544D01*
X160152319Y-138003820D01*
X160148825Y-138005548D01*
X160142856Y-138008411D01*
X160134542Y-138012349D01*
X160124013Y-138017303D01*
X160111399Y-138023210D01*
X160096830Y-138030012D01*
X160080435Y-138037648D01*
X160062344Y-138046057D01*
X160042687Y-138055180D01*
X160021594Y-138064956D01*
X159999195Y-138075325D01*
X159975620Y-138086227D01*
X159950999Y-138097602D01*
X159925461Y-138109388D01*
X159899136Y-138121526D01*
X159872154Y-138133956D01*
X159844646Y-138146617D01*
X159840570Y-138148492D01*
X159813174Y-138161096D01*
X159786383Y-138173427D01*
X159760319Y-138185426D01*
X159735105Y-138197039D01*
X159710865Y-138208207D01*
X159687722Y-138218874D01*
X159665800Y-138228982D01*
X159645221Y-138238476D01*
X159626108Y-138247298D01*
X159608586Y-138255391D01*
X159592778Y-138262698D01*
X159578805Y-138269163D01*
X159566793Y-138274728D01*
X159556864Y-138279337D01*
X159549141Y-138282932D01*
X159543747Y-138285457D01*
X159540807Y-138286856D01*
X159540494Y-138287010D01*
X159521500Y-138297438D01*
X159504068Y-138308953D01*
X159487419Y-138322118D01*
X159471025Y-138337250D01*
X159452429Y-138357462D01*
X159436230Y-138379134D01*
X159422387Y-138402346D01*
X159410856Y-138427179D01*
X159401596Y-138453710D01*
X159395290Y-138478532D01*
X159394074Y-138484392D01*
X159393142Y-138489492D01*
X159392458Y-138494355D01*
X159391982Y-138499505D01*
X159391678Y-138505465D01*
X159391508Y-138512760D01*
X159391434Y-138521913D01*
X159391419Y-138532479D01*
X159391437Y-138543815D01*
X159391517Y-138552809D01*
X159391696Y-138559985D01*
X159392012Y-138565865D01*
X159392502Y-138570975D01*
X159393204Y-138575838D01*
X159394156Y-138580977D01*
X159395290Y-138586426D01*
X159402643Y-138614418D01*
X159412411Y-138640973D01*
X159424533Y-138666000D01*
X159438947Y-138689410D01*
X159455592Y-138711111D01*
X159474409Y-138731012D01*
X159495336Y-138749024D01*
X159512596Y-138761380D01*
X159514743Y-138762675D01*
X159519296Y-138765322D01*
X159526163Y-138769267D01*
X159535250Y-138774459D01*
X159546466Y-138780845D01*
X159559718Y-138788372D01*
X159574912Y-138796989D01*
X159591956Y-138806643D01*
X159610758Y-138817281D01*
X159631224Y-138828852D01*
X159653263Y-138841303D01*
X159676781Y-138854581D01*
X159701686Y-138868635D01*
X159727886Y-138883412D01*
X159755286Y-138898859D01*
X159783795Y-138914924D01*
X159813321Y-138931556D01*
X159843770Y-138948701D01*
X159875049Y-138966307D01*
X159907067Y-138984322D01*
X159939730Y-139002694D01*
X159962232Y-139015346D01*
X159995209Y-139033888D01*
X160027572Y-139052086D01*
X160059230Y-139069890D01*
X160090091Y-139087248D01*
X160120066Y-139104109D01*
X160149063Y-139120422D01*
X160176990Y-139136136D01*
X160203758Y-139151199D01*
X160229275Y-139165560D01*
X160253450Y-139179168D01*
X160276192Y-139191972D01*
X160297410Y-139203921D01*
X160317013Y-139214963D01*
X160334911Y-139225047D01*
X160351012Y-139234122D01*
X160365226Y-139242136D01*
X160377460Y-139249039D01*
X160387626Y-139254780D01*
X160395630Y-139259306D01*
X160401384Y-139262567D01*
X160404794Y-139264512D01*
X160405746Y-139265067D01*
X160424599Y-139278514D01*
X160441730Y-139294150D01*
X160457010Y-139311779D01*
X160470306Y-139331207D01*
X160481488Y-139352237D01*
X160490424Y-139374674D01*
X160496984Y-139398323D01*
X160497839Y-139402377D01*
X160498073Y-139403637D01*
X160498294Y-139405072D01*
X160498501Y-139406775D01*
X160498694Y-139408836D01*
X160498875Y-139411347D01*
X160499043Y-139414399D01*
X160499200Y-139418084D01*
X160499346Y-139422494D01*
X160499481Y-139427719D01*
X160499606Y-139433852D01*
X160499722Y-139440984D01*
X160499829Y-139449205D01*
X160499927Y-139458609D01*
X160500018Y-139469285D01*
X160500102Y-139481326D01*
X160500179Y-139494824D01*
X160500250Y-139509869D01*
X160500315Y-139526553D01*
X160500375Y-139544967D01*
X160500431Y-139565203D01*
X160500483Y-139587353D01*
X160500531Y-139611508D01*
X160500577Y-139637759D01*
X160500620Y-139666198D01*
X160500662Y-139696916D01*
X160500703Y-139730006D01*
X160500743Y-139765557D01*
X160500783Y-139803662D01*
X160500823Y-139844412D01*
X160500865Y-139887899D01*
X160500882Y-139906730D01*
X160500925Y-139956523D01*
X160500959Y-140003490D01*
X160500983Y-140047675D01*
X160500997Y-140089118D01*
X160501001Y-140127860D01*
X160500996Y-140163944D01*
X160500980Y-140197410D01*
X160500955Y-140228300D01*
X160500919Y-140256655D01*
X160500873Y-140282517D01*
X160500817Y-140305927D01*
X160500750Y-140326926D01*
X160500673Y-140345557D01*
X160500585Y-140361859D01*
X160500487Y-140375876D01*
X160500377Y-140387647D01*
X160500257Y-140397216D01*
X160500126Y-140404622D01*
X160499984Y-140409907D01*
X160499830Y-140413114D01*
X160499785Y-140413650D01*
X160496348Y-140434244D01*
X160490346Y-140453627D01*
X160481825Y-140471702D01*
X160470832Y-140488374D01*
X160457412Y-140503550D01*
X160454558Y-140506288D01*
X160439594Y-140518588D01*
X160423422Y-140528546D01*
X160405651Y-140536379D01*
X160392293Y-140540646D01*
X160378663Y-140544417D01*
X159581196Y-140544835D01*
X159519648Y-140544866D01*
X159460919Y-140544892D01*
X159404965Y-140544913D01*
X159351737Y-140544928D01*
X159301191Y-140544939D01*
X159253279Y-140544945D01*
X159207956Y-140544945D01*
X159165176Y-140544940D01*
X159124891Y-140544930D01*
X159087057Y-140544915D01*
X159051626Y-140544894D01*
X159018552Y-140544867D01*
X158987790Y-140544835D01*
X158959293Y-140544797D01*
X158933015Y-140544753D01*
X158908909Y-140544704D01*
X158886929Y-140544648D01*
X158867030Y-140544587D01*
X158849164Y-140544519D01*
X158833286Y-140544446D01*
X158819350Y-140544366D01*
X158807308Y-140544280D01*
X158797116Y-140544188D01*
X158788726Y-140544090D01*
X158782092Y-140543985D01*
X158777169Y-140543873D01*
X158773910Y-140543755D01*
X158772299Y-140543635D01*
X158753279Y-140539540D01*
X158734861Y-140532839D01*
X158717437Y-140523754D01*
X158701400Y-140512507D01*
X158687141Y-140499320D01*
X158680502Y-140491698D01*
X158673411Y-140481773D01*
X158666450Y-140470005D01*
X158660132Y-140457395D01*
X158654972Y-140444940D01*
X158652350Y-140436942D01*
X158649087Y-140425478D01*
X158648340Y-139662403D01*
X158647594Y-138899328D01*
X158643822Y-138885698D01*
X158636906Y-138865764D01*
X158627708Y-138847519D01*
X158616336Y-138831068D01*
X158602898Y-138816517D01*
X158587500Y-138803970D01*
X158570249Y-138793532D01*
X158551253Y-138785309D01*
X158536965Y-138780925D01*
X158530515Y-138779430D01*
X158524336Y-138778455D01*
X158517511Y-138777907D01*
X158509122Y-138777692D01*
X158505010Y-138777679D01*
X158490598Y-138778187D01*
X158477854Y-138779813D01*
X158465727Y-138782769D01*
X158453168Y-138787261D01*
X158449839Y-138788647D01*
X158446525Y-138790107D01*
X158440809Y-138792679D01*
X158432857Y-138796286D01*
X158422835Y-138800852D01*
X158410907Y-138806301D01*
X158397239Y-138812558D01*
X158381997Y-138819544D01*
X158365345Y-138827185D01*
X158347449Y-138835405D01*
X158328475Y-138844126D01*
X158308587Y-138853272D01*
X158287952Y-138862769D01*
X158266733Y-138872538D01*
X158245098Y-138882504D01*
X158223211Y-138892591D01*
X158201237Y-138902722D01*
X158179341Y-138912822D01*
X158157690Y-138922813D01*
X158136448Y-138932621D01*
X158115781Y-138942168D01*
X158095854Y-138951378D01*
X158076833Y-138960175D01*
X158058882Y-138968483D01*
X158042168Y-138976225D01*
X158026855Y-138983326D01*
X158013109Y-138989709D01*
X158001095Y-138995298D01*
X157990978Y-139000016D01*
X157982924Y-139003788D01*
X157977099Y-139006537D01*
X157973666Y-139008186D01*
X157973164Y-139008438D01*
X157947330Y-139023187D01*
X157922942Y-139040332D01*
X157900164Y-139059703D01*
X157879161Y-139081131D01*
X157860098Y-139104446D01*
X157843142Y-139129479D01*
X157828457Y-139156060D01*
X157827863Y-139157269D01*
X157818372Y-139178127D01*
X157810636Y-139198531D01*
X157804373Y-139219372D01*
X157799302Y-139241544D01*
X157796666Y-139256146D01*
X157793595Y-139274775D01*
X157792837Y-139850843D01*
X157792773Y-139899283D01*
X157792711Y-139944940D01*
X157792651Y-139987898D01*
X157792593Y-140028241D01*
X157792537Y-140066051D01*
X157792481Y-140101413D01*
X157792425Y-140134410D01*
X157792369Y-140165125D01*
X157792312Y-140193642D01*
X157792254Y-140220044D01*
X157792194Y-140244414D01*
X157792133Y-140266837D01*
X157792068Y-140287396D01*
X157792001Y-140306173D01*
X157791930Y-140323253D01*
X157791855Y-140338720D01*
X157791775Y-140352655D01*
X157791691Y-140365144D01*
X157791601Y-140376269D01*
X157791505Y-140386114D01*
X157791403Y-140394763D01*
X157791294Y-140402298D01*
X157791177Y-140408804D01*
X157791053Y-140414364D01*
X157790920Y-140419061D01*
X157790779Y-140422978D01*
X157790629Y-140426200D01*
X157790469Y-140428810D01*
X157790298Y-140430891D01*
X157790117Y-140432526D01*
X157789925Y-140433800D01*
X157789722Y-140434795D01*
X157789532Y-140435509D01*
X157784188Y-140451392D01*
X157778102Y-140465231D01*
X157773588Y-140473512D01*
X157761970Y-140490513D01*
X157748442Y-140505381D01*
X157733031Y-140518096D01*
X157715762Y-140528640D01*
X157696663Y-140536991D01*
X157683182Y-140541261D01*
X157671718Y-140544399D01*
X156871385Y-140544642D01*
X156813163Y-140544659D01*
X156757740Y-140544673D01*
X156705049Y-140544685D01*
X156655023Y-140544694D01*
X156607593Y-140544700D01*
X156562695Y-140544702D01*
X156520259Y-140544702D01*
X156480219Y-140544698D01*
X156442508Y-140544691D01*
X156407059Y-140544679D01*
X156373805Y-140544664D01*
X156342678Y-140544645D01*
X156313611Y-140544622D01*
X156286537Y-140544595D01*
X156261389Y-140544563D01*
X156238100Y-140544526D01*
X156216603Y-140544485D01*
X156196831Y-140544439D01*
X156178715Y-140544388D01*
X156162191Y-140544331D01*
X156147189Y-140544270D01*
X156133643Y-140544202D01*
X156121486Y-140544130D01*
X156110651Y-140544051D01*
X156101070Y-140543967D01*
X156092677Y-140543876D01*
X156085404Y-140543780D01*
X156079184Y-140543677D01*
X156073950Y-140543567D01*
X156069635Y-140543451D01*
X156066171Y-140543328D01*
X156063493Y-140543198D01*
X156061531Y-140543061D01*
X156060220Y-140542917D01*
X156059932Y-140542870D01*
X156040183Y-140537892D01*
X156021728Y-140530420D01*
X156004713Y-140520587D01*
X155989284Y-140508525D01*
X155975588Y-140494367D01*
X155963771Y-140478245D01*
X155953979Y-140460292D01*
X155946360Y-140440640D01*
X155946098Y-140439808D01*
X155942082Y-140426911D01*
X155942082Y-138104011D01*
X157793523Y-138104011D01*
X157796740Y-138116631D01*
X157803168Y-138136498D01*
X157811911Y-138154686D01*
X157822999Y-138171253D01*
X157836466Y-138186253D01*
X157836738Y-138186517D01*
X157852528Y-138199993D01*
X157869273Y-138210798D01*
X157887123Y-138219011D01*
X157906233Y-138224712D01*
X157911615Y-138225829D01*
X157921639Y-138227084D01*
X157933340Y-138227528D01*
X157945664Y-138227198D01*
X157957554Y-138226128D01*
X157967955Y-138224356D01*
X157970037Y-138223849D01*
X157977482Y-138221651D01*
X157985725Y-138218829D01*
X157992965Y-138216001D01*
X157996635Y-138214387D01*
X158002673Y-138211675D01*
X158010915Y-138207941D01*
X158021196Y-138203259D01*
X158033354Y-138197707D01*
X158047224Y-138191359D01*
X158062641Y-138184291D01*
X158079444Y-138176578D01*
X158097466Y-138168297D01*
X158116546Y-138159523D01*
X158136518Y-138150332D01*
X158157219Y-138140799D01*
X158178485Y-138131000D01*
X158200152Y-138121010D01*
X158222056Y-138110906D01*
X158244034Y-138100762D01*
X158265921Y-138090655D01*
X158287554Y-138080660D01*
X158308768Y-138070853D01*
X158329401Y-138061309D01*
X158349287Y-138052105D01*
X158368264Y-138043315D01*
X158386167Y-138035015D01*
X158402832Y-138027281D01*
X158418096Y-138020189D01*
X158431794Y-138013814D01*
X158443763Y-138008232D01*
X158453839Y-138003518D01*
X158461859Y-137999749D01*
X158467657Y-137996999D01*
X158471070Y-137995345D01*
X158471658Y-137995046D01*
X158497575Y-137979821D01*
X158521845Y-137962333D01*
X158544348Y-137942742D01*
X158564964Y-137921209D01*
X158583573Y-137897894D01*
X158600057Y-137872960D01*
X158614294Y-137846566D01*
X158626166Y-137818874D01*
X158635554Y-137790045D01*
X158640996Y-137767255D01*
X158641558Y-137764522D01*
X158642086Y-137761984D01*
X158642583Y-137759553D01*
X158643049Y-137757142D01*
X158643485Y-137754662D01*
X158643893Y-137752024D01*
X158644273Y-137749142D01*
X158644625Y-137745927D01*
X158644952Y-137742290D01*
X158645255Y-137738145D01*
X158645533Y-137733402D01*
X158645788Y-137727974D01*
X158646022Y-137721773D01*
X158646234Y-137714710D01*
X158646427Y-137706698D01*
X158646600Y-137697649D01*
X158646756Y-137687474D01*
X158646894Y-137676085D01*
X158647017Y-137663395D01*
X158647124Y-137649315D01*
X158647217Y-137633758D01*
X158647297Y-137616635D01*
X158647366Y-137597858D01*
X158647423Y-137577339D01*
X158647469Y-137554990D01*
X158647507Y-137530723D01*
X158647536Y-137504450D01*
X158647558Y-137476083D01*
X158647574Y-137445534D01*
X158647585Y-137412715D01*
X158647592Y-137377538D01*
X158647595Y-137339914D01*
X158647595Y-137256975D01*
X158647594Y-137211485D01*
X158647594Y-137127047D01*
X158647595Y-137082164D01*
X158647595Y-137039970D01*
X158647594Y-137000379D01*
X158647590Y-136963301D01*
X158647583Y-136928649D01*
X158647571Y-136896334D01*
X158647554Y-136866269D01*
X158647530Y-136838366D01*
X158647499Y-136812535D01*
X158647459Y-136788690D01*
X158647410Y-136766742D01*
X158647351Y-136746603D01*
X158647280Y-136728185D01*
X158647196Y-136711400D01*
X158647100Y-136696160D01*
X158646989Y-136682376D01*
X158646862Y-136669962D01*
X158646720Y-136658827D01*
X158646560Y-136648886D01*
X158646382Y-136640049D01*
X158646184Y-136632228D01*
X158645967Y-136625335D01*
X158645728Y-136619283D01*
X158645467Y-136613983D01*
X158645182Y-136609347D01*
X158644874Y-136605287D01*
X158644540Y-136601714D01*
X158644180Y-136598542D01*
X158643793Y-136595681D01*
X158643378Y-136593044D01*
X158642934Y-136590543D01*
X158642460Y-136588089D01*
X158641955Y-136585595D01*
X158641418Y-136582972D01*
X158640966Y-136580727D01*
X158633604Y-136550948D01*
X158623617Y-136522134D01*
X158611127Y-136494447D01*
X158596260Y-136468048D01*
X158579137Y-136443099D01*
X158559885Y-136419761D01*
X158538625Y-136398196D01*
X158515482Y-136378564D01*
X158490581Y-136361027D01*
X158464043Y-136345747D01*
X158458560Y-136342981D01*
X158455443Y-136341592D01*
X158449826Y-136339251D01*
X158441878Y-136336025D01*
X158431772Y-136331979D01*
X158419679Y-136327181D01*
X158405772Y-136321696D01*
X158390221Y-136315590D01*
X158373200Y-136308930D01*
X158354879Y-136301781D01*
X158335431Y-136294210D01*
X158315026Y-136286284D01*
X158293838Y-136278068D01*
X158272037Y-136269628D01*
X158249796Y-136261031D01*
X158227285Y-136252343D01*
X158204678Y-136243630D01*
X158182146Y-136234958D01*
X158159859Y-136226394D01*
X158137992Y-136218004D01*
X158116714Y-136209853D01*
X158096197Y-136202009D01*
X158076615Y-136194536D01*
X158058137Y-136187503D01*
X158040937Y-136180973D01*
X158025186Y-136175015D01*
X158011055Y-136169694D01*
X157998716Y-136165076D01*
X157988342Y-136161227D01*
X157980103Y-136158214D01*
X157974172Y-136156103D01*
X157970720Y-136154959D01*
X157970499Y-136154895D01*
X157966222Y-136153867D01*
X157961508Y-136153140D01*
X157955790Y-136152672D01*
X157948499Y-136152422D01*
X157939065Y-136152347D01*
X157936107Y-136152351D01*
X157926751Y-136152411D01*
X157919630Y-136152572D01*
X157914112Y-136152902D01*
X157909566Y-136153465D01*
X157905361Y-136154328D01*
X157900866Y-136155557D01*
X157898452Y-136156287D01*
X157878807Y-136163735D01*
X157860810Y-136173432D01*
X157844598Y-136185228D01*
X157830309Y-136198972D01*
X157818079Y-136214516D01*
X157808046Y-136231708D01*
X157800346Y-136250400D01*
X157795389Y-136269049D01*
X157795260Y-136270123D01*
X157795137Y-136272070D01*
X157795020Y-136274950D01*
X157794908Y-136278821D01*
X157794802Y-136283743D01*
X157794701Y-136289776D01*
X157794604Y-136296977D01*
X157794514Y-136305407D01*
X157794427Y-136315124D01*
X157794346Y-136326189D01*
X157794270Y-136338659D01*
X157794198Y-136352595D01*
X157794130Y-136368056D01*
X157794067Y-136385100D01*
X157794008Y-136403788D01*
X157793953Y-136424177D01*
X157793902Y-136446328D01*
X157793854Y-136470300D01*
X157793811Y-136496151D01*
X157793771Y-136523942D01*
X157793735Y-136553731D01*
X157793702Y-136585577D01*
X157793672Y-136619540D01*
X157793645Y-136655680D01*
X157793621Y-136694054D01*
X157793601Y-136734723D01*
X157793583Y-136777745D01*
X157793567Y-136823181D01*
X157793554Y-136871088D01*
X157793544Y-136921527D01*
X157793536Y-136974556D01*
X157793530Y-137030235D01*
X157793526Y-137088622D01*
X157793523Y-137149778D01*
X157793523Y-138104011D01*
X155942082Y-138104011D01*
X155942082Y-135666471D01*
X155945407Y-135654290D01*
G37*
D12*
%TO.C,JP4*%
X138500000Y-133700000D02*
X138500000Y-132300000D01*
X139200000Y-131600000D02*
X139800000Y-131600000D01*
X140500000Y-132300000D02*
X140500000Y-133700000D01*
X139800000Y-134400000D02*
X139200000Y-134400000D01*
X140500000Y-132300000D02*
G75*
G03*
X139800000Y-131600000I-699999J1D01*
G01*
X138500000Y-133700000D02*
G75*
G03*
X139200000Y-134400000I699999J-1D01*
G01*
X139800000Y-134400000D02*
G75*
G03*
X140500000Y-133700000I1J699999D01*
G01*
X139200000Y-131600000D02*
G75*
G03*
X138500000Y-132300000I-1J-699999D01*
G01*
%TO.C,JP2*%
X135500000Y-132300000D02*
X135500000Y-133700000D01*
X134200000Y-131600000D02*
X134800000Y-131600000D01*
X133500000Y-133700000D02*
X133500000Y-132300000D01*
X134800000Y-134400000D02*
X134200000Y-134400000D01*
X134200000Y-131600000D02*
G75*
G03*
X133500000Y-132300000I-1J-699999D01*
G01*
X135500000Y-132300000D02*
G75*
G03*
X134800000Y-131600000I-699999J1D01*
G01*
X134800000Y-134400000D02*
G75*
G03*
X135500000Y-133700000I1J699999D01*
G01*
X133500000Y-133700000D02*
G75*
G03*
X134200000Y-134400000I699999J-1D01*
G01*
%TO.C,C6*%
X154490000Y-132892164D02*
X154490000Y-133107836D01*
X155210000Y-132892164D02*
X155210000Y-133107836D01*
%TO.C,C4*%
X151210000Y-132892164D02*
X151210000Y-133107836D01*
X150490000Y-132892164D02*
X150490000Y-133107836D01*
%TO.C,C1*%
X144490000Y-132892164D02*
X144490000Y-133107836D01*
X145210000Y-132892164D02*
X145210000Y-133107836D01*
%TO.C,JP3*%
X136700000Y-131600000D02*
X137300000Y-131600000D01*
X138000000Y-132300000D02*
X138000000Y-133700000D01*
X136000000Y-133700000D02*
X136000000Y-132300000D01*
X137300000Y-134400000D02*
X136700000Y-134400000D01*
X137300000Y-134400000D02*
G75*
G03*
X138000000Y-133700000I1J699999D01*
G01*
X136700000Y-131600000D02*
G75*
G03*
X136000000Y-132300000I-1J-699999D01*
G01*
X136000000Y-133700000D02*
G75*
G03*
X136700000Y-134400000I699999J-1D01*
G01*
X138000000Y-132300000D02*
G75*
G03*
X137300000Y-131600000I-699999J1D01*
G01*
%TO.C,C7*%
X157490000Y-132892164D02*
X157490000Y-133107836D01*
X158210000Y-132892164D02*
X158210000Y-133107836D01*
%TO.C,C3*%
X150210000Y-132892164D02*
X150210000Y-133107836D01*
X149490000Y-132892164D02*
X149490000Y-133107836D01*
%TO.C,C5*%
X154210000Y-132892164D02*
X154210000Y-133107836D01*
X153490000Y-132892164D02*
X153490000Y-133107836D01*
%TO.C,C8*%
X158490000Y-132892164D02*
X158490000Y-133107836D01*
X159210000Y-132892164D02*
X159210000Y-133107836D01*
%TO.C,C2*%
X146210000Y-132892164D02*
X146210000Y-133107836D01*
X145490000Y-132892164D02*
X145490000Y-133107836D01*
%TD*%
M02*
