%TF.GenerationSoftware,KiCad,Pcbnew,(6.0.1)*%
%TF.CreationDate,2022-02-11T10:22:36+08:00*%
%TF.ProjectId,Wyse-5070-PCIe-Riser,57797365-2d35-4303-9730-2d504349652d,rev?*%
%TF.SameCoordinates,Original*%
%TF.FileFunction,Legend,Bot*%
%TF.FilePolarity,Positive*%
%FSLAX46Y46*%
G04 Gerber Fmt 4.6, Leading zero omitted, Abs format (unit mm)*
G04 Created by KiCad (PCBNEW (6.0.1)) date 2022-02-11 10:22:36*
%MOMM*%
%LPD*%
G01*
G04 APERTURE LIST*
%ADD10C,0.150000*%
%ADD11C,0.300000*%
%ADD12C,0.120000*%
G04 APERTURE END LIST*
D10*
X176119047Y-132452380D02*
X176119047Y-133166666D01*
X176166666Y-133309523D01*
X176261904Y-133404761D01*
X176404761Y-133452380D01*
X176500000Y-133452380D01*
X175166666Y-133452380D02*
X175642857Y-133452380D01*
X175642857Y-132452380D01*
X174261904Y-133357142D02*
X174309523Y-133404761D01*
X174452380Y-133452380D01*
X174547619Y-133452380D01*
X174690476Y-133404761D01*
X174785714Y-133309523D01*
X174833333Y-133214285D01*
X174880952Y-133023809D01*
X174880952Y-132880952D01*
X174833333Y-132690476D01*
X174785714Y-132595238D01*
X174690476Y-132500000D01*
X174547619Y-132452380D01*
X174452380Y-132452380D01*
X174309523Y-132500000D01*
X174261904Y-132547619D01*
X173547619Y-132452380D02*
X173547619Y-133166666D01*
X173595238Y-133309523D01*
X173690476Y-133404761D01*
X173833333Y-133452380D01*
X173928571Y-133452380D01*
X172595238Y-133452380D02*
X173071428Y-133452380D01*
X173071428Y-132452380D01*
X171690476Y-133357142D02*
X171738095Y-133404761D01*
X171880952Y-133452380D01*
X171976190Y-133452380D01*
X172119047Y-133404761D01*
X172214285Y-133309523D01*
X172261904Y-133214285D01*
X172309523Y-133023809D01*
X172309523Y-132880952D01*
X172261904Y-132690476D01*
X172214285Y-132595238D01*
X172119047Y-132500000D01*
X171976190Y-132452380D01*
X171880952Y-132452380D01*
X171738095Y-132500000D01*
X171690476Y-132547619D01*
X170976190Y-132452380D02*
X170976190Y-133166666D01*
X171023809Y-133309523D01*
X171119047Y-133404761D01*
X171261904Y-133452380D01*
X171357142Y-133452380D01*
X170023809Y-133452380D02*
X170500000Y-133452380D01*
X170500000Y-132452380D01*
X169119047Y-133357142D02*
X169166666Y-133404761D01*
X169309523Y-133452380D01*
X169404761Y-133452380D01*
X169547619Y-133404761D01*
X169642857Y-133309523D01*
X169690476Y-133214285D01*
X169738095Y-133023809D01*
X169738095Y-132880952D01*
X169690476Y-132690476D01*
X169642857Y-132595238D01*
X169547619Y-132500000D01*
X169404761Y-132452380D01*
X169309523Y-132452380D01*
X169166666Y-132500000D01*
X169119047Y-132547619D01*
X168404761Y-132452380D02*
X168404761Y-133166666D01*
X168452380Y-133309523D01*
X168547619Y-133404761D01*
X168690476Y-133452380D01*
X168785714Y-133452380D01*
X167452380Y-133452380D02*
X167928571Y-133452380D01*
X167928571Y-132452380D01*
X166547619Y-133357142D02*
X166595238Y-133404761D01*
X166738095Y-133452380D01*
X166833333Y-133452380D01*
X166976190Y-133404761D01*
X167071428Y-133309523D01*
X167119047Y-133214285D01*
X167166666Y-133023809D01*
X167166666Y-132880952D01*
X167119047Y-132690476D01*
X167071428Y-132595238D01*
X166976190Y-132500000D01*
X166833333Y-132452380D01*
X166738095Y-132452380D01*
X166595238Y-132500000D01*
X166547619Y-132547619D01*
X169738095Y-140452380D02*
X169500000Y-141452380D01*
X169309523Y-140738095D01*
X169119047Y-141452380D01*
X168880952Y-140452380D01*
X168595238Y-140785714D02*
X168357142Y-141452380D01*
X168119047Y-140785714D02*
X168357142Y-141452380D01*
X168452380Y-141690476D01*
X168500000Y-141738095D01*
X168595238Y-141785714D01*
X167785714Y-141404761D02*
X167690476Y-141452380D01*
X167500000Y-141452380D01*
X167404761Y-141404761D01*
X167357142Y-141309523D01*
X167357142Y-141261904D01*
X167404761Y-141166666D01*
X167500000Y-141119047D01*
X167642857Y-141119047D01*
X167738095Y-141071428D01*
X167785714Y-140976190D01*
X167785714Y-140928571D01*
X167738095Y-140833333D01*
X167642857Y-140785714D01*
X167500000Y-140785714D01*
X167404761Y-140833333D01*
X166547619Y-141404761D02*
X166642857Y-141452380D01*
X166833333Y-141452380D01*
X166928571Y-141404761D01*
X166976190Y-141309523D01*
X166976190Y-140928571D01*
X166928571Y-140833333D01*
X166833333Y-140785714D01*
X166642857Y-140785714D01*
X166547619Y-140833333D01*
X166500000Y-140928571D01*
X166500000Y-141023809D01*
X166976190Y-141119047D01*
X164833333Y-140452380D02*
X165309523Y-140452380D01*
X165357142Y-140928571D01*
X165309523Y-140880952D01*
X165214285Y-140833333D01*
X164976190Y-140833333D01*
X164880952Y-140880952D01*
X164833333Y-140928571D01*
X164785714Y-141023809D01*
X164785714Y-141261904D01*
X164833333Y-141357142D01*
X164880952Y-141404761D01*
X164976190Y-141452380D01*
X165214285Y-141452380D01*
X165309523Y-141404761D01*
X165357142Y-141357142D01*
X164166666Y-140452380D02*
X164071428Y-140452380D01*
X163976190Y-140500000D01*
X163928571Y-140547619D01*
X163880952Y-140642857D01*
X163833333Y-140833333D01*
X163833333Y-141071428D01*
X163880952Y-141261904D01*
X163928571Y-141357142D01*
X163976190Y-141404761D01*
X164071428Y-141452380D01*
X164166666Y-141452380D01*
X164261904Y-141404761D01*
X164309523Y-141357142D01*
X164357142Y-141261904D01*
X164404761Y-141071428D01*
X164404761Y-140833333D01*
X164357142Y-140642857D01*
X164309523Y-140547619D01*
X164261904Y-140500000D01*
X164166666Y-140452380D01*
X163500000Y-140452380D02*
X162833333Y-140452380D01*
X163261904Y-141452380D01*
X162261904Y-140452380D02*
X162166666Y-140452380D01*
X162071428Y-140500000D01*
X162023809Y-140547619D01*
X161976190Y-140642857D01*
X161928571Y-140833333D01*
X161928571Y-141071428D01*
X161976190Y-141261904D01*
X162023809Y-141357142D01*
X162071428Y-141404761D01*
X162166666Y-141452380D01*
X162261904Y-141452380D01*
X162357142Y-141404761D01*
X162404761Y-141357142D01*
X162452380Y-141261904D01*
X162500000Y-141071428D01*
X162500000Y-140833333D01*
X162452380Y-140642857D01*
X162404761Y-140547619D01*
X162357142Y-140500000D01*
X162261904Y-140452380D01*
X160738095Y-141452380D02*
X160738095Y-140452380D01*
X160357142Y-140452380D01*
X160261904Y-140500000D01*
X160214285Y-140547619D01*
X160166666Y-140642857D01*
X160166666Y-140785714D01*
X160214285Y-140880952D01*
X160261904Y-140928571D01*
X160357142Y-140976190D01*
X160738095Y-140976190D01*
X159166666Y-141357142D02*
X159214285Y-141404761D01*
X159357142Y-141452380D01*
X159452380Y-141452380D01*
X159595238Y-141404761D01*
X159690476Y-141309523D01*
X159738095Y-141214285D01*
X159785714Y-141023809D01*
X159785714Y-140880952D01*
X159738095Y-140690476D01*
X159690476Y-140595238D01*
X159595238Y-140500000D01*
X159452380Y-140452380D01*
X159357142Y-140452380D01*
X159214285Y-140500000D01*
X159166666Y-140547619D01*
X158738095Y-141452380D02*
X158738095Y-140452380D01*
X157880952Y-141404761D02*
X157976190Y-141452380D01*
X158166666Y-141452380D01*
X158261904Y-141404761D01*
X158309523Y-141309523D01*
X158309523Y-140928571D01*
X158261904Y-140833333D01*
X158166666Y-140785714D01*
X157976190Y-140785714D01*
X157880952Y-140833333D01*
X157833333Y-140928571D01*
X157833333Y-141023809D01*
X158309523Y-141119047D01*
X156071428Y-141452380D02*
X156404761Y-140976190D01*
X156642857Y-141452380D02*
X156642857Y-140452380D01*
X156261904Y-140452380D01*
X156166666Y-140500000D01*
X156119047Y-140547619D01*
X156071428Y-140642857D01*
X156071428Y-140785714D01*
X156119047Y-140880952D01*
X156166666Y-140928571D01*
X156261904Y-140976190D01*
X156642857Y-140976190D01*
X155642857Y-141452380D02*
X155642857Y-140785714D01*
X155642857Y-140452380D02*
X155690476Y-140500000D01*
X155642857Y-140547619D01*
X155595238Y-140500000D01*
X155642857Y-140452380D01*
X155642857Y-140547619D01*
X155214285Y-141404761D02*
X155119047Y-141452380D01*
X154928571Y-141452380D01*
X154833333Y-141404761D01*
X154785714Y-141309523D01*
X154785714Y-141261904D01*
X154833333Y-141166666D01*
X154928571Y-141119047D01*
X155071428Y-141119047D01*
X155166666Y-141071428D01*
X155214285Y-140976190D01*
X155214285Y-140928571D01*
X155166666Y-140833333D01*
X155071428Y-140785714D01*
X154928571Y-140785714D01*
X154833333Y-140833333D01*
X153976190Y-141404761D02*
X154071428Y-141452380D01*
X154261904Y-141452380D01*
X154357142Y-141404761D01*
X154404761Y-141309523D01*
X154404761Y-140928571D01*
X154357142Y-140833333D01*
X154261904Y-140785714D01*
X154071428Y-140785714D01*
X153976190Y-140833333D01*
X153928571Y-140928571D01*
X153928571Y-141023809D01*
X154404761Y-141119047D01*
X153500000Y-141452380D02*
X153500000Y-140785714D01*
X153500000Y-140976190D02*
X153452380Y-140880952D01*
X153404761Y-140833333D01*
X153309523Y-140785714D01*
X153214285Y-140785714D01*
D11*
X147428571Y-141678571D02*
X148285714Y-141678571D01*
X147857142Y-141678571D02*
X147857142Y-140178571D01*
X148000000Y-140392857D01*
X148142857Y-140535714D01*
X148285714Y-140607142D01*
X146857142Y-140321428D02*
X146785714Y-140250000D01*
X146642857Y-140178571D01*
X146285714Y-140178571D01*
X146142857Y-140250000D01*
X146071428Y-140321428D01*
X146000000Y-140464285D01*
X146000000Y-140607142D01*
X146071428Y-140821428D01*
X146928571Y-141678571D01*
X146000000Y-141678571D01*
X145571428Y-140178571D02*
X145071428Y-141678571D01*
X144571428Y-140178571D01*
X142642857Y-140178571D02*
X142357142Y-140178571D01*
X142214285Y-140250000D01*
X142071428Y-140392857D01*
X142000000Y-140678571D01*
X142000000Y-141178571D01*
X142071428Y-141464285D01*
X142214285Y-141607142D01*
X142357142Y-141678571D01*
X142642857Y-141678571D01*
X142785714Y-141607142D01*
X142928571Y-141464285D01*
X143000000Y-141178571D01*
X143000000Y-140678571D01*
X142928571Y-140392857D01*
X142785714Y-140250000D01*
X142642857Y-140178571D01*
X141357142Y-140678571D02*
X141357142Y-141678571D01*
X141357142Y-140821428D02*
X141285714Y-140750000D01*
X141142857Y-140678571D01*
X140928571Y-140678571D01*
X140785714Y-140750000D01*
X140714285Y-140892857D01*
X140714285Y-141678571D01*
X139785714Y-141678571D02*
X139928571Y-141607142D01*
X140000000Y-141464285D01*
X140000000Y-140178571D01*
X139357142Y-140678571D02*
X139000000Y-141678571D01*
X138642857Y-140678571D02*
X139000000Y-141678571D01*
X139142857Y-142035714D01*
X139214285Y-142107142D01*
X139357142Y-142178571D01*
D12*
%TO.C,J2*%
X127000000Y-136750000D02*
X129400000Y-136750000D01*
X127000000Y-129250000D02*
X129400000Y-129250000D01*
X127000000Y-130400000D02*
X127000000Y-129250000D01*
X140300000Y-129250000D02*
X142400000Y-129250000D01*
X127000000Y-136750000D02*
X127000000Y-135600000D01*
X180300000Y-136750000D02*
X183000000Y-136750000D01*
X183000000Y-136750000D02*
X183000000Y-135600000D01*
X140300000Y-136750000D02*
X142400000Y-136750000D01*
X183000000Y-130400000D02*
X183000000Y-129250000D01*
X180300000Y-129250000D02*
X183000000Y-129250000D01*
%TD*%
M02*
