%TF.GenerationSoftware,KiCad,Pcbnew,(6.0.1)*%
%TF.CreationDate,2022-02-11T00:18:26+08:00*%
%TF.ProjectId,Wyse-5070-PCIe-Riser,57797365-2d35-4303-9730-2d504349652d,rev?*%
%TF.SameCoordinates,Original*%
%TF.FileFunction,Plated,1,2,PTH,Drill*%
%TF.FilePolarity,Positive*%
%FSLAX46Y46*%
G04 Gerber Fmt 4.6, Leading zero omitted, Abs format (unit mm)*
G04 Created by KiCad (PCBNEW (6.0.1)) date 2022-02-11 00:18:26*
%MOMM*%
%LPD*%
G01*
G04 APERTURE LIST*
%TA.AperFunction,ViaDrill*%
%ADD10C,0.300000*%
%TD*%
G04 APERTURE END LIST*
D10*
X129850000Y-135100000D03*
X129850000Y-138100000D03*
X130850000Y-135250000D03*
X130850000Y-138000000D03*
X131850000Y-135250000D03*
X131850000Y-138000000D03*
X132850000Y-130900000D03*
X132850000Y-135100000D03*
X133850000Y-131000000D03*
X134850000Y-131000000D03*
X135850000Y-130900000D03*
X139500000Y-142950000D03*
X139500000Y-143750000D03*
X140500000Y-129400000D03*
X140500000Y-142950000D03*
X140500000Y-143750000D03*
X141500000Y-143750000D03*
X142850000Y-132400000D03*
X142850000Y-133000000D03*
X142850000Y-133600000D03*
X143850000Y-130900000D03*
X144500000Y-143750000D03*
X145036500Y-131350000D03*
X145500000Y-143750000D03*
X145663500Y-131350000D03*
X145850000Y-138100000D03*
X146850000Y-130900000D03*
X147850000Y-130900000D03*
X148850000Y-130900000D03*
X148850000Y-135100000D03*
X150036500Y-131350000D03*
X150663500Y-131350000D03*
X150850000Y-138100000D03*
X151850000Y-130900000D03*
X152000000Y-143750000D03*
X152850000Y-130900000D03*
X153850000Y-135100000D03*
X154036500Y-131350000D03*
X154663500Y-131350000D03*
X155000000Y-143750000D03*
X155850000Y-130900000D03*
X156850000Y-130900000D03*
X157000000Y-143750000D03*
X157850000Y-135100000D03*
X158000000Y-143750000D03*
X158036500Y-131350000D03*
X158663500Y-131350000D03*
X159850000Y-130900000D03*
X160000000Y-143750000D03*
X161850000Y-135100000D03*
X162000000Y-143750000D03*
X164000000Y-143750000D03*
X164850000Y-138100000D03*
X166000000Y-143750000D03*
X168000000Y-143750000D03*
X170000000Y-143750000D03*
M02*
